{
.appVersion = "1355";
DisplayStrings = (
"",
"/sinMatraAae/sinAae",
"",
"",
"",
"sub/space taNga/space taMatraI/space by/space taNgI;\012",
"",
"",
"/sinTouch",
"/space/nbspace",
"l/lcaron",
"/sinReph",

glyphs = (
{
glyphname = A;
lastChange = "2021-05-27 04:30:38 +0000";
layers = (
{
anchors = (
{
name = ogonek;
position = "{560, 10}";
},
{
name = top;
position = "{287, 660}";
}
);
background = {
paths = (
{
closed = 1;
nodes = (
"311 675 LINE",
"205 675 LINE",
"-1 0 LINE",
"120 0 LINE"
);
},
{
closed = 1;
nodes = (
"409 236 LINE",
"136 236 LINE",
"136 136 LINE",
"409 136 LINE"
);
},
{
closed = 1;
nodes = (
"426 0 LINE",
"557 0 LINE",
"350 675 LINE",
"236 675 LINE"
);
}
);
};
layerId = "6114C541-D024-4A3E-9713-6FAF49EAB318";
paths = (
{
closed = 1;
nodes = (
"129 0 LINE",
"234 372 LINE SMOOTH",
"249 425 OFFCURVE",
"281 563 OFFCURVE",
"295 617 CURVE",
"264 617 LINE",
"278 564 OFFCURVE",
"307 430 OFFCURVE",
"321 378 CURVE SMOOTH",
"424 0 LINE",
"560 0 LINE",
"361 675 LINE",
"201 675 LINE",
"-3 0 LINE"
);
},
{
closed = 1;
nodes = (
"409 136 LINE",
"409 236 LINE",
"136 236 LINE",
"136 136 LINE"
);
}
);
width = 557;
},
{
anchors = (
{
name = ogonek;
position = "{503, 5}";
},
{
name = top;
position = "{257, 645}";
}
);
associatedMasterId = "CC11FE7D-5FF0-4B40-9597-DFC61EB94F41";
background = {
paths = (
{
closed = 0;
nodes = (
"32 0 LINE",
"255 675 LINE",
"473 0 LINE"
);
},
{
closed = 0;
nodes = (
"393 186 LINE",
"120 186 LINE"
);
},
{
closed = 1;
nodes = (
"288 675 LINE",
"226 675 LINE",
"10 0 LINE",
"55 0 LINE",
"258 645 LINE",
"252 645 LINE",
"454 0 LINE",
"503 0 LINE"
);
}
);
};
layerId = "2F4E1C19-5467-4A47-A726-B1482005F173";
name = "Light Condensed Oct 26 15, 23:11";
paths = (
{
closed = 1;
nodes = (
"55 0 LINE",
"220 525 LINE SMOOTH",
"230 558 OFFCURVE",
"248 618 OFFCURVE",
"257 649 CURVE",
"253 649 LINE",
"262 618 OFFCURVE",
"280 558 OFFCURVE",
"290 525 CURVE SMOOTH",
"454 0 LINE",
"503 0 LINE",
"288 675 LINE",
"226 675 LINE",
"10 0 LINE"
);
},
{
closed = 1;
nodes = (
"413 181 LINE",
"413 216 LINE",
"100 215 LINE",
"100 180 LINE"
);
}
);
width = 513;
},
{
anchors = (
{
name = ogonek;
position = "{503, 5}";
},
{
name = top;
position = "{257, 645}";
}
);
layerId = "CC11FE7D-5FF0-4B40-9597-DFC61EB94F41";
paths = (
{
closed = 1;
nodes = (
"55 0 LINE",
"220 525 LINE SMOOTH",
"230 558 OFFCURVE",
"248 618 OFFCURVE",
"257 649 CURVE",
"253 649 LINE",
"262 618 OFFCURVE",
"280 558 OFFCURVE",
"290 525 CURVE SMOOTH",
"454 0 LINE",
"503 0 LINE",
"288 675 LINE",
"226 675 LINE",
"10 0 LINE"
);
},
{
closed = 1;
nodes = (
"413 180 LINE",
"413 215 LINE",
"100 215 LINE",
"100 180 LINE"
);
}
);
width = 513;
}
);
unicode = 0041;
},
{
glyphname = AE;
lastChange = "2018-02-04 13:36:43 +0000";
layers = (
{
anchors = (
{
name = top;
position = "{458, 655}";
}
);
background = {
paths = (
{
closed = 1;
nodes = (
"792 0 LINE",
"792 134 LINE",
"565 134 LINE",
"565 283 LINE",
"778 283 LINE",
"778 410 LINE",
"565 410 LINE",
"565 544 LINE",
"786 544 LINE",
"786 675 LINE",
"334 675 LINE",
"16 0 LINE",
"174 0 LINE",
"236 140 LINE",
"416 140 LINE",
"416 0 LINE"
);
},
{
closed = 1;
nodes = (
"416 261 LINE",
"287 261 LINE",
"354 401 LINE SMOOTH",
"378 450 OFFCURVE",
"395 494 OFFCURVE",
"414 544 CURVE",
"416 544 LINE"
);
}
);
};
components = (
{
name = E;
transform = "{1, 0, 0, 1, 366, 0}";
}
);
layerId = "6114C541-D024-4A3E-9713-6FAF49EAB318";
paths = (
{
closed = 1;
nodes = (
"134 0 LINE",
"365 464 LINE SMOOTH",
"391 515 OFFCURVE",
"413 565 OFFCURVE",
"435 615 CURVE",
"426 615 LINE",
"504 675 LINE",
"346 675 LINE",
"-3 0 LINE"
);
},
{
closed = 1;
nodes = (
"466 146 LINE",
"466 246 LINE",
"179 246 LINE",
"179 146 LINE"
);
}
);
width = 832;
},
{
anchors = (
{
name = top;
position = "{468, 635}";
}
);
background = {
paths = (
{
closed = 1;
nodes = (
"759 0 LINE",
"759 44 LINE",
"480 44 LINE",
"480 327 LINE",
"737 327 LINE",
"737 370 LINE",
"480 370 LINE",
"480 632 LINE",
"747 632 LINE",
"747 675 LINE",
"400 675 LINE",
"18 0 LINE",
"77 0 LINE",
"175 177 LINE",
"426 177 LINE",
"426 0 LINE"
);
},
{
closed = 1;
nodes = (
"426 221 LINE",
"199 221 LINE",
"353 497 LINE SMOOTH",
"391 565 OFFCURVE",
"408 599 OFFCURVE",
"423 629 CURVE",
"426 629 LINE"
);
}
);
};
components = (
{
name = E;
transform = "{1, 0, 0, 1, 347, 0}";
}
);
layerId = "CC11FE7D-5FF0-4B40-9597-DFC61EB94F41";
paths = (
{
closed = 1;
nodes = (
"59 0 LINE",
"334 473 LINE SMOOTH",
"368 532 OFFCURVE",
"401 590 OFFCURVE",
"435 649 CURVE",
"432 649 LINE",
"467 675 LINE",
"405 675 LINE",
"10 0 LINE"
);
},
{
closed = 1;
nodes = (
"456 181 LINE",
"456 216 LINE",
"162 215 LINE",
"143 180 LINE"
);
}
);
width = 810;
}
);
leftMetricsKey = A;
rightMetricsKey = E;
unicode = 00C6;
},
{
glyphname = B;
lastChange = "2021-05-27 04:30:38 +0000";
layers = (
{
background = {
paths = (
{
closed = 1;
nodes = (
"397 -5 OFFCURVE",
"502 51 OFFCURVE",
"502 198 CURVE SMOOTH",
"502 288 OFFCURVE",
"429 362 OFFCURVE",
"316 362 CURVE",
"316 349 LINE",
"420 349 OFFCURVE",
"481 430 OFFCURVE",
"481 508 CURVE SMOOTH",
"481 628 OFFCURVE",
"380 679 OFFCURVE",
"249 679 CURVE SMOOTH",
"169 679 OFFCURVE",
"117 677 OFFCURVE",
"60 675 CURVE",
"60 0 LINE",
"113 -3 OFFCURVE",
"160 -5 OFFCURVE",
"208 -5 CURVE SMOOTH"
);
},
{
closed = 1;
nodes = (
"192 584 LINE",
"176 566 LINE",
"201 568 OFFCURVE",
"225 569 OFFCURVE",
"246 569 CURVE SMOOTH",
"301 569 OFFCURVE",
"349 548 OFFCURVE",
"349 489 CURVE SMOOTH",
"349 440 OFFCURVE",
"313 398 OFFCURVE",
"257 398 CURVE SMOOTH",
"126 398 LINE",
"126 296 LINE",
"266 296 LINE SMOOTH",
"330 296 OFFCURVE",
"372 250 OFFCURVE",
"372 201 CURVE SMOOTH",
"372 129 OFFCURVE",
"315 105 OFFCURVE",
"250 105 CURVE SMOOTH",
"227 105 OFFCURVE",
"205 107 OFFCURVE",
"176 111 CURVE",
"192 93 LINE"
);
}
);
};
layerId = "6114C541-D024-4A3E-9713-6FAF49EAB318";
paths = (
{
closed = 1;
nodes = (
"402 -5 OFFCURVE",
"507 51 OFFCURVE",
"507 198 CURVE SMOOTH",
"507 288 OFFCURVE",
"434 362 OFFCURVE",
"318 362 CURVE",
"318 349 LINE",
"422 349 OFFCURVE",
"483 430 OFFCURVE",
"483 508 CURVE SMOOTH",
"483 628 OFFCURVE",
"382 679 OFFCURVE",
"254 679 CURVE SMOOTH",
"174 679 OFFCURVE",
"117 677 OFFCURVE",
"60 675 CURVE",
"60 0 LINE",
"113 -3 OFFCURVE",
"160 -5 OFFCURVE",
"208 -5 CURVE SMOOTH"
);
},
{
closed = 1;
nodes = (
"192 584 LINE",
"176 566 LINE",
"201 568 OFFCURVE",
"230 569 OFFCURVE",
"251 569 CURVE SMOOTH",
"303 569 OFFCURVE",
"351 548 OFFCURVE",
"351 489 CURVE SMOOTH",
"351 434 OFFCURVE",
"317 398 OFFCURVE",
"262 398 CURVE SMOOTH",
"126 398 LINE",
"126 296 LINE",
"271 296 LINE SMOOTH",
"341 296 OFFCURVE",
"374 256 OFFCURVE",
"374 201 CURVE SMOOTH",
"374 129 OFFCURVE",
"317 105 OFFCURVE",
"255 105 CURVE SMOOTH",
"232 105 OFFCURVE",
"205 107 OFFCURVE",
"176 111 CURVE",
"192 93 LINE"
);
}
);
width = 537;
},
{
associatedMasterId = "CC11FE7D-5FF0-4B40-9597-DFC61EB94F41";
background = {
paths = (
{
closed = 1;
nodes = (
"121 398 LINE",
"121 296 LINE",
"273 296 LINE SMOOTH",
"350 296 OFFCURVE",
"386 251 OFFCURVE",
"386 199 CURVE SMOOTH",
"386 149 OFFCURVE",
"352 102 OFFCURVE",
"281 102 CURVE SMOOTH",
"244 102 OFFCURVE",
"214 103 OFFCURVE",
"177 105 CURVE",
"177 570 LINE",
"207 572 OFFCURVE",
"237 573 OFFCURVE",
"267 573 CURVE SMOOTH",
"336 573 OFFCURVE",
"364 535 OFFCURVE",
"364 484 CURVE SMOOTH",
"364 433 OFFCURVE",
"335 398 OFFCURVE",
"264 398 CURVE SMOOTH"
);
},
{
closed = 1;
nodes = (
"325 349 LINE",
"424 349 OFFCURVE",
"486 413 OFFCURVE",
"486 500 CURVE SMOOTH",
"486 596 OFFCURVE",
"426 678 OFFCURVE",
"281 678 CURVE SMOOTH",
"206 678 OFFCURVE",
"130 677 OFFCURVE",
"55 675 CURVE",
"55 0 LINE",
"132 -1 OFFCURVE",
"201 -1 OFFCURVE",
"278 -2 CURVE SMOOTH",
"433 -3 OFFCURVE",
"507 83 OFFCURVE",
"507 195 CURVE SMOOTH",
"507 297 OFFCURVE",
"438 362 OFFCURVE",
"325 362 CURVE"
);
},
{
closed = 1;
nodes = (
"397 360 OFFCURVE",
"448 412 OFFCURVE",
"448 493 CURVE SMOOTH",
"448 609 OFFCURVE",
"365 677 OFFCURVE",
"231 677 CURVE SMOOTH",
"184 676 OFFCURVE",
"137 677 OFFCURVE",
"90 675 CURVE",
"90 0 LINE",
"136 -1 OFFCURVE",
"181 -2 OFFCURVE",
"227 -3 CURVE SMOOTH",
"375 -4 OFFCURVE",
"468 74 OFFCURVE",
"468 202 CURVE SMOOTH",
"467 296 OFFCURVE",
"410 350 OFFCURVE",
"319 362 CURVE",
"319 348 LINE"
);
},
{
closed = 1;
nodes = (
"368 335 OFFCURVE",
"424 282 OFFCURVE",
"424 202 CURVE SMOOTH",
"424 94 OFFCURVE",
"353 32 OFFCURVE",
"228 33 CURVE SMOOTH",
"195 34 OFFCURVE",
"162 34 OFFCURVE",
"129 35 CURVE",
"129 640 LINE",
"163 641 OFFCURVE",
"197 641 OFFCURVE",
"231 641 CURVE SMOOTH",
"340 641 OFFCURVE",
"404 587 OFFCURVE",
"404 492 CURVE SMOOTH",
"404 423 OFFCURVE",
"353 368 OFFCURVE",
"286 368 CURVE SMOOTH",
"110 368 LINE",
"110 335 LINE",
"284 335 LINE SMOOTH"
);
}
);
};
layerId = "0A00D05B-DD0D-4C3F-AB81-36AC8EA30555";
name = "Light Condensed Sep 9 15, 15:32";
paths = (
{
closed = 1;
nodes = (
"397 360 OFFCURVE",
"448 412 OFFCURVE",
"448 493 CURVE SMOOTH",
"448 609 OFFCURVE",
"365 677 OFFCURVE",
"231 677 CURVE SMOOTH",
"184 676 OFFCURVE",
"137 677 OFFCURVE",
"90 675 CURVE",
"90 0 LINE",
"136 -1 OFFCURVE",
"181 -2 OFFCURVE",
"227 -3 CURVE SMOOTH",
"375 -4 OFFCURVE",
"468 74 OFFCURVE",
"468 202 CURVE SMOOTH",
"467 296 OFFCURVE",
"410 350 OFFCURVE",
"319 362 CURVE",
"319 348 LINE"
);
},
{
closed = 1;
nodes = (
"368 335 OFFCURVE",
"424 282 OFFCURVE",
"424 202 CURVE SMOOTH",
"424 94 OFFCURVE",
"353 32 OFFCURVE",
"228 33 CURVE SMOOTH",
"195 34 OFFCURVE",
"162 34 OFFCURVE",
"129 35 CURVE",
"129 640 LINE",
"163 641 OFFCURVE",
"197 641 OFFCURVE",
"231 641 CURVE SMOOTH",
"340 641 OFFCURVE",
"404 587 OFFCURVE",
"404 492 CURVE SMOOTH",
"404 423 OFFCURVE",
"353 368 OFFCURVE",
"286 368 CURVE SMOOTH",
"110 368 LINE",
"110 335 LINE",
"284 335 LINE SMOOTH"
);
}
);
width = 523;
},
{
associatedMasterId = "6114C541-D024-4A3E-9713-6FAF49EAB318";
background = {
paths = (
{
closed = 1;
nodes = (
"131 398 LINE",
"131 296 LINE",
"283 296 LINE SMOOTH",
"360 296 OFFCURVE",
"396 255 OFFCURVE",
"396 204 CURVE SMOOTH",
"396 153 OFFCURVE",
"367 102 OFFCURVE",
"291 102 CURVE SMOOTH",
"254 102 OFFCURVE",
"224 103 OFFCURVE",
"187 105 CURVE",
"187 570 LINE",
"217 572 OFFCURVE",
"247 573 OFFCURVE",
"277 573 CURVE SMOOTH",
"346 573 OFFCURVE",
"374 540 OFFCURVE",
"374 489 CURVE SMOOTH",
"374 438 OFFCURVE",
"345 398 OFFCURVE",
"274 398 CURVE SMOOTH"
);
},
{
closed = 1;
nodes = (
"335 349 LINE",
"434 349 OFFCURVE",
"496 413 OFFCURVE",
"496 500 CURVE SMOOTH",
"496 596 OFFCURVE",
"436 678 OFFCURVE",
"291 678 CURVE SMOOTH",
"216 678 OFFCURVE",
"140 677 OFFCURVE",
"65 675 CURVE",
"65 0 LINE",
"142 -1 OFFCURVE",
"211 -1 OFFCURVE",
"288 -2 CURVE SMOOTH",
"443 -3 OFFCURVE",
"517 83 OFFCURVE",
"517 195 CURVE SMOOTH",
"517 297 OFFCURVE",
"448 362 OFFCURVE",
"335 362 CURVE"
);
}
);
};
layerId = "1EBD8800-A440-49B4-9E0D-74074669951E";
name = "Bold fino";
paths = (
{
closed = 1;
nodes = (
"131 398 LINE",
"131 296 LINE",
"283 296 LINE SMOOTH",
"363 296 OFFCURVE",
"397 250 OFFCURVE",
"397 201 CURVE SMOOTH",
"397 152 OFFCURVE",
"371 102 OFFCURVE",
"291 102 CURVE SMOOTH",
"254 102 OFFCURVE",
"224 103 OFFCURVE",
"187 105 CURVE",
"187 570 LINE",
"217 572 OFFCURVE",
"247 573 OFFCURVE",
"277 573 CURVE SMOOTH",
"346 573 OFFCURVE",
"374 540 OFFCURVE",
"374 489 CURVE SMOOTH",
"374 438 OFFCURVE",
"345 398 OFFCURVE",
"274 398 CURVE SMOOTH"
);
},
{
closed = 1;
nodes = (
"331 349 LINE",
"437 349 OFFCURVE",
"496 433 OFFCURVE",
"496 511 CURVE SMOOTH",
"496 597 OFFCURVE",
"429 678 OFFCURVE",
"291 678 CURVE SMOOTH",
"216 678 OFFCURVE",
"140 677 OFFCURVE",
"65 675 CURVE",
"65 0 LINE",
"143 -1 OFFCURVE",
"213 -2 OFFCURVE",
"291 -2 CURVE SMOOTH",
"444 -2 OFFCURVE",
"517 88 OFFCURVE",
"517 198 CURVE SMOOTH",
"517 298 OFFCURVE",
"444 362 OFFCURVE",
"331 362 CURVE"
);
}
);
width = 552;
},
{
associatedMasterId = "CC11FE7D-5FF0-4B40-9597-DFC61EB94F41";
background = {
paths = (
{
closed = 1;
nodes = (
"363 352 OFFCURVE",
"442 421 OFFCURVE",
"442 517 CURVE SMOOTH",
"442 596 OFFCURVE",
"396 677 OFFCURVE",
"234 677 CURVE SMOOTH",
"187 677 OFFCURVE",
"132 677 OFFCURVE",
"85 675 CURVE",
"85 0 LINE",
"124 -3 OFFCURVE",
"160 -3 OFFCURVE",
"192 -3 CURVE SMOOTH",
"386 -3 OFFCURVE",
"461 75 OFFCURVE",
"461 194 CURVE SMOOTH",
"461 278 OFFCURVE",
"400 359 OFFCURVE",
"284 359 CURVE",
"284 352 LINE"
);
},
{
closed = 1;
nodes = (
"360 335 OFFCURVE",
"417 277 OFFCURVE",
"417 190 CURVE SMOOTH",
"417 74 OFFCURVE",
"333 32 OFFCURVE",
"208 32 CURVE SMOOTH",
"182 32 OFFCURVE",
"154 33 OFFCURVE",
"124 36 CURVE",
"124 639 LINE",
"158 640 OFFCURVE",
"190 642 OFFCURVE",
"227 642 CURVE SMOOTH",
"352 642 OFFCURVE",
"399 588 OFFCURVE",
"399 508 CURVE SMOOTH",
"399 430 OFFCURVE",
"340 368 OFFCURVE",
"215 368 CURVE SMOOTH",
"105 368 LINE",
"105 335 LINE",
"227 335 LINE SMOOTH"
);
}
);
};
layerId = "59687A57-01C0-42B5-BE52-9FF42C483E20";
name = "Light Condensed Sep 10 15, 19:35";
paths = (
{
closed = 1;
nodes = (
"386 -3 OFFCURVE",
"461 75 OFFCURVE",
"461 194 CURVE SMOOTH",
"461 278 OFFCURVE",
"400 359 OFFCURVE",
"284 359 CURVE",
"284 352 LINE",
"363 352 OFFCURVE",
"442 421 OFFCURVE",
"442 517 CURVE SMOOTH",
"442 596 OFFCURVE",
"396 677 OFFCURVE",
"234 677 CURVE SMOOTH",
"187 677 OFFCURVE",
"132 677 OFFCURVE",
"85 675 CURVE",
"85 0 LINE",
"124 -3 OFFCURVE",
"160 -3 OFFCURVE",
"192 -3 CURVE SMOOTH"
);
},
{
closed = 1;
nodes = (
"124 650 LINE",
"113 639 LINE",
"153 641 OFFCURVE",
"190 642 OFFCURVE",
"227 642 CURVE SMOOTH",
"352 642 OFFCURVE",
"399 588 OFFCURVE",
"399 508 CURVE SMOOTH",
"399 430 OFFCURVE",
"340 368 OFFCURVE",
"215 368 CURVE SMOOTH",
"105 368 LINE",
"105 335 LINE",
"227 335 LINE SMOOTH",
"360 335 OFFCURVE",
"417 277 OFFCURVE",
"417 190 CURVE SMOOTH",
"417 74 OFFCURVE",
"333 32 OFFCURVE",
"208 32 CURVE SMOOTH",
"182 32 OFFCURVE",
"149 33 OFFCURVE",
"114 37 CURVE",
"124 26 LINE"
);
}
);
width = 508;
},
{
background = {
paths = (
{
closed = 1;
nodes = (
"363 352 OFFCURVE",
"442 421 OFFCURVE",
"442 517 CURVE SMOOTH",
"442 596 OFFCURVE",
"396 677 OFFCURVE",
"234 677 CURVE SMOOTH",
"187 677 OFFCURVE",
"132 677 OFFCURVE",
"85 675 CURVE",
"85 0 LINE",
"124 -3 OFFCURVE",
"160 -3 OFFCURVE",
"192 -3 CURVE SMOOTH",
"386 -3 OFFCURVE",
"461 75 OFFCURVE",
"461 194 CURVE SMOOTH",
"461 278 OFFCURVE",
"400 359 OFFCURVE",
"284 359 CURVE",
"284 352 LINE"
);
},
{
closed = 1;
nodes = (
"360 335 OFFCURVE",
"417 277 OFFCURVE",
"417 190 CURVE SMOOTH",
"417 74 OFFCURVE",
"333 32 OFFCURVE",
"208 32 CURVE SMOOTH",
"182 32 OFFCURVE",
"154 33 OFFCURVE",
"124 36 CURVE",
"124 639 LINE",
"158 640 OFFCURVE",
"190 642 OFFCURVE",
"227 642 CURVE SMOOTH",
"352 642 OFFCURVE",
"399 588 OFFCURVE",
"399 508 CURVE SMOOTH",
"399 430 OFFCURVE",
"340 368 OFFCURVE",
"215 368 CURVE SMOOTH",
"105 368 LINE",
"105 335 LINE",
"227 335 LINE SMOOTH"
);
}
);
};
layerId = "CC11FE7D-5FF0-4B40-9597-DFC61EB94F41";
paths = (
{
closed = 1;
nodes = (
"381 -3 OFFCURVE",
"456 75 OFFCURVE",
"456 194 CURVE SMOOTH",
"456 278 OFFCURVE",
"395 359 OFFCURVE",
"279 359 CURVE",
"279 352 LINE",
"358 352 OFFCURVE",
"437 421 OFFCURVE",
"437 517 CURVE SMOOTH",
"437 596 OFFCURVE",
"391 677 OFFCURVE",
"234 677 CURVE SMOOTH",
"187 677 OFFCURVE",
"132 677 OFFCURVE",
"85 675 CURVE",
"85 0 LINE",
"124 -3 OFFCURVE",
"160 -3 OFFCURVE",
"192 -3 CURVE SMOOTH"
);
},
{
closed = 1;
nodes = (
"127 650 LINE",
"113 637 LINE",
"153 639 OFFCURVE",
"190 640 OFFCURVE",
"227 640 CURVE SMOOTH",
"346 640 OFFCURVE",
"392 588 OFFCURVE",
"392 508 CURVE SMOOTH",
"392 430 OFFCURVE",
"334 369 OFFCURVE",
"215 369 CURVE SMOOTH",
"105 369 LINE",
"105 334 LINE",
"227 334 LINE SMOOTH",
"354 334 OFFCURVE",
"410 277 OFFCURVE",
"410 190 CURVE SMOOTH",
"410 74 OFFCURVE",
"327 34 OFFCURVE",
"208 34 CURVE SMOOTH",
"182 34 OFFCURVE",
"149 35 OFFCURVE",
"114 39 CURVE",
"127 26 LINE"
);
}
);
width = 503;
}
);
unicode = 0042;
},
{
glyphname = C;
lastChange = "2021-05-27 04:30:38 +0000";
layers = (
{
anchors = (
{
name = bottom;
position = "{307, 0}";
},
{
name = top;
position = "{302, 660}";
}
);
background = {
paths = (
{
closed = 1;
nodes = (
"419 118 OFFCURVE",
"366 100 OFFCURVE",
"320 100 CURVE SMOOTH",
"223 100 OFFCURVE",
"170 181 OFFCURVE",
"170 336 CURVE SMOOTH",
"170 493 OFFCURVE",
"227 575 OFFCURVE",
"306 575 CURVE SMOOTH",
"354 575 OFFCURVE",
"391 547 OFFCURVE",
"412 484 CURVE",
"541 514 LINE",
"510 629 OFFCURVE",
"423 690 OFFCURVE",
"307 690 CURVE SMOOTH",
"165 690 OFFCURVE",
"30 575 OFFCURVE",
"30 335 CURVE SMOOTH",
"30 114 OFFCURVE",
"144 -17 OFFCURVE",
"306 -17 CURVE SMOOTH",
"374 -17 OFFCURVE",
"449 6 OFFCURVE",
"527 56 CURVE",
"480 155 LINE"
);
}
);
};
layerId = "6114C541-D024-4A3E-9713-6FAF49EAB318";
paths = (
{
closed = 1;
nodes = (
"420 118 OFFCURVE",
"370 103 OFFCURVE",
"327 103 CURVE SMOOTH",
"231 103 OFFCURVE",
"170 181 OFFCURVE",
"170 336 CURVE SMOOTH",
"170 493 OFFCURVE",
"222 575 OFFCURVE",
"304 575 CURVE SMOOTH",
"351 575 OFFCURVE",
"388 547 OFFCURVE",
"409 484 CURVE",
"538 514 LINE",
"507 629 OFFCURVE",
"425 690 OFFCURVE",
"305 690 CURVE SMOOTH",
"160 690 OFFCURVE",
"30 575 OFFCURVE",
"30 335 CURVE SMOOTH",
"30 115 OFFCURVE",
"147 -15 OFFCURVE",
"308 -15 CURVE SMOOTH",
"374 -15 OFFCURVE",
"448 6 OFFCURVE",
"524 54 CURVE",
"475 150 LINE"
);
}
);
width = 545;
},
{
associatedMasterId = "6114C541-D024-4A3E-9713-6FAF49EAB318";
background = {
paths = (
{
closed = 1;
nodes = (
"466 204 OFFCURVE",
"424 95 OFFCURVE",
"312 95 CURVE SMOOTH",
"199 95 OFFCURVE",
"158 202 OFFCURVE",
"158 336 CURVE SMOOTH",
"158 468 OFFCURVE",
"201 579 OFFCURVE",
"314 579 CURVE SMOOTH",
"425 579 OFFCURVE",
"466 472 OFFCURVE",
"466 335 CURVE SMOOTH"
);
},
{
closed = 1;
nodes = (
"596 540 OFFCURVE",
"507 690 OFFCURVE",
"314 690 CURVE SMOOTH",
"123 690 OFFCURVE",
"28 534 OFFCURVE",
"28 335 CURVE SMOOTH",
"28 133 OFFCURVE",
"118 -15 OFFCURVE",
"311 -15 CURVE SMOOTH",
"503 -15 OFFCURVE",
"596 137 OFFCURVE",
"596 336 CURVE SMOOTH"
);
},
{
closed = 1;
nodes = (
"414 51 OFFCURVE",
"354 31 OFFCURVE",
"300 31 CURVE SMOOTH",
"163 31 OFFCURVE",
"84 144 OFFCURVE",
"84 336 CURVE SMOOTH",
"84 524 OFFCURVE",
"169 645 OFFCURVE",
"301 645 CURVE SMOOTH",
"376 645 OFFCURVE",
"435 609 OFFCURVE",
"473 525 CURVE",
"512 540 LINE",
"470 637 OFFCURVE",
"394 682 OFFCURVE",
"303 682 CURVE SMOOTH",
"149 682 OFFCURVE",
"40 552 OFFCURVE",
"40 336 CURVE SMOOTH",
"40 123 OFFCURVE",
"137 -7 OFFCURVE",
"295 -7 CURVE SMOOTH",
"357 -7 OFFCURVE",
"426 14 OFFCURVE",
"498 61 CURVE",
"479 92 LINE"
);
}
);
};
layerId = "02BDBED7-5DEA-4A58-8209-CC01E78ED0C0";
name = "Bold fino";
paths = (
{
closed = 1;
nodes = (
"428 117 OFFCURVE",
"370 98 OFFCURVE",
"322 98 CURVE SMOOTH",
"215 98 OFFCURVE",
"158 184 OFFCURVE",
"158 336 CURVE SMOOTH",
"158 493 OFFCURVE",
"217 579 OFFCURVE",
"311 579 CURVE SMOOTH",
"362 579 OFFCURVE",
"410 547 OFFCURVE",
"431 484 CURVE",
"550 514 LINE",
"519 629 OFFCURVE",
"428 691 OFFCURVE",
"312 691 CURVE SMOOTH",
"163 691 OFFCURVE",
"28 575 OFFCURVE",
"28 335 CURVE SMOOTH",
"28 108 OFFCURVE",
"142 -15 OFFCURVE",
"309 -15 CURVE SMOOTH",
"379 -15 OFFCURVE",
"455 9 OFFCURVE",
"535 61 CURVE",
"490 155 LINE"
);
}
);
width = 555;
},
{
associatedMasterId = "CC11FE7D-5FF0-4B40-9597-DFC61EB94F41";
background = {
paths = (
{
closed = 1;
nodes = (
"510 163 OFFCURVE",
"438 30 OFFCURVE",
"297 30 CURVE SMOOTH",
"153 30 OFFCURVE",
"84 161 OFFCURVE",
"84 336 CURVE SMOOTH",
"84 510 OFFCURVE",
"158 645 OFFCURVE",
"299 645 CURVE SMOOTH",
"441 645 OFFCURVE",
"510 512 OFFCURVE",
"510 336 CURVE SMOOTH"
);
},
{
closed = 1;
nodes = (
"554 531 OFFCURVE",
"473 682 OFFCURVE",
"299 682 CURVE SMOOTH",
"134 682 OFFCURVE",
"40 529 OFFCURVE",
"40 336 CURVE SMOOTH",
"40 142 OFFCURVE",
"118 -7 OFFCURVE",
"297 -7 CURVE SMOOTH",
"462 -7 OFFCURVE",
"554 144 OFFCURVE",
"554 336 CURVE SMOOTH"
);
}
);
};
layerId = "1C058D36-C158-4B27-AE6B-D643B078117E";
name = "Light Condensed Sep 10 15, 19:36";
paths = (
{
closed = 1;
nodes = (
"414 51 OFFCURVE",
"354 31 OFFCURVE",
"300 31 CURVE SMOOTH",
"163 31 OFFCURVE",
"84 144 OFFCURVE",
"84 336 CURVE SMOOTH",
"84 524 OFFCURVE",
"169 645 OFFCURVE",
"301 645 CURVE SMOOTH",
"376 645 OFFCURVE",
"435 609 OFFCURVE",
"473 525 CURVE",
"512 540 LINE",
"470 637 OFFCURVE",
"394 682 OFFCURVE",
"303 682 CURVE SMOOTH",
"149 682 OFFCURVE",
"40 552 OFFCURVE",
"40 336 CURVE SMOOTH",
"40 123 OFFCURVE",
"137 -7 OFFCURVE",
"295 -7 CURVE SMOOTH",
"357 -7 OFFCURVE",
"426 14 OFFCURVE",
"498 61 CURVE",
"479 92 LINE"
);
}
);
width = 520;
},
{
associatedMasterId = "6114C541-D024-4A3E-9713-6FAF49EAB318";
background = {
paths = (
{
closed = 1;
nodes = (
"418 122 OFFCURVE",
"362 102 OFFCURVE",
"317 102 CURVE SMOOTH",
"225 102 OFFCURVE",
"170 184 OFFCURVE",
"170 336 CURVE SMOOTH",
"170 493 OFFCURVE",
"227 575 OFFCURVE",
"306 575 CURVE SMOOTH",
"354 575 OFFCURVE",
"391 547 OFFCURVE",
"412 484 CURVE",
"541 514 LINE",
"510 629 OFFCURVE",
"423 690 OFFCURVE",
"307 690 CURVE SMOOTH",
"165 690 OFFCURVE",
"30 575 OFFCURVE",
"30 335 CURVE SMOOTH",
"30 108 OFFCURVE",
"144 -15 OFFCURVE",
"304 -15 CURVE SMOOTH",
"371 -15 OFFCURVE",
"447 8 OFFCURVE",
"527 60 CURVE",
"480 160 LINE"
);
},
{
closed = 1;
nodes = (
"450 207 OFFCURVE",
"410 100 OFFCURVE",
"311 100 CURVE SMOOTH",
"211 100 OFFCURVE",
"172 205 OFFCURVE",
"172 336 CURVE SMOOTH",
"172 465 OFFCURVE",
"213 575 OFFCURVE",
"313 575 CURVE SMOOTH",
"411 575 OFFCURVE",
"450 469 OFFCURVE",
"450 335 CURVE SMOOTH"
);
},
{
closed = 1;
nodes = (
"590 540 OFFCURVE",
"503 690 OFFCURVE",
"313 690 CURVE SMOOTH",
"125 690 OFFCURVE",
"32 534 OFFCURVE",
"32 335 CURVE SMOOTH",
"32 133 OFFCURVE",
"120 -15 OFFCURVE",
"310 -15 CURVE SMOOTH",
"499 -15 OFFCURVE",
"590 137 OFFCURVE",
"590 336 CURVE SMOOTH"
);
}
);
};
layerId = "0C366F1A-9801-42C0-93CD-87324F0B382F";
name = "Bold Condensed Sep 13 15, 23:23";
paths = (
{
closed = 1;
nodes = (
"419 118 OFFCURVE",
"366 100 OFFCURVE",
"320 100 CURVE SMOOTH",
"223 100 OFFCURVE",
"170 181 OFFCURVE",
"170 336 CURVE SMOOTH",
"170 493 OFFCURVE",
"227 575 OFFCURVE",
"306 575 CURVE SMOOTH",
"354 575 OFFCURVE",
"391 547 OFFCURVE",
"412 484 CURVE",
"541 514 LINE",
"510 629 OFFCURVE",
"423 690 OFFCURVE",
"307 690 CURVE SMOOTH",
"165 690 OFFCURVE",
"30 575 OFFCURVE",
"30 335 CURVE SMOOTH",
"30 114 OFFCURVE",
"144 -17 OFFCURVE",
"306 -17 CURVE SMOOTH",
"374 -17 OFFCURVE",
"449 6 OFFCURVE",
"527 56 CURVE",
"480 155 LINE"
);
}
);
width = 550;
},
{
anchors = (
{
name = bottom;
position = "{298, 0}";
},
{
name = top;
position = "{298, 645}";
}
);
background = {
paths = (
{
closed = 1;
nodes = (
"498 163 OFFCURVE",
"426 32 OFFCURVE",
"292 32 CURVE SMOOTH",
"155 32 OFFCURVE",
"86 161 OFFCURVE",
"86 336 CURVE SMOOTH",
"86 509 OFFCURVE",
"160 643 OFFCURVE",
"294 643 CURVE SMOOTH",
"429 643 OFFCURVE",
"498 511 OFFCURVE",
"498 336 CURVE SMOOTH"
);
},
{
closed = 1;
nodes = (
"544 531 OFFCURVE",
"463 682 OFFCURVE",
"294 682 CURVE SMOOTH",
"134 682 OFFCURVE",
"40 529 OFFCURVE",
"40 336 CURVE SMOOTH",
"40 142 OFFCURVE",
"118 -7 OFFCURVE",
"292 -7 CURVE SMOOTH",
"452 -7 OFFCURVE",
"544 144 OFFCURVE",
"544 336 CURVE SMOOTH"
);
}
);
};
layerId = "CC11FE7D-5FF0-4B40-9597-DFC61EB94F41";
paths = (
{
closed = 1;
nodes = (
"399 51 OFFCURVE",
"349 33 OFFCURVE",
"295 33 CURVE SMOOTH",
"164 33 OFFCURVE",
"87 145 OFFCURVE",
"87 336 CURVE SMOOTH",
"87 528 OFFCURVE",
"165 643 OFFCURVE",
"295 643 CURVE SMOOTH",
"365 643 OFFCURVE",
"423 609 OFFCURVE",
"457 525 CURVE",
"497 540 LINE",
"459 637 OFFCURVE",
"383 682 OFFCURVE",
"297 682 CURVE SMOOTH",
"146 682 OFFCURVE",
"40 557 OFFCURVE",
"40 336 CURVE SMOOTH",
"40 123 OFFCURVE",
"137 -7 OFFCURVE",
"290 -7 CURVE SMOOTH",
"352 -7 OFFCURVE",
"411 14 OFFCURVE",
"483 61 CURVE",
"464 92 LINE"
);
}
);
width = 505;
}
);
unicode = 0043;
},
{
glyphname = D;
lastChange = "2021-05-27 04:30:38 +0000";
layers = (
{
anchors = (
{
name = center;
position = "{291, 338}";
},
{
name = top;
position = "{271, 660}";
}
);
background = {
paths = (
{
closed = 1;
nodes = (
"196 677 OFFCURVE",
"120 676 OFFCURVE",
"60 675 CURVE",
"60 0 LINE",
"121 -1 OFFCURVE",
"193 -2 OFFCURVE",
"253 -3 CURVE SMOOTH",
"471 -7 OFFCURVE",
"563 140 OFFCURVE",
"563 336 CURVE SMOOTH",
"563 522 OFFCURVE",
"485 682 OFFCURVE",
"256 678 CURVE SMOOTH"
);
},
{
closed = 1;
nodes = (
"230 104 OFFCURVE",
"206 104 OFFCURVE",
"182 105 CURVE",
"182 570 LINE",
"206 571 OFFCURVE",
"232 571 OFFCURVE",
"256 571 CURVE SMOOTH",
"393 571 OFFCURVE",
"433 454 OFFCURVE",
"433 335 CURVE SMOOTH",
"433 207 OFFCURVE",
"392 104 OFFCURVE",
"254 104 CURVE SMOOTH"
);
}
);
};
layerId = "6114C541-D024-4A3E-9713-6FAF49EAB318";
paths = (
{
closed = 1;
nodes = (
"196 677 OFFCURVE",
"120 676 OFFCURVE",
"60 675 CURVE",
"60 0 LINE",
"121 -1 OFFCURVE",
"193 -2 OFFCURVE",
"253 -3 CURVE SMOOTH",
"466 -7 OFFCURVE",
"553 140 OFFCURVE",
"553 336 CURVE SMOOTH",
"553 522 OFFCURVE",
"480 682 OFFCURVE",
"256 678 CURVE SMOOTH"
);
},
{
closed = 1;
nodes = (
"230 109 OFFCURVE",
"197 109 OFFCURVE",
"173 110 CURVE",
"192 90 LINE",
"192 585 LINE",
"173 565 LINE",
"197 566 OFFCURVE",
"232 566 OFFCURVE",
"256 566 CURVE SMOOTH",
"381 566 OFFCURVE",
"413 449 OFFCURVE",
"413 335 CURVE SMOOTH",
"413 207 OFFCURVE",
"380 109 OFFCURVE",
"254 109 CURVE SMOOTH"
);
}
);
width = 581;
},
{
associatedMasterId = "6114C541-D024-4A3E-9713-6FAF49EAB318";
background = {
paths = (
{
closed = 1;
nodes = (
"438 204 OFFCURVE",
"396 95 OFFCURVE",
"284 95 CURVE SMOOTH",
"171 95 OFFCURVE",
"130 202 OFFCURVE",
"130 336 CURVE SMOOTH",
"130 468 OFFCURVE",
"173 579 OFFCURVE",
"286 579 CURVE SMOOTH",
"397 579 OFFCURVE",
"438 472 OFFCURVE",
"438 335 CURVE SMOOTH"
);
},
{
closed = 1;
nodes = (
"568 540 OFFCURVE",
"479 690 OFFCURVE",
"286 690 CURVE SMOOTH",
"95 690 OFFCURVE",
"0 534 OFFCURVE",
"0 335 CURVE SMOOTH",
"0 133 OFFCURVE",
"90 -15 OFFCURVE",
"283 -15 CURVE SMOOTH",
"475 -15 OFFCURVE",
"568 137 OFFCURVE",
"568 336 CURVE SMOOTH"
);
},
{
closed = 1;
nodes = (
"60 675 LINE",
"60 0 LINE",
"182 0 LINE",
"182 675 LINE"
);
},
{
closed = 1;
nodes = (
"213 104 OFFCURVE",
"166 105 OFFCURVE",
"119 105 CURVE",
"119 0 LINE",
"166 -1 OFFCURVE",
"212 -2 OFFCURVE",
"259 -3 CURVE SMOOTH",
"476 -8 OFFCURVE",
"563 137 OFFCURVE",
"563 336 CURVE SMOOTH",
"563 525 OFFCURVE",
"490 681 OFFCURVE",
"262 678 CURVE SMOOTH",
"214 677 OFFCURVE",
"167 676 OFFCURVE",
"119 675 CURVE",
"119 570 LINE",
"167 570 OFFCURVE",
"214 571 OFFCURVE",
"262 571 CURVE SMOOTH",
"398 572 OFFCURVE",
"433 457 OFFCURVE",
"433 335 CURVE SMOOTH",
"433 204 OFFCURVE",
"397 103 OFFCURVE",
"260 104 CURVE SMOOTH"
);
}
);
};
layerId = "580EF950-33D4-42AF-AAFA-C0B7DBBF5C69";
name = "Bold fino";
paths = (
{
closed = 1;
nodes = (
"196 677 OFFCURVE",
"120 676 OFFCURVE",
"60 675 CURVE",
"60 0 LINE",
"121 -1 OFFCURVE",
"193 -2 OFFCURVE",
"253 -3 CURVE SMOOTH",
"471 -7 OFFCURVE",
"563 140 OFFCURVE",
"563 336 CURVE SMOOTH",
"563 522 OFFCURVE",
"485 682 OFFCURVE",
"256 678 CURVE SMOOTH"
);
},
{
closed = 1;
nodes = (
"230 104 OFFCURVE",
"206 104 OFFCURVE",
"182 105 CURVE",
"182 570 LINE",
"206 571 OFFCURVE",
"232 571 OFFCURVE",
"256 571 CURVE SMOOTH",
"393 571 OFFCURVE",
"433 454 OFFCURVE",
"433 335 CURVE SMOOTH",
"433 207 OFFCURVE",
"392 104 OFFCURVE",
"254 104 CURVE SMOOTH"
);
}
);
width = 591;
},
{
associatedMasterId = "CC11FE7D-5FF0-4B40-9597-DFC61EB94F41";
background = {
paths = (
{
closed = 1;
nodes = (
"167 677 OFFCURVE",
"103 676 OFFCURVE",
"36 675 CURVE",
"36 0 LINE",
"102 -1 OFFCURVE",
"165 -2 OFFCURVE",
"229 -3 CURVE SMOOTH",
"452 -6 OFFCURVE",
"539 137 OFFCURVE",
"539 336 CURVE SMOOTH",
"539 525 OFFCURVE",
"466 682 OFFCURVE",
"232 678 CURVE SMOOTH"
);
},
{
closed = 1;
nodes = (
"206 104 OFFCURVE",
"184 104 OFFCURVE",
"158 105 CURVE",
"158 570 LINE",
"185 571 OFFCURVE",
"207 571 OFFCURVE",
"232 571 CURVE SMOOTH",
"374 571 OFFCURVE",
"409 457 OFFCURVE",
"409 335 CURVE SMOOTH",
"409 204 OFFCURVE",
"373 104 OFFCURVE",
"230 104 CURVE SMOOTH"
);
},
{
closed = 1;
nodes = (
"491 163 OFFCURVE",
"419 30 OFFCURVE",
"278 30 CURVE SMOOTH",
"134 30 OFFCURVE",
"65 161 OFFCURVE",
"65 336 CURVE SMOOTH",
"65 510 OFFCURVE",
"139 645 OFFCURVE",
"280 645 CURVE SMOOTH",
"422 645 OFFCURVE",
"491 512 OFFCURVE",
"491 336 CURVE SMOOTH"
);
},
{
closed = 1;
nodes = (
"535 531 OFFCURVE",
"454 682 OFFCURVE",
"280 682 CURVE SMOOTH",
"115 682 OFFCURVE",
"21 529 OFFCURVE",
"21 336 CURVE SMOOTH",
"21 142 OFFCURVE",
"99 -7 OFFCURVE",
"278 -7 CURVE SMOOTH",
"443 -7 OFFCURVE",
"535 144 OFFCURVE",
"535 336 CURVE SMOOTH"
);
}
);
};
layerId = "379FE6FB-E03B-4DC3-A205-AE483D189961";
name = "Light Condensed Sep 10 15, 19:36";
paths = (
{
closed = 1;
nodes = (
"200 678 OFFCURVE",
"146 676 OFFCURVE",
"85 675 CURVE",
"85 0 LINE",
"146 -2 OFFCURVE",
"198 -3 OFFCURVE",
"245 -3 CURVE SMOOTH",
"440 -3 OFFCURVE",
"530 149 OFFCURVE",
"530 336 CURVE SMOOTH",
"530 526 OFFCURVE",
"451 678 OFFCURVE",
"247 678 CURVE SMOOTH"
);
},
{
closed = 1;
nodes = (
"211 33 OFFCURVE",
"162 33 OFFCURVE",
"114 35 CURVE",
"124 25 LINE",
"124 650 LINE",
"114 640 LINE",
"162 641 OFFCURVE",
"213 642 OFFCURVE",
"247 642 CURVE SMOOTH",
"419 642 OFFCURVE",
"486 507 OFFCURVE",
"486 336 CURVE SMOOTH",
"486 168 OFFCURVE",
"416 33 OFFCURVE",
"245 33 CURVE SMOOTH"
);
}
);
width = 570;
},
{
anchors = (
{
name = center;
position = "{280, 338}";
},
{
name = top;
position = "{258, 645}";
}
);
background = {
paths = (
{
closed = 1;
nodes = (
"200 678 OFFCURVE",
"146 676 OFFCURVE",
"85 675 CURVE",
"85 0 LINE",
"146 -2 OFFCURVE",
"198 -3 OFFCURVE",
"245 -3 CURVE SMOOTH",
"440 -3 OFFCURVE",
"530 149 OFFCURVE",
"530 336 CURVE SMOOTH",
"530 526 OFFCURVE",
"451 678 OFFCURVE",
"247 678 CURVE SMOOTH"
);
},
{
closed = 1;
nodes = (
"211 33 OFFCURVE",
"162 33 OFFCURVE",
"114 35 CURVE",
"124 25 LINE",
"124 650 LINE",
"114 640 LINE",
"162 641 OFFCURVE",
"213 642 OFFCURVE",
"247 642 CURVE SMOOTH",
"419 642 OFFCURVE",
"486 507 OFFCURVE",
"486 336 CURVE SMOOTH",
"486 168 OFFCURVE",
"416 33 OFFCURVE",
"245 33 CURVE SMOOTH"
);
}
);
};
layerId = "CC11FE7D-5FF0-4B40-9597-DFC61EB94F41";
paths = (
{
closed = 1;
nodes = (
"194 678 OFFCURVE",
"146 676 OFFCURVE",
"85 675 CURVE",
"85 0 LINE",
"146 -2 OFFCURVE",
"192 -3 OFFCURVE",
"239 -3 CURVE SMOOTH",
"430 -3 OFFCURVE",
"520 149 OFFCURVE",
"520 336 CURVE SMOOTH",
"520 526 OFFCURVE",
"441 678 OFFCURVE",
"241 678 CURVE SMOOTH"
);
},
{
closed = 1;
nodes = (
"205 35 OFFCURVE",
"162 35 OFFCURVE",
"114 37 CURVE",
"127 25 LINE",
"127 650 LINE",
"114 638 LINE",
"162 639 OFFCURVE",
"207 640 OFFCURVE",
"241 640 CURVE SMOOTH",
"407 640 OFFCURVE",
"474 505 OFFCURVE",
"474 336 CURVE SMOOTH",
"474 170 OFFCURVE",
"404 35 OFFCURVE",
"239 35 CURVE SMOOTH"
);
}
);
width = 560;
}
);
unicode = 0044;
},
{
glyphname = Eth;
lastChange = "2018-02-04 13:36:43 +0000";
layers = (
{
components = (
{
name = D;
transform = "{1, 0, 0, 1, 11, 0}";
}
);
layerId = "6114C541-D024-4A3E-9713-6FAF49EAB318";
paths = (
{
closed = 1;
nodes = (
"3 397 LINE",
"3 297 LINE",
"311 297 LINE",
"311 397 LINE"
);
}
);
width = 592;
},
{
components = (
{
name = D;
transform = "{1, 0, 0, 1, 2, 0}";
}
);
layerId = "CC11FE7D-5FF0-4B40-9597-DFC61EB94F41";
paths = (
{
closed = 1;
nodes = (
"7 371 LINE",
"7 336 LINE",
"292 336 LINE",
"292 371 LINE"
);
}
);
width = 562;
}
);
unicode = 00D0;
},
{
glyphname = E;
lastChange = "2018-02-04 13:36:43 +0000";
layers = (
{
anchors = (
{
name = bottom;
position = "{233, 0}";
},
{
name = ogonek;
position = "{426, 10}";
},
{
name = top;
position = "{233, 660}";
}
);
background = {
paths = (
{
closed = 1;
nodes = (
"182 0 LINE",
"182 675 LINE",
"60 675 LINE",
"60 0 LINE"
);
},
{
closed = 1;
nodes = (
"443 0 LINE",
"443 105 LINE",
"119 105 LINE",
"119 0 LINE"
);
},
{
closed = 1;
nodes = (
"405 295 LINE",
"405 398 LINE",
"119 398 LINE",
"119 295 LINE"
);
},
{
closed = 1;
nodes = (
"434 570 LINE",
"434 675 LINE",
"119 675 LINE",
"119 570 LINE"
);
}
);
};
layerId = "6114C541-D024-4A3E-9713-6FAF49EAB318";
paths = (
{
closed = 1;
nodes = (
"192 85 LINE",
"192 318 LINE",
"172 293 LINE",
"388 293 LINE",
"388 401 LINE",
"172 401 LINE",
"192 381 LINE",
"192 590 LINE",
"172 565 LINE",
"417 565 LINE",
"417 675 LINE",
"60 675 LINE",
"60 0 LINE",
"426 0 LINE",
"426 110 LINE",
"172 110 LINE"
);
}
);
width = 466;
},
{
associatedMasterId = "6114C541-D024-4A3E-9713-6FAF49EAB318";
background = {
paths = (
{
closed = 1;
nodes = (
"182 0 LINE",
"182 675 LINE",
"60 675 LINE",
"60 0 LINE"
);
},
{
closed = 1;
nodes = (
"443 0 LINE",
"443 105 LINE",
"119 105 LINE",
"119 0 LINE"
);
},
{
closed = 1;
nodes = (
"405 295 LINE",
"405 398 LINE",
"119 398 LINE",
"119 295 LINE"
);
},
{
closed = 1;
nodes = (
"434 570 LINE",
"434 675 LINE",
"119 675 LINE",
"119 570 LINE"
);
}
);
};
layerId = "52BD04F6-4872-4058-9B10-E99CC8AB9B17";
name = "Bold fino";
paths = (
{
closed = 1;
nodes = (
"182 85 LINE",
"182 315 LINE",
"162 295 LINE",
"405 295 LINE",
"405 398 LINE",
"162 398 LINE",
"182 378 LINE",
"182 590 LINE",
"162 570 LINE",
"434 570 LINE",
"434 675 LINE",
"60 675 LINE",
"60 0 LINE",
"443 0 LINE",
"443 105 LINE",
"162 105 LINE"
);
}
);
width = 485;
},
{
associatedMasterId = "CC11FE7D-5FF0-4B40-9597-DFC61EB94F41";
background = {
paths = (
{
closed = 1;
nodes = (
"124 0 LINE",
"124 675 LINE",
"85 675 LINE",
"85 0 LINE"
);
},
{
closed = 1;
nodes = (
"423 0 LINE",
"423 35 LINE",
"105 35 LINE",
"105 0 LINE"
);
},
{
closed = 1;
nodes = (
"385 336 LINE",
"385 371 LINE",
"105 371 LINE",
"105 336 LINE"
);
},
{
closed = 1;
nodes = (
"414 640 LINE",
"414 675 LINE",
"105 675 LINE",
"105 640 LINE"
);
}
);
};
layerId = "658BEF41-E1F5-4404-88D4-613F03A1B5D4";
name = "Light Condensed Sep 10 15, 19:36";
paths = (
{
closed = 1;
nodes = (
"124 25 LINE",
"124 346 LINE",
"114 336 LINE",
"385 336 LINE",
"385 371 LINE",
"114 371 LINE",
"124 361 LINE",
"124 650 LINE",
"114 640 LINE",
"414 640 LINE",
"414 675 LINE",
"85 675 LINE",
"85 0 LINE",
"423 0 LINE",
"423 35 LINE",
"114 35 LINE"
);
}
);
width = 493;
},
{
anchors = (
{
name = bottom;
position = "{241, 0}";
},
{
name = ogonek;
position = "{408, 5}";
},
{
name = top;
position = "{244, 645}";
}
);
background = {
paths = (
{
closed = 1;
nodes = (
"124 0 LINE",
"124 675 LINE",
"85 675 LINE",
"85 0 LINE"
);
},
{
closed = 1;
nodes = (
"423 0 LINE",
"423 35 LINE",
"105 35 LINE",
"105 0 LINE"
);
},
{
closed = 1;
nodes = (
"385 336 LINE",
"385 371 LINE",
"105 371 LINE",
"105 336 LINE"
);
},
{
closed = 1;
nodes = (
"414 640 LINE",
"414 675 LINE",
"105 675 LINE",
"105 640 LINE"
);
}
);
};
layerId = "CC11FE7D-5FF0-4B40-9597-DFC61EB94F41";
paths = (
{
closed = 1;
nodes = (
"127 25 LINE",
"127 346 LINE",
"114 335 LINE",
"370 335 LINE",
"370 372 LINE",
"114 372 LINE",
"127 361 LINE",
"127 650 LINE",
"114 638 LINE",
"399 638 LINE",
"399 675 LINE",
"85 675 LINE",
"85 0 LINE",
"408 0 LINE",
"408 37 LINE",
"114 37 LINE"
);
}
);
width = 463;
}
);
unicode = 0045;
},
{
glyphname = F;
lastChange = "2018-02-04 13:36:43 +0000";
layers = (
{
background = {
paths = (
{
closed = 1;
nodes = (
"60 675 LINE",
"60 0 LINE",
"192 0 LINE",
"192 675 LINE"
);
},
{
closed = 1;
nodes = (
"119 282 LINE",
"386 282 LINE",
"386 390 LINE",
"119 390 LINE"
);
},
{
closed = 1;
nodes = (
"119 565 LINE",
"415 565 LINE",
"415 675 LINE",
"119 675 LINE"
);
}
);
};
layerId = "6114C541-D024-4A3E-9713-6FAF49EAB318";
paths = (
{
closed = 1;
nodes = (
"415 675 LINE",
"60 675 LINE",
"60 0 LINE",
"192 0 LINE",
"192 302 LINE",
"172 282 LINE",
"386 282 LINE",
"386 390 LINE",
"172 390 LINE",
"192 370 LINE",
"192 585 LINE",
"172 565 LINE",
"415 565 LINE"
);
}
);
width = 435;
},
{
associatedMasterId = "6114C541-D024-4A3E-9713-6FAF49EAB318";
background = {
paths = (
{
closed = 1;
nodes = (
"60 675 LINE",
"60 0 LINE",
"182 0 LINE",
"182 675 LINE"
);
},
{
closed = 1;
nodes = (
"119 302 LINE",
"405 302 LINE",
"405 405 LINE",
"119 405 LINE"
);
},
{
closed = 1;
nodes = (
"119 570 LINE",
"434 570 LINE",
"434 675 LINE",
"119 675 LINE"
);
}
);
};
layerId = "829D74BB-052E-4811-99ED-1527389B6761";
name = "Bold fino";
paths = (
{
closed = 1;
nodes = (
"60 675 LINE",
"60 0 LINE",
"182 0 LINE",
"182 675 LINE"
);
},
{
closed = 1;
nodes = (
"119 287 LINE",
"398 287 LINE",
"398 390 LINE",
"119 390 LINE"
);
},
{
closed = 1;
nodes = (
"119 570 LINE",
"427 570 LINE",
"427 675 LINE",
"119 675 LINE"
);
}
);
width = 453;
},
{
associatedMasterId = "CC11FE7D-5FF0-4B40-9597-DFC61EB94F41";
background = {
paths = (
{
closed = 1;
nodes = (
"85 675 LINE",
"85 0 LINE",
"124 0 LINE",
"124 675 LINE"
);
},
{
closed = 1;
nodes = (
"105 346 LINE",
"383 346 LINE",
"383 381 LINE",
"105 381 LINE"
);
},
{
closed = 1;
nodes = (
"105 640 LINE",
"412 640 LINE",
"412 675 LINE",
"105 675 LINE"
);
}
);
};
layerId = "161BE22A-AE74-4A2A-87FE-2EA13B332A84";
name = "Light Condensed Sep 10 15, 19:37";
paths = (
{
closed = 1;
nodes = (
"412 675 LINE",
"85 675 LINE",
"85 0 LINE",
"124 0 LINE",
"124 356 LINE",
"114 346 LINE",
"383 346 LINE",
"383 381 LINE",
"114 381 LINE",
"124 371 LINE",
"124 650 LINE",
"114 640 LINE",
"412 640 LINE"
);
}
);
width = 452;
},
{
background = {
paths = (
{
closed = 1;
nodes = (
"85 675 LINE",
"85 0 LINE",
"124 0 LINE",
"124 675 LINE"
);
},
{
closed = 1;
nodes = (
"105 346 LINE",
"383 346 LINE",
"383 381 LINE",
"105 381 LINE"
);
},
{
closed = 1;
nodes = (
"105 640 LINE",
"412 640 LINE",
"412 675 LINE",
"105 675 LINE"
);
}
);
};
layerId = "CC11FE7D-5FF0-4B40-9597-DFC61EB94F41";
paths = (
{
closed = 1;
nodes = (
"402 675 LINE",
"85 675 LINE",
"85 0 LINE",
"127 0 LINE",
"127 356 LINE",
"114 345 LINE",
"373 345 LINE",
"373 382 LINE",
"114 382 LINE",
"127 371 LINE",
"127 650 LINE",
"114 638 LINE",
"402 638 LINE"
);
}
);
width = 442;
}
);
unicode = 0046;
},
{
glyphname = G;
lastChange = "2021-05-27 04:30:38 +0000";
layers = (
{
anchors = (
{
name = bottom;
position = "{292, 0}";
},
{
name = top;
position = "{306, 660}";
}
);
background = {
paths = (
{
closed = 1;
nodes = (
"381 -15 OFFCURVE",
"459 4 OFFCURVE",
"542 44 CURVE",
"487 139 LINE",
"427 110 OFFCURVE",
"377 95 OFFCURVE",
"328 95 CURVE SMOOTH",
"220 95 OFFCURVE",
"155 176 OFFCURVE",
"155 336 CURVE SMOOTH",
"155 493 OFFCURVE",
"214 579 OFFCURVE",
"308 579 CURVE SMOOTH",
"359 579 OFFCURVE",
"405 549 OFFCURVE",
"426 484 CURVE",
"547 514 LINE",
"515 631 OFFCURVE",
"421 691 OFFCURVE",
"309 691 CURVE SMOOTH",
"162 691 OFFCURVE",
"25 575 OFFCURVE",
"25 335 CURVE SMOOTH",
"25 106 OFFCURVE",
"140 -15 OFFCURVE",
"312 -15 CURVE SMOOTH"
);
},
{
closed = 1;
nodes = (
"302 244 LINE",
"424 244 LINE",
"424 44 LINE",
"542 44 LINE",
"542 349 LINE",
"302 349 LINE"
);
}
);
};
layerId = "6114C541-D024-4A3E-9713-6FAF49EAB318";
paths = (
{
closed = 1;
nodes = (
"482 144 LINE",
"422 115 OFFCURVE",
"372 100 OFFCURVE",
"328 100 CURVE SMOOTH",
"228 100 OFFCURVE",
"170 176 OFFCURVE",
"170 336 CURVE SMOOTH",
"170 495 OFFCURVE",
"222 576 OFFCURVE",
"308 576 CURVE SMOOTH",
"359 576 OFFCURVE",
"396 544 OFFCURVE",
"417 484 CURVE",
"542 514 LINE",
"510 631 OFFCURVE",
"419 691 OFFCURVE",
"309 691 CURVE SMOOTH",
"160 691 OFFCURVE",
"30 575 OFFCURVE",
"30 335 CURVE SMOOTH",
"30 106 OFFCURVE",
"137 -15 OFFCURVE",
"312 -15 CURVE SMOOTH",
"376 -15 OFFCURVE",
"458 -1 OFFCURVE",
"541 39 CURVE",
"541 354 LINE",
"300 354 LINE",
"300 244 LINE",
"429 244 LINE",
"409 264 LINE",
"409 39 LINE"
);
}
);
width = 584;
},
{
associatedMasterId = "6114C541-D024-4A3E-9713-6FAF49EAB318";
background = {
paths = (
{
closed = 1;
nodes = (
"427 292 LINE",
"427 17 LINE",
"545 59 LINE",
"545 292 LINE"
);
},
{
closed = 1;
nodes = (
"305 246 LINE",
"545 246 LINE",
"545 351 LINE",
"305 351 LINE"
);
},
{
closed = 1;
nodes = (
"428 116 OFFCURVE",
"380 98 OFFCURVE",
"322 98 CURVE SMOOTH",
"215 98 OFFCURVE",
"158 184 OFFCURVE",
"158 336 CURVE SMOOTH",
"158 493 OFFCURVE",
"217 579 OFFCURVE",
"311 579 CURVE SMOOTH",
"362 579 OFFCURVE",
"408 549 OFFCURVE",
"429 484 CURVE",
"550 514 LINE",
"518 631 OFFCURVE",
"424 691 OFFCURVE",
"312 691 CURVE SMOOTH",
"165 691 OFFCURVE",
"28 575 OFFCURVE",
"28 335 CURVE SMOOTH",
"28 108 OFFCURVE",
"142 -15 OFFCURVE",
"309 -15 CURVE SMOOTH",
"399 -15 OFFCURVE",
"472 14 OFFCURVE",
"545 59 CURVE",
"490 154 LINE"
);
}
);
};
layerId = "9E076269-CCEA-4EE1-AC19-D06B2BAB6CDC";
name = "Bold fino";
paths = (
{
closed = 1;
nodes = (
"384 -15 OFFCURVE",
"462 4 OFFCURVE",
"545 44 CURVE",
"490 139 LINE",
"430 110 OFFCURVE",
"380 95 OFFCURVE",
"331 95 CURVE SMOOTH",
"223 95 OFFCURVE",
"158 176 OFFCURVE",
"158 336 CURVE SMOOTH",
"158 493 OFFCURVE",
"217 579 OFFCURVE",
"311 579 CURVE SMOOTH",
"362 579 OFFCURVE",
"408 549 OFFCURVE",
"429 484 CURVE",
"550 514 LINE",
"518 631 OFFCURVE",
"424 691 OFFCURVE",
"312 691 CURVE SMOOTH",
"165 691 OFFCURVE",
"28 575 OFFCURVE",
"28 335 CURVE SMOOTH",
"28 106 OFFCURVE",
"143 -15 OFFCURVE",
"315 -15 CURVE SMOOTH"
);
},
{
closed = 1;
nodes = (
"305 244 LINE",
"427 244 LINE",
"427 44 LINE",
"545 44 LINE",
"545 349 LINE",
"305 349 LINE"
);
}
);
width = 592;
},
{
associatedMasterId = "CC11FE7D-5FF0-4B40-9597-DFC61EB94F41";
background = {
paths = (
{
closed = 1;
nodes = (
"472 41 LINE",
"511 51 LINE",
"511 311 LINE",
"472 311 LINE"
);
},
{
closed = 1;
nodes = (
"295 311 LINE",
"295 276 LINE",
"491 276 LINE",
"491 311 LINE"
);
},
{
closed = 1;
nodes = (
"425 47 OFFCURVE",
"374 31 OFFCURVE",
"305 31 CURVE SMOOTH",
"175 31 OFFCURVE",
"84 131 OFFCURVE",
"84 336 CURVE SMOOTH",
"84 524 OFFCURVE",
"169 645 OFFCURVE",
"301 645 CURVE SMOOTH",
"376 645 OFFCURVE",
"435 609 OFFCURVE",
"473 525 CURVE",
"512 540 LINE",
"470 637 OFFCURVE",
"394 682 OFFCURVE",
"303 682 CURVE SMOOTH",
"149 682 OFFCURVE",
"40 552 OFFCURVE",
"40 336 CURVE SMOOTH",
"40 119 OFFCURVE",
"143 -7 OFFCURVE",
"301 -7 CURVE SMOOTH",
"375 -7 OFFCURVE",
"434 10 OFFCURVE",
"511 51 CURVE",
"492 83 LINE"
);
}
);
};
layerId = "18BED2AD-FF43-4F7A-A8BE-837CB1718A76";
name = "Light Condensed Sep 10 15, 19:37";
paths = (
{
closed = 1;
nodes = (
"492 83 LINE",
"425 48 OFFCURVE",
"370 29 OFFCURVE",
"309 29 CURVE SMOOTH",
"173 29 OFFCURVE",
"84 138 OFFCURVE",
"84 336 CURVE SMOOTH",
"84 524 OFFCURVE",
"169 645 OFFCURVE",
"301 645 CURVE SMOOTH",
"376 645 OFFCURVE",
"435 609 OFFCURVE",
"473 525 CURVE",
"512 540 LINE",
"470 637 OFFCURVE",
"394 682 OFFCURVE",
"303 682 CURVE SMOOTH",
"149 682 OFFCURVE",
"40 552 OFFCURVE",
"40 336 CURVE SMOOTH",
"40 117 OFFCURVE",
"146 -8 OFFCURVE",
"305 -8 CURVE SMOOTH",
"366 -8 OFFCURVE",
"436 11 OFFCURVE",
"511 51 CURVE",
"511 314 LINE",
"295 314 LINE",
"295 279 LINE",
"482 279 LINE",
"472 289 LINE",
"472 51 LINE"
);
}
);
width = 566;
},
{
associatedMasterId = "CC11FE7D-5FF0-4B40-9597-DFC61EB94F41";
background = {
paths = (
{
closed = 1;
nodes = (
"477 41 LINE",
"516 51 LINE",
"516 311 LINE",
"477 311 LINE"
);
},
{
closed = 1;
nodes = (
"300 311 LINE",
"300 276 LINE",
"496 276 LINE",
"496 311 LINE"
);
},
{
closed = 1;
nodes = (
"430 47 OFFCURVE",
"379 31 OFFCURVE",
"310 31 CURVE SMOOTH",
"180 31 OFFCURVE",
"89 131 OFFCURVE",
"89 336 CURVE SMOOTH",
"89 524 OFFCURVE",
"174 645 OFFCURVE",
"306 645 CURVE SMOOTH",
"381 645 OFFCURVE",
"440 609 OFFCURVE",
"478 525 CURVE",
"517 540 LINE",
"475 637 OFFCURVE",
"399 682 OFFCURVE",
"308 682 CURVE SMOOTH",
"154 682 OFFCURVE",
"45 552 OFFCURVE",
"45 336 CURVE SMOOTH",
"45 119 OFFCURVE",
"148 -7 OFFCURVE",
"306 -7 CURVE SMOOTH",
"380 -7 OFFCURVE",
"439 10 OFFCURVE",
"516 51 CURVE",
"497 83 LINE"
);
}
);
};
layerId = "3C6BE7CC-90AF-4992-8919-83DF8BBB808A";
name = "Light Condensed Sep 13 15, 16:25";
paths = (
{
closed = 1;
nodes = (
"492 85 LINE",
"425 50 OFFCURVE",
"372 31 OFFCURVE",
"314 31 CURVE SMOOTH",
"175 31 OFFCURVE",
"86 140 OFFCURVE",
"86 336 CURVE SMOOTH",
"86 522 OFFCURVE",
"171 643 OFFCURVE",
"306 643 CURVE SMOOTH",
"378 643 OFFCURVE",
"434 608 OFFCURVE",
"472 524 CURVE",
"512 540 LINE",
"470 637 OFFCURVE",
"396 682 OFFCURVE",
"308 682 CURVE SMOOTH",
"149 682 OFFCURVE",
"40 552 OFFCURVE",
"40 336 CURVE SMOOTH",
"40 117 OFFCURVE",
"146 -8 OFFCURVE",
"310 -8 CURVE SMOOTH",
"368 -8 OFFCURVE",
"437 11 OFFCURVE",
"512 51 CURVE",
"512 314 LINE",
"300 314 LINE",
"300 277 LINE",
"482 277 LINE",
"470 289 LINE",
"470 51 LINE"
);
}
);
width = 567;
},
{
anchors = (
{
name = bottom;
position = "{280, 0}";
},
{
name = top;
position = "{302, 645}";
}
);
background = {
paths = (
{
closed = 1;
nodes = (
"487 85 LINE",
"420 50 OFFCURVE",
"367 31 OFFCURVE",
"309 31 CURVE SMOOTH",
"170 31 OFFCURVE",
"81 140 OFFCURVE",
"81 336 CURVE SMOOTH",
"81 522 OFFCURVE",
"166 643 OFFCURVE",
"301 643 CURVE SMOOTH",
"373 643 OFFCURVE",
"429 608 OFFCURVE",
"467 524 CURVE",
"507 540 LINE",
"465 637 OFFCURVE",
"391 682 OFFCURVE",
"303 682 CURVE SMOOTH",
"144 682 OFFCURVE",
"35 552 OFFCURVE",
"35 336 CURVE SMOOTH",
"35 117 OFFCURVE",
"141 -8 OFFCURVE",
"305 -8 CURVE SMOOTH",
"363 -8 OFFCURVE",
"432 11 OFFCURVE",
"507 51 CURVE",
"507 314 LINE",
"295 314 LINE",
"295 277 LINE",
"477 277 LINE",
"465 289 LINE",
"465 51 LINE"
);
}
);
};
layerId = "CC11FE7D-5FF0-4B40-9597-DFC61EB94F41";
paths = (
{
closed = 1;
nodes = (
"485 85 LINE",
"418 50 OFFCURVE",
"365 31 OFFCURVE",
"309 31 CURVE SMOOTH",
"175 31 OFFCURVE",
"86 140 OFFCURVE",
"86 336 CURVE SMOOTH",
"86 522 OFFCURVE",
"171 643 OFFCURVE",
"301 643 CURVE SMOOTH",
"371 643 OFFCURVE",
"427 608 OFFCURVE",
"465 524 CURVE",
"505 540 LINE",
"463 637 OFFCURVE",
"389 682 OFFCURVE",
"303 682 CURVE SMOOTH",
"149 682 OFFCURVE",
"40 552 OFFCURVE",
"40 336 CURVE SMOOTH",
"40 117 OFFCURVE",
"146 -8 OFFCURVE",
"305 -8 CURVE SMOOTH",
"361 -8 OFFCURVE",
"430 11 OFFCURVE",
"505 51 CURVE",
"505 314 LINE",
"295 314 LINE",
"295 277 LINE",
"475 277 LINE",
"463 289 LINE",
"463 51 LINE"
);
}
);
width = 560;
}
);
unicode = 0047;
},
{
glyphname = H;
lastChange = "2018-02-04 13:36:43 +0000";
layers = (
{
layerId = "6114C541-D024-4A3E-9713-6FAF49EAB318";
paths = (
{
closed = 1;
nodes = (
"413 383 LINE",
"433 403 LINE",
"172 403 LINE",
"192 383 LINE",
"192 675 LINE",
"60 675 LINE",
"60 0 LINE",
"192 0 LINE",
"192 313 LINE",
"172 293 LINE",
"433 293 LINE",
"413 313 LINE",
"413 0 LINE",
"545 0 LINE",
"545 675 LINE",
"413 675 LINE"
);
}
);
width = 605;
},
{
associatedMasterId = "6114C541-D024-4A3E-9713-6FAF49EAB318";
layerId = "D8CFC724-BFE3-4C0A-80F1-B1627DD68D63";
name = "Bold fino";
paths = (
{
closed = 1;
nodes = (
"60 675 LINE",
"60 0 LINE",
"182 0 LINE",
"182 675 LINE"
);
},
{
closed = 1;
nodes = (
"557 0 LINE",
"557 675 LINE",
"435 675 LINE",
"435 0 LINE"
);
},
{
closed = 1;
nodes = (
"119 296 LINE",
"495 296 LINE",
"495 401 LINE",
"119 401 LINE"
);
}
);
width = 617;
},
{
associatedMasterId = "CC11FE7D-5FF0-4B40-9597-DFC61EB94F41";
background = {
paths = (
{
closed = 1;
nodes = (
"85 675 LINE",
"85 0 LINE",
"124 0 LINE",
"124 675 LINE"
);
},
{
closed = 1;
nodes = (
"531 0 LINE",
"531 675 LINE",
"492 675 LINE",
"492 0 LINE"
);
},
{
closed = 1;
nodes = (
"105 336 LINE",
"511 336 LINE",
"511 371 LINE",
"105 371 LINE"
);
}
);
};
layerId = "103B1E4B-F5F5-49DC-B8A0-B5A300652377";
name = "Light Condensed Sep 10 15, 19:37";
paths = (
{
closed = 1;
nodes = (
"492 361 LINE",
"502 371 LINE",
"114 371 LINE",
"124 361 LINE",
"124 675 LINE",
"85 675 LINE",
"85 0 LINE",
"124 0 LINE",
"124 346 LINE",
"114 336 LINE",
"502 336 LINE",
"492 346 LINE",
"492 0 LINE",
"531 0 LINE",
"531 675 LINE",
"492 675 LINE"
);
}
);
width = 616;
},
{
background = {
paths = (
{
closed = 1;
nodes = (
"75 675 LINE",
"75 0 LINE",
"114 0 LINE",
"114 675 LINE"
);
},
{
closed = 1;
nodes = (
"521 0 LINE",
"521 675 LINE",
"482 675 LINE",
"482 0 LINE"
);
},
{
closed = 1;
nodes = (
"95 336 LINE",
"501 336 LINE",
"501 371 LINE",
"95 371 LINE"
);
}
);
};
layerId = "CC11FE7D-5FF0-4B40-9597-DFC61EB94F41";
paths = (
{
closed = 1;
nodes = (
"474 359 LINE",
"487 369 LINE",
"114 369 LINE",
"127 359 LINE",
"127 675 LINE",
"85 675 LINE",
"85 0 LINE",
"127 0 LINE",
"127 344 LINE",
"114 334 LINE",
"487 334 LINE",
"474 344 LINE",
"474 0 LINE",
"516 0 LINE",
"516 675 LINE",
"474 675 LINE"
);
}
);
width = 601;
}
);
unicode = 0048;
},
{
glyphname = I;
lastChange = "2018-02-04 13:36:43 +0000";
layers = (
{
anchors = (
{
name = ogonek;
position = "{192, 10}";
},
{
name = top;
position = "{126, 660}";
}
);
background = {
paths = (
{
closed = 1;
nodes = (
"65 675 LINE",
"65 0 LINE",
"187 0 LINE",
"187 675 LINE"
);
}
);
};
layerId = "6114C541-D024-4A3E-9713-6FAF49EAB318";
paths = (
{
closed = 1;
nodes = (
"60 675 LINE",
"60 0 LINE",
"192 0 LINE",
"192 675 LINE"
);
}
);
width = 252;
},
{
associatedMasterId = "6114C541-D024-4A3E-9713-6FAF49EAB318";
layerId = "358DDD16-213F-4983-B280-81B3E2E4386A";
name = "Bold fino";
paths = (
{
closed = 1;
nodes = (
"60 675 LINE",
"60 0 LINE",
"182 0 LINE",
"182 675 LINE"
);
}
);
width = 242;
},
{
anchors = (
{
name = ogonek;
position = "{132, 5}";
},
{
name = top;
position = "{111, 645}";
}
);
layerId = "CC11FE7D-5FF0-4B40-9597-DFC61EB94F41";
paths = (
{
closed = 1;
nodes = (
"90 675 LINE",
"90 0 LINE",
"132 0 LINE",
"132 675 LINE"
);
}
);
width = 222;
}
);
unicode = 0049;
},
{
glyphname = Icircumflex;
lastChange = "2018-02-04 13:36:43 +0000";
layers = (
{
background = {
paths = (
{
closed = 1;
nodes = (
"131 904 LINE",
"-35 781 LINE",
"17 716 LINE",
"136 796 LINE",
"120 796 LINE",
"239 714 LINE",
"295 781 LINE"
);
}
);
};
components = (
{
name = I;
}
);
layerId = "6114C541-D024-4A3E-9713-6FAF49EAB318";
paths = (
{
closed = 1;
nodes = (
"129 904 LINE",
"-22 781 LINE",
"30 716 LINE",
"134 796 LINE",
"118 796 LINE",
"222 714 LINE",
"278 781 LINE"
);
}
);
width = 252;
},
{
components = (
{
name = I;
}
);
layerId = "CC11FE7D-5FF0-4B40-9597-DFC61EB94F41";
paths = (
{
closed = 1;
nodes = (
"109 854 LINE",
"-5 747 LINE",
"16 721 LINE",
"110 803 LINE",
"102 803 LINE",
"198 720 LINE",
"220 749 LINE"
);
}
);
width = 209;
}
);
unicode = 00CE;
},
{
glyphname = Idieresis;
lastChange = "2018-02-04 13:36:43 +0000";
layers = (
{
components = (
{
name = I;
}
);
layerId = "6114C541-D024-4A3E-9713-6FAF49EAB318";
paths = (
{
closed = 1;
nodes = (
"65 731 OFFCURVE",
"100 755 OFFCURVE",
"100 806 CURVE SMOOTH",
"100 855 OFFCURVE",
"66 878 OFFCURVE",
"33 878 CURVE SMOOTH",
"-1 878 OFFCURVE",
"-35 855 OFFCURVE",
"-35 806 CURVE SMOOTH",
"-35 755 OFFCURVE",
"-2 731 OFFCURVE",
"32 731 CURVE SMOOTH"
);
},
{
closed = 1;
nodes = (
"252 731 OFFCURVE",
"287 755 OFFCURVE",
"287 806 CURVE SMOOTH",
"287 855 OFFCURVE",
"253 878 OFFCURVE",
"219 878 CURVE SMOOTH",
"186 878 OFFCURVE",
"152 855 OFFCURVE",
"152 806 CURVE SMOOTH",
"152 755 OFFCURVE",
"185 731 OFFCURVE",
"218 731 CURVE SMOOTH"
);
}
);
width = 252;
},
{
components = (
{
name = I;
}
);
layerId = "CC11FE7D-5FF0-4B40-9597-DFC61EB94F41";
paths = (
{
closed = 1;
nodes = (
"51 752 OFFCURVE",
"63 769 OFFCURVE",
"63 789 CURVE SMOOTH",
"63 809 OFFCURVE",
"51 826 OFFCURVE",
"31 826 CURVE SMOOTH",
"10 826 OFFCURVE",
"-2 809 OFFCURVE",
"-2 789 CURVE SMOOTH",
"-2 769 OFFCURVE",
"10 752 OFFCURVE",
"31 752 CURVE SMOOTH"
);
},
{
closed = 1;
nodes = (
"198 752 OFFCURVE",
"210 769 OFFCURVE",
"210 789 CURVE SMOOTH",
"210 809 OFFCURVE",
"198 826 OFFCURVE",
"177 826 CURVE SMOOTH",
"157 826 OFFCURVE",
"145 809 OFFCURVE",
"145 789 CURVE SMOOTH",
"145 769 OFFCURVE",
"157 752 OFFCURVE",
"177 752 CURVE SMOOTH"
);
}
);
width = 209;
}
);
unicode = 00CF;
},
{
glyphname = Idotaccent;
lastChange = "2018-02-04 13:36:43 +0000";
layers = (
{
components = (
{
name = I;
},
{
alignment = -1;
name = dotaccent;
transform = "{1, 0, 0, 1, 3, 165}";
}
);
layerId = "6114C541-D024-4A3E-9713-6FAF49EAB318";
width = 252;
},
{
background = {
paths = (
{
closed = 1;
nodes = (
"146 732 OFFCURVE",
"188 762 OFFCURVE",
"188 823 CURVE SMOOTH",
"188 882 OFFCURVE",
"147 911 OFFCURVE",
"106 911 CURVE SMOOTH",
"65 911 OFFCURVE",
"24 882 OFFCURVE",
"24 823 CURVE SMOOTH",
"24 761 OFFCURVE",
"64 732 OFFCURVE",
"105 732 CURVE SMOOTH"
);
}
);
};
components = (
{
name = I;
},
{
alignment = -1;
name = dotaccent;
transform = "{1, 0, 0, 1, -18, 110}";
}
);
layerId = "CC11FE7D-5FF0-4B40-9597-DFC61EB94F41";
width = 222;
}
);
unicode = 0130;
},
{
glyphname = Imacron;
lastChange = "2018-02-04 13:36:43 +0000";
layers = (
{
components = (
{
name = I;
}
);
layerId = "6114C541-D024-4A3E-9713-6FAF49EAB318";
paths = (
{
closed = 1;
nodes = (
"1 854 LINE",
"1 754 LINE",
"251 754 LINE",
"251 854 LINE"
);
}
);
width = 252;
},
{
components = (
{
name = I;
}
);
layerId = "CC11FE7D-5FF0-4B40-9597-DFC61EB94F41";
paths = (
{
closed = 1;
nodes = (
"1 807 LINE",
"1 772 LINE",
"208 772 LINE",
"208 807 LINE"
);
}
);
width = 209;
}
);
unicode = 012A;
},
{
glyphname = J;
lastChange = "2021-05-27 04:30:38 +0000";
layers = (
{
background = {
paths = (
{
closed = 1;
nodes = (
"-4 15 LINE",
"36 -6 OFFCURVE",
"76 -15 OFFCURVE",
"113 -15 CURVE SMOOTH",
"199 -15 OFFCURVE",
"264 41 OFFCURVE",
"264 151 CURVE SMOOTH",
"264 675 LINE",
"142 675 LINE",
"142 161 LINE SMOOTH",
"142 111 OFFCURVE",
"123 90 OFFCURVE",
"92 90 CURVE SMOOTH",
"74 90 OFFCURVE",
"48 97 OFFCURVE",
"23 109 CURVE"
);
},
{
closed = 1;
nodes = (
"69 -15 OFFCURVE",
"108 -15 CURVE SMOOTH",
"192 -15 OFFCURVE",
"264 43 OFFCURVE",
"264 151 CURVE SMOOTH",
"264 675 LINE",
"132 675 LINE",
"132 161 LINE SMOOTH",
"132 116 OFFCURVE",
"114 95 OFFCURVE",
"88 95 CURVE SMOOTH",
"69 95 OFFCURVE",
"47 101 OFFCURVE",
"20 114 CURVE",
"-7 13 LINE",
"31 -6 OFFCURVE"
);
}
);
};
layerId = "6114C541-D024-4A3E-9713-6FAF49EAB318";
paths = (
{
closed = 1;
nodes = (
"65 -15 OFFCURVE",
"102 -15 CURVE SMOOTH",
"195 -15 OFFCURVE",
"264 44 OFFCURVE",
"264 151 CURVE SMOOTH",
"264 675 LINE",
"132 675 LINE",
"132 168 LINE SMOOTH",
"132 118 OFFCURVE",
"111 96 OFFCURVE",
"77 96 CURVE SMOOTH",
"58 96 OFFCURVE",
"36 102 OFFCURVE",
"10 114 CURVE",
"-17 13 LINE",
"25 -6 OFFCURVE"
);
}
);
width = 309;
},
{
associatedMasterId = "6114C541-D024-4A3E-9713-6FAF49EAB318";
background = {
paths = (
{
closed = 1;
nodes = (
"-4 15 LINE",
"36 -6 OFFCURVE",
"76 -15 OFFCURVE",
"113 -15 CURVE SMOOTH",
"199 -15 OFFCURVE",
"264 41 OFFCURVE",
"264 151 CURVE SMOOTH",
"264 675 LINE",
"142 675 LINE",
"142 161 LINE SMOOTH",
"142 111 OFFCURVE",
"123 90 OFFCURVE",
"92 90 CURVE SMOOTH",
"74 90 OFFCURVE",
"48 97 OFFCURVE",
"23 109 CURVE"
);
}
);
};
layerId = "2E0EC391-4C59-4C44-BA0F-AF1D00629D8E";
name = "Bold fino";
paths = (
{
closed = 1;
nodes = (
"195 -15 OFFCURVE",
"264 42 OFFCURVE",
"264 151 CURVE SMOOTH",
"264 675 LINE",
"142 675 LINE",
"142 161 LINE SMOOTH",
"142 111 OFFCURVE",
"122 90 OFFCURVE",
"90 90 CURVE SMOOTH",
"71 90 OFFCURVE",
"49 97 OFFCURVE",
"23 109 CURVE",
"-4 13 LINE",
"34 -6 OFFCURVE",
"72 -15 OFFCURVE",
"108 -15 CURVE SMOOTH"
);
}
);
width = 314;
},
{
associatedMasterId = "CC11FE7D-5FF0-4B40-9597-DFC61EB94F41";
background = {
paths = (
{
closed = 1;
nodes = (
"2 17 LINE",
"32 -1 OFFCURVE",
"62 -8 OFFCURVE",
"92 -8 CURVE SMOOTH",
"155 -8 OFFCURVE",
"204 41 OFFCURVE",
"204 123 CURVE SMOOTH",
"204 675 LINE",
"165 675 LINE",
"165 135 LINE SMOOTH",
"165 68 OFFCURVE",
"136 25 OFFCURVE",
"90 25 CURVE SMOOTH",
"69 25 OFFCURVE",
"44 32 OFFCURVE",
"19 48 CURVE"
);
}
);
};
layerId = "C7DCC7B0-CF6C-4348-A397-228674C12524";
name = "Light Condensed Sep 10 15, 19:38";
paths = (
{
closed = 1;
nodes = (
"154 -8 OFFCURVE",
"204 38 OFFCURVE",
"204 123 CURVE SMOOTH",
"204 675 LINE",
"165 675 LINE",
"165 130 LINE SMOOTH",
"165 60 OFFCURVE",
"135 28 OFFCURVE",
"88 28 CURVE SMOOTH",
"68 28 OFFCURVE",
"44 36 OFFCURVE",
"20 51 CURVE",
"4 17 LINE",
"33 0 OFFCURVE",
"62 -8 OFFCURVE",
"90 -8 CURVE SMOOTH"
);
}
);
width = 289;
},
{
background = {
paths = (
{
closed = 1;
nodes = (
"149 -8 OFFCURVE",
"199 38 OFFCURVE",
"199 123 CURVE SMOOTH",
"199 675 LINE",
"160 675 LINE",
"160 130 LINE SMOOTH",
"160 60 OFFCURVE",
"130 28 OFFCURVE",
"83 28 CURVE SMOOTH",
"63 28 OFFCURVE",
"39 36 OFFCURVE",
"15 51 CURVE",
"-1 17 LINE",
"28 0 OFFCURVE",
"57 -8 OFFCURVE",
"85 -8 CURVE SMOOTH"
);
}
);
};
layerId = "CC11FE7D-5FF0-4B40-9597-DFC61EB94F41";
paths = (
{
closed = 1;
nodes = (
"67 -7 OFFCURVE",
"93 -7 CURVE SMOOTH",
"154 -7 OFFCURVE",
"199 38 OFFCURVE",
"199 123 CURVE SMOOTH",
"199 675 LINE",
"157 675 LINE",
"157 130 LINE SMOOTH",
"157 65 OFFCURVE",
"133 30 OFFCURVE",
"93 30 CURVE SMOOTH",
"74 30 OFFCURVE",
"51 37 OFFCURVE",
"25 53 CURVE",
"9 17 LINE",
"38 0 OFFCURVE"
);
}
);
width = 284;
}
);
unicode = 004A;
},
{
glyphname = K;
lastChange = "2021-05-27 04:30:38 +0000";
layers = (
{
background = {
paths = (
{
closed = 0;
nodes = (
"294 298 LINE",
"172 298 LINE",
"192 318 LINE",
"192 0 LINE",
"60 0 LINE",
"60 675 LINE",
"192 675 LINE",
"192 388 LINE",
"172 408 LINE",
"294 408 LINE"
);
},
{
closed = 0;
nodes = (
"270 405 LINE",
"407 675 LINE",
"528 675 LINE",
"338 314 LINE",
"355 377 LINE",
"488 116 LINE SMOOTH",
"500 93 OFFCURVE",
"516 90 OFFCURVE",
"542 90 CURVE",
"542 -10 LINE",
"446 -10 OFFCURVE",
"416 2 OFFCURVE",
"382 71 CURVE SMOOTH",
"269 300 LINE"
);
}
);
};
layerId = "6114C541-D024-4A3E-9713-6FAF49EAB318";
paths = (
{
closed = 1;
nodes = (
"553 90 LINE",
"533 88 OFFCURVE",
"511 90 OFFCURVE",
"496 122 CURVE SMOOTH",
"374 386 LINE",
"374 332 LINE",
"545 675 LINE",
"413 675 LINE",
"280 394 LINE",
"316 408 LINE",
"172 408 LINE",
"192 388 LINE",
"192 675 LINE",
"60 675 LINE",
"60 0 LINE",
"192 0 LINE",
"192 318 LINE",
"172 298 LINE",
"314 298 LINE",
"273 318 LINE",
"381 71 LINE SMOOTH",
"406 13 OFFCURVE",
"443 -15 OFFCURVE",
"500 -15 CURVE SMOOTH",
"517 -15 OFFCURVE",
"537 -12 OFFCURVE",
"558 -7 CURVE"
);
}
);
width = 558;
},
{
associatedMasterId = "CC11FE7D-5FF0-4B40-9597-DFC61EB94F41";
background = {
paths = (
{
closed = 1;
nodes = (
"141 298 LINE",
"161 318 LINE",
"161 0 LINE",
"29 0 LINE",
"29 675 LINE",
"161 675 LINE",
"161 388 LINE",
"141 408 LINE",
"260 408 LINE",
"230 394 LINE",
"373 675 LINE",
"499 675 LINE",
"318 332 LINE",
"318 386 LINE",
"457 116 LINE SMOOTH",
"469 93 OFFCURVE",
"483 90 OFFCURVE",
"511 90 CURVE",
"511 -10 LINE",
"415 -10 OFFCURVE",
"382 2 OFFCURVE",
"347 71 CURVE SMOOTH",
"222 318 LINE",
"258 298 LINE"
);
}
);
};
layerId = "1BEABA3C-39A1-44BF-90A2-1152F4CC209E";
name = "Light Condensed Sep 13 15, 18:20";
paths = (
{
closed = 1;
nodes = (
"506 26 LINE",
"488 24 OFFCURVE",
"479 33 OFFCURVE",
"466 55 CURVE SMOOTH",
"277 373 LINE",
"273 340 LINE",
"487 675 LINE",
"442 675 LINE",
"247 368 LINE",
"258 374 LINE",
"114 374 LINE",
"127 364 LINE",
"127 675 LINE",
"85 675 LINE",
"85 0 LINE",
"127 0 LINE",
"127 349 LINE",
"114 339 LINE",
"259 339 LINE",
"246 346 LINE",
"433 35 LINE SMOOTH",
"454 1 OFFCURVE",
"472 -12 OFFCURVE",
"509 -5 CURVE"
);
}
);
width = 514;
},
{
background = {
paths = (
{
closed = 1;
nodes = (
"141 298 LINE",
"161 318 LINE",
"161 0 LINE",
"29 0 LINE",
"29 675 LINE",
"161 675 LINE",
"161 388 LINE",
"141 408 LINE",
"260 408 LINE",
"230 394 LINE",
"373 675 LINE",
"499 675 LINE",
"318 332 LINE",
"318 386 LINE",
"457 116 LINE SMOOTH",
"469 93 OFFCURVE",
"483 90 OFFCURVE",
"511 90 CURVE",
"511 -10 LINE",
"415 -10 OFFCURVE",
"382 2 OFFCURVE",
"347 71 CURVE SMOOTH",
"222 318 LINE",
"258 298 LINE"
);
}
);
};
layerId = "CC11FE7D-5FF0-4B40-9597-DFC61EB94F41";
paths = (
{
closed = 1;
nodes = (
"506 26 LINE",
"488 24 OFFCURVE",
"479 33 OFFCURVE",
"466 55 CURVE SMOOTH",
"273 373 LINE",
"269 340 LINE",
"487 675 LINE",
"442 675 LINE",
"243 368 LINE",
"254 374 LINE",
"114 374 LINE",
"127 364 LINE",
"127 675 LINE",
"85 675 LINE",
"85 0 LINE",
"127 0 LINE",
"127 349 LINE",
"114 339 LINE",
"255 339 LINE",
"242 346 LINE",
"433 35 LINE SMOOTH",
"450 7 OFFCURVE",
"466 -7 OFFCURVE",
"491 -7 CURVE SMOOTH",
"497 -7 OFFCURVE",
"504 -6 OFFCURVE",
"509 -5 CURVE"
);
}
);
width = 514;
}
);
unicode = 004B;
},
{
glyphname = L;
lastChange = "2018-02-04 13:36:43 +0000";
layers = (
{
anchors = (
{
name = bottom;
position = "{209, 0}";
},
{
name = top;
position = "{120, 660}";
},
{
name = topright;
position = "{398, 660}";
}
);
background = {
paths = (
{
closed = 1;
nodes = (
"187 0 LINE",
"187 675 LINE",
"55 675 LINE",
"55 0 LINE"
);
},
{
closed = 1;
nodes = (
"408 0 LINE",
"408 110 LINE",
"114 110 LINE",
"114 0 LINE"
);
}
);
};
layerId = "6114C541-D024-4A3E-9713-6FAF49EAB318";
paths = (
{
closed = 1;
nodes = (
"187 90 LINE",
"187 675 LINE",
"55 675 LINE",
"55 0 LINE",
"403 0 LINE",
"403 110 LINE",
"167 110 LINE"
);
}
);
width = 413;
},
{
associatedMasterId = "6114C541-D024-4A3E-9713-6FAF49EAB318";
background = {
paths = (
{
closed = 1;
nodes = (
"88 675 LINE",
"88 0 LINE",
"127 0 LINE",
"127 675 LINE"
);
},
{
closed = 1;
nodes = (
"108 0 LINE",
"464 0 LINE",
"464 35 LINE",
"108 35 LINE"
);
}
);
};
layerId = "0983A271-A211-4C83-A1E6-2E54FAC280DC";
name = "Bold fino";
paths = (
{
closed = 1;
nodes = (
"177 0 LINE",
"177 675 LINE",
"55 675 LINE",
"55 0 LINE"
);
},
{
closed = 1;
nodes = (
"418 0 LINE",
"418 105 LINE",
"114 105 LINE",
"114 0 LINE"
);
}
);
width = 423;
},
{
associatedMasterId = "CC11FE7D-5FF0-4B40-9597-DFC61EB94F41";
background = {
paths = (
{
closed = 1;
nodes = (
"124 0 LINE",
"124 675 LINE",
"85 675 LINE",
"85 0 LINE"
);
},
{
closed = 1;
nodes = (
"418 0 LINE",
"418 35 LINE",
"105 35 LINE",
"105 0 LINE"
);
}
);
};
layerId = "6F97B0CA-1DA8-41DC-BA6A-B9EB968C73DF";
name = "Light Condensed Sep 10 15, 19:38";
paths = (
{
closed = 1;
nodes = (
"124 25 LINE",
"124 675 LINE",
"85 675 LINE",
"85 0 LINE",
"418 0 LINE",
"418 35 LINE",
"114 35 LINE"
);
}
);
width = 423;
},
{
anchors = (
{
name = bottom;
position = "{207, 0}";
},
{
name = top;
position = "{132, 645}";
},
{
name = topright;
position = "{383, 645}";
}
);
background = {
paths = (
{
closed = 1;
nodes = (
"124 0 LINE",
"124 675 LINE",
"85 675 LINE",
"85 0 LINE"
);
},
{
closed = 1;
nodes = (
"418 0 LINE",
"418 35 LINE",
"105 35 LINE",
"105 0 LINE"
);
}
);
};
layerId = "CC11FE7D-5FF0-4B40-9597-DFC61EB94F41";
paths = (
{
closed = 1;
nodes = (
"127 25 LINE",
"127 675 LINE",
"85 675 LINE",
"85 0 LINE",
"388 0 LINE",
"388 37 LINE",
"114 37 LINE"
);
}
);
width = 398;
}
);
unicode = 004C;
},
{
glyphname = Lslash;
lastChange = "2018-02-04 13:36:43 +0000";
layers = (
{
background = {
paths = (
{
closed = 1;
nodes = (
"294 451 LINE",
"-55 308 LINE",
"-19 220 LINE",
"330 363 LINE"
);
}
);
};
components = (
{
name = L;
}
);
layerId = "6114C541-D024-4A3E-9713-6FAF49EAB318";
paths = (
{
closed = 1;
nodes = (
"274 442 LINE",
"-29 318 LINE",
"7 230 LINE",
"310 354 LINE"
);
}
);
width = 418;
},
{
background = {
paths = (
{
closed = 1;
nodes = (
"274 415 LINE",
"-38 285 LINE",
"-27 255 LINE",
"285 385 LINE"
);
}
);
};
components = (
{
name = L;
}
);
layerId = "CC11FE7D-5FF0-4B40-9597-DFC61EB94F41";
paths = (
{
closed = 1;
nodes = (
"261 410 LINE",
"-18 293 LINE",
"-7 263 LINE",
"273 380 LINE"
);
}
);
width = 413;
}
);
unicode = 0141;
},
{
glyphname = M;
lastChange = "2021-05-27 04:30:38 +0000";
layers = (
{
background = {
paths = (
{
closed = 1;
nodes = (
"146 0 LINE",
"181 387 LINE SMOOTH",
"186 441 OFFCURVE",
"190 504 OFFCURVE",
"195 557 CURVE",
"173 557 LINE",
"186 505 OFFCURVE",
"197 443 OFFCURVE",
"211 390 CURVE SMOOTH",
"306 21 LINE",
"429 25 LINE",
"529 385 LINE SMOOTH",
"544 439 OFFCURVE",
"556 504 OFFCURVE",
"571 557 CURVE",
"551 557 LINE",
"555 505 OFFCURVE",
"557 441 OFFCURVE",
"562 388 CURVE SMOOTH",
"595 0 LINE",
"725 0 LINE",
"647 675 LINE",
"499 675 LINE",
"394 268 LINE SMOOTH",
"381 219 OFFCURVE",
"369 146 OFFCURVE",
"355 98 CURVE",
"391 98 LINE",
"378 145 OFFCURVE",
"372 215 OFFCURVE",
"360 263 CURVE SMOOTH",
"256 675 LINE",
"103 675 LINE",
"25 0 LINE"
);
}
);
};
layerId = "6114C541-D024-4A3E-9713-6FAF49EAB318";
paths = (
{
closed = 1;
nodes = (
"144 0 LINE",
"179 387 LINE SMOOTH",
"184 441 OFFCURVE",
"190 504 OFFCURVE",
"195 557 CURVE",
"173 557 LINE",
"186 505 OFFCURVE",
"197 443 OFFCURVE",
"211 390 CURVE SMOOTH",
"306 21 LINE",
"429 25 LINE",
"529 385 LINE SMOOTH",
"544 439 OFFCURVE",
"556 504 OFFCURVE",
"571 557 CURVE",
"551 557 LINE",
"555 505 OFFCURVE",
"557 441 OFFCURVE",
"562 388 CURVE SMOOTH",
"595 0 LINE",
"725 0 LINE",
"647 675 LINE",
"499 675 LINE",
"394 268 LINE SMOOTH",
"381 219 OFFCURVE",
"369 146 OFFCURVE",
"355 98 CURVE",
"391 98 LINE",
"378 145 OFFCURVE",
"372 215 OFFCURVE",
"360 263 CURVE SMOOTH",
"256 675 LINE",
"103 675 LINE",
"23 0 LINE"
);
}
);
width = 750;
},
{
associatedMasterId = "CC11FE7D-5FF0-4B40-9597-DFC61EB94F41";
background = {
paths = (
{
closed = 1;
nodes = (
"400 25 LINE",
"500 385 LINE SMOOTH",
"515 439 OFFCURVE",
"527 504 OFFCURVE",
"542 557 CURVE",
"522 557 LINE",
"526 505 OFFCURVE",
"528 441 OFFCURVE",
"533 388 CURVE SMOOTH",
"566 0 LINE",
"696 0 LINE",
"618 675 LINE",
"470 675 LINE",
"365 268 LINE SMOOTH",
"352 219 OFFCURVE",
"340 146 OFFCURVE",
"326 98 CURVE",
"362 98 LINE",
"349 145 OFFCURVE",
"343 215 OFFCURVE",
"331 263 CURVE SMOOTH",
"227 675 LINE",
"74 675 LINE",
"-4 0 LINE",
"117 0 LINE",
"152 387 LINE SMOOTH",
"157 441 OFFCURVE",
"161 504 OFFCURVE",
"166 557 CURVE",
"144 557 LINE",
"157 505 OFFCURVE",
"168 443 OFFCURVE",
"182 390 CURVE SMOOTH",
"277 21 LINE"
);
},
{
closed = 0;
nodes = (
"631 0 LINE",
"557 675 LINE",
"341 34 LINE",
"140 675 LINE",
"54 0 LINE"
);
}
);
};
guideLines = (
{
position = "{359, 211}";
},
{
position = "{375, 421}";
}
);
layerId = "E06CD5EB-6029-4EB5-9350-C6BA34270B11";
name = "Light Condensed Sep 13 15, 16:26";
paths = (
{
closed = 1;
nodes = (
"75 0 LINE",
"128 422 LINE SMOOTH",
"135 481 OFFCURVE",
"143 548 OFFCURVE",
"150 605 CURVE",
"143 605 LINE",
"161 548 OFFCURVE",
"178 482 OFFCURVE",
"197 423 CURVE SMOOTH",
"323 24 LINE",
"359 26 LINE",
"494 422 LINE SMOOTH",
"514 480 OFFCURVE",
"532 546 OFFCURVE",
"551 602 CURVE",
"543 602 LINE",
"549 546 OFFCURVE",
"555 481 OFFCURVE",
"561 423 CURVE SMOOTH",
"607 0 LINE",
"652 0 LINE",
"580 675 LINE",
"537 675 LINE",
"381 212 LINE SMOOTH",
"367 169 OFFCURVE",
"355 121 OFFCURVE",
"341 80 CURVE",
"348 80 LINE",
"335 120 OFFCURVE",
"324 169 OFFCURVE",
"311 211 CURVE SMOOTH",
"165 675 LINE",
"121 675 LINE",
"35 0 LINE"
);
}
);
width = 687;
},
{
associatedMasterId = "6114C541-D024-4A3E-9713-6FAF49EAB318";
background = {
paths = (
{
closed = 1;
nodes = (
"493 675 LINE",
"393 312 LINE SMOOTH",
"377 255 OFFCURVE",
"368 208 OFFCURVE",
"357 154 CURVE",
"383 154 LINE",
"370 209 OFFCURVE",
"363 253 OFFCURVE",
"348 309 CURVE SMOOTH",
"251 675 LINE",
"128 675 LINE",
"-45 0 LINE",
"84 0 LINE",
"165 365 LINE SMOOTH",
"178 422 OFFCURVE",
"186 488 OFFCURVE",
"202 545 CURVE",
"170 545 LINE",
"181 489 OFFCURVE",
"192 424 OFFCURVE",
"207 368 CURVE SMOOTH",
"297 25 LINE",
"435 25 LINE",
"525 365 LINE SMOOTH",
"540 422 OFFCURVE",
"549 488 OFFCURVE",
"565 545 CURVE",
"535 545 LINE",
"546 489 OFFCURVE",
"552 424 OFFCURVE",
"565 368 CURVE SMOOTH",
"648 0 LINE",
"785 0 LINE",
"620 675 LINE"
);
}
);
};
layerId = "B4CB245B-C915-4FFF-B876-31384549FE9B";
name = "Bold Condensed Sep 13 15, 16:26";
paths = (
{
closed = 1;
nodes = (
"146 0 LINE",
"181 387 LINE SMOOTH",
"186 441 OFFCURVE",
"190 504 OFFCURVE",
"195 557 CURVE",
"173 557 LINE",
"186 505 OFFCURVE",
"197 443 OFFCURVE",
"211 390 CURVE SMOOTH",
"306 21 LINE",
"429 25 LINE",
"529 385 LINE SMOOTH",
"544 439 OFFCURVE",
"556 504 OFFCURVE",
"571 557 CURVE",
"551 557 LINE",
"555 505 OFFCURVE",
"557 441 OFFCURVE",
"562 388 CURVE SMOOTH",
"595 0 LINE",
"725 0 LINE",
"647 675 LINE",
"499 675 LINE",
"394 268 LINE SMOOTH",
"381 219 OFFCURVE",
"369 146 OFFCURVE",
"355 98 CURVE",
"391 98 LINE",
"378 145 OFFCURVE",
"372 215 OFFCURVE",
"360 263 CURVE SMOOTH",
"256 675 LINE",
"103 675 LINE",
"25 0 LINE"
);
}
);
width = 750;
},
{
background = {
paths = (
{
closed = 1;
nodes = (
"75 0 LINE",
"128 422 LINE SMOOTH",
"135 481 OFFCURVE",
"143 548 OFFCURVE",
"150 605 CURVE",
"143 605 LINE",
"161 548 OFFCURVE",
"178 482 OFFCURVE",
"197 423 CURVE SMOOTH",
"323 24 LINE",
"359 26 LINE",
"494 422 LINE SMOOTH",
"514 480 OFFCURVE",
"532 546 OFFCURVE",
"551 602 CURVE",
"543 602 LINE",
"549 546 OFFCURVE",
"555 481 OFFCURVE",
"561 423 CURVE SMOOTH",
"607 0 LINE",
"652 0 LINE",
"580 675 LINE",
"537 675 LINE",
"381 212 LINE SMOOTH",
"367 169 OFFCURVE",
"355 121 OFFCURVE",
"341 80 CURVE",
"348 80 LINE",
"335 120 OFFCURVE",
"324 169 OFFCURVE",
"311 211 CURVE SMOOTH",
"165 675 LINE",
"121 675 LINE",
"35 0 LINE"
);
}
);
};
guideLines = (
{
position = "{359, 211}";
},
{
position = "{375, 421}";
}
);
layerId = "CC11FE7D-5FF0-4B40-9597-DFC61EB94F41";
paths = (
{
closed = 1;
nodes = (
"64 0 LINE",
"122 422 LINE SMOOTH",
"130 481 OFFCURVE",
"140 548 OFFCURVE",
"147 605 CURVE",
"143 605 LINE",
"161 548 OFFCURVE",
"178 482 OFFCURVE",
"197 423 CURVE SMOOTH",
"323 24 LINE",
"359 26 LINE",
"494 422 LINE SMOOTH",
"514 480 OFFCURVE",
"532 546 OFFCURVE",
"551 602 CURVE",
"546 602 LINE",
"552 546 OFFCURVE",
"560 481 OFFCURVE",
"567 423 CURVE SMOOTH",
"618 0 LINE",
"663 0 LINE",
"580 675 LINE",
"537 675 LINE",
"381 212 LINE SMOOTH",
"367 169 OFFCURVE",
"355 121 OFFCURVE",
"341 80 CURVE",
"348 80 LINE",
"335 120 OFFCURVE",
"324 169 OFFCURVE",
"311 211 CURVE SMOOTH",
"165 675 LINE",
"121 675 LINE",
"24 0 LINE"
);
}
);
width = 687;
}
);
unicode = 004D;
},
{
glyphname = N;
lastChange = "2018-02-04 13:36:43 +0000";
layers = (
{
anchors = (
{
name = bottom;
position = "{306, 0}";
},
{
name = top;
position = "{301, 660}";
}
);
background = {
paths = (
{
closed = 1;
nodes = (
"552 0 LINE",
"552 675 LINE",
"431 675 LINE",
"431 240 LINE",
"440 240 LINE",
"176 684 LINE",
"60 675 LINE",
"60 0 LINE",
"181 0 LINE",
"181 440 LINE",
"169 440 LINE",
"440 -10 LINE"
);
}
);
};
layerId = "6114C541-D024-4A3E-9713-6FAF49EAB318";
paths = (
{
closed = 1;
nodes = (
"552 0 LINE",
"552 675 LINE",
"431 675 LINE",
"431 230 LINE",
"440 230 LINE",
"174 684 LINE",
"60 675 LINE",
"60 0 LINE",
"181 0 LINE",
"181 450 LINE",
"169 450 LINE",
"442 -10 LINE"
);
}
);
width = 612;
},
{
associatedMasterId = "CC11FE7D-5FF0-4B40-9597-DFC61EB94F41";
background = {
paths = (
{
closed = 0;
nodes = (
"106 0 LINE",
"106 660 LINE",
"505 40 LINE",
"505 700 LINE"
);
}
);
};
layerId = "C9D196EC-DC25-4435-8FC8-77F56CAC2AEC";
name = "Light Condensed Sep 10 15, 19:39";
paths = (
{
closed = 1;
nodes = (
"497 82 LINE",
"125 682 LINE",
"85 675 LINE",
"85 0 LINE",
"124 0 LINE",
"124 603 LINE",
"499 -7 LINE",
"536 0 LINE",
"536 675 LINE",
"497 675 LINE"
);
}
);
width = 621;
},
{
associatedMasterId = "6114C541-D024-4A3E-9713-6FAF49EAB318";
background = {
paths = (
{
closed = 1;
nodes = (
"498 72 LINE",
"136 707 LINE",
"96 700 LINE",
"96 0 LINE",
"135 0 LINE",
"135 638 LINE",
"500 -7 LINE",
"537 0 LINE",
"537 700 LINE",
"498 700 LINE"
);
}
);
};
layerId = "CCA1EF63-5055-4239-BE17-C97C95778841";
name = "Bold fino";
paths = (
{
closed = 1;
nodes = (
"444 250 LINE",
"178 685 LINE",
"60 675 LINE",
"60 0 LINE",
"178 0 LINE",
"178 425 LINE",
"444 -10 LINE",
"562 0 LINE",
"562 675 LINE",
"444 675 LINE"
);
}
);
width = 622;
},
{
anchors = (
{
name = bottom;
position = "{306, 0}";
},
{
name = top;
position = "{301, 645}";
}
);
background = {
paths = (
{
closed = 1;
nodes = (
"485 78 LINE",
"485 88 LINE",
"128 682 LINE",
"85 675 LINE",
"85 0 LINE",
"126 0 LINE",
"126 597 LINE",
"485 -7 LINE",
"526 0 LINE",
"526 675 LINE",
"485 675 LINE"
);
}
);
};
layerId = "CC11FE7D-5FF0-4B40-9597-DFC61EB94F41";
paths = (
{
closed = 1;
nodes = (
"526 0 LINE",
"526 675 LINE",
"485 675 LINE",
"485 78 LINE",
"489 78 LINE",
"126 682 LINE",
"85 675 LINE",
"85 0 LINE",
"126 0 LINE",
"126 610 LINE",
"120 610 LINE",
"487 -7 LINE"
);
}
);
width = 611;
}
);
unicode = 004E;
},
{
glyphname = O;
lastChange = "2021-05-27 04:30:38 +0000";
layers = (
{
anchors = (
{
name = top;
position = "{313, 655}";
}
);
background = {
paths = (
{
closed = 1;
nodes = (
"465 204 OFFCURVE",
"420 95 OFFCURVE",
"311 95 CURVE SMOOTH",
"201 95 OFFCURVE",
"157 202 OFFCURVE",
"157 336 CURVE SMOOTH",
"157 468 OFFCURVE",
"203 580 OFFCURVE",
"313 580 CURVE SMOOTH",
"421 580 OFFCURVE",
"465 472 OFFCURVE",
"465 335 CURVE SMOOTH"
);
},
{
closed = 1;
nodes = (
"595 540 OFFCURVE",
"503 690 OFFCURVE",
"313 690 CURVE SMOOTH",
"125 690 OFFCURVE",
"27 534 OFFCURVE",
"27 335 CURVE SMOOTH",
"27 133 OFFCURVE",
"120 -15 OFFCURVE",
"310 -15 CURVE SMOOTH",
"499 -15 OFFCURVE",
"595 137 OFFCURVE",
"595 336 CURVE SMOOTH"
);
}
);
};
layerId = "6114C541-D024-4A3E-9713-6FAF49EAB318";
paths = (
{
closed = 1;
nodes = (
"500 -15 OFFCURVE",
"590 137 OFFCURVE",
"590 336 CURVE SMOOTH",
"590 540 OFFCURVE",
"503 690 OFFCURVE",
"313 690 CURVE SMOOTH",
"125 690 OFFCURVE",
"32 534 OFFCURVE",
"32 335 CURVE SMOOTH",
"32 133 OFFCURVE",
"121 -15 OFFCURVE",
"311 -15 CURVE SMOOTH"
);
},
{
closed = 1;
nodes = (
"211 100 OFFCURVE",
"172 205 OFFCURVE",
"172 336 CURVE SMOOTH",
"172 465 OFFCURVE",
"213 575 OFFCURVE",
"313 575 CURVE SMOOTH",
"411 575 OFFCURVE",
"450 469 OFFCURVE",
"450 335 CURVE SMOOTH",
"450 207 OFFCURVE",
"410 100 OFFCURVE",
"311 100 CURVE SMOOTH"
);
}
);
width = 622;
},
{
associatedMasterId = "CC11FE7D-5FF0-4B40-9597-DFC61EB94F41";
background = {
paths = (
{
closed = 1;
nodes = (
"534 139 OFFCURVE",
"438 -7 OFFCURVE",
"299 -7 CURVE SMOOTH",
"153 -7 OFFCURVE",
"60 139 OFFCURVE",
"60 318 CURVE SMOOTH",
"60 498 OFFCURVE",
"159 644 OFFCURVE",
"299 644 CURVE SMOOTH",
"440 644 OFFCURVE",
"534 498 OFFCURVE",
"534 318 CURVE SMOOTH"
);
}
);
};
layerId = "00B5C569-995E-46C5-A46D-1DB3384A8AC0";
name = "Light Condensed Sep 10 15, 19:41";
paths = (
{
closed = 1;
nodes = (
"510 163 OFFCURVE",
"438 30 OFFCURVE",
"297 30 CURVE SMOOTH",
"153 30 OFFCURVE",
"84 161 OFFCURVE",
"84 336 CURVE SMOOTH",
"84 510 OFFCURVE",
"158 645 OFFCURVE",
"299 645 CURVE SMOOTH",
"441 645 OFFCURVE",
"510 512 OFFCURVE",
"510 336 CURVE SMOOTH"
);
},
{
closed = 1;
nodes = (
"554 531 OFFCURVE",
"473 682 OFFCURVE",
"299 682 CURVE SMOOTH",
"134 682 OFFCURVE",
"40 529 OFFCURVE",
"40 336 CURVE SMOOTH",
"40 142 OFFCURVE",
"118 -7 OFFCURVE",
"297 -7 CURVE SMOOTH",
"462 -7 OFFCURVE",
"554 144 OFFCURVE",
"554 336 CURVE SMOOTH"
);
}
);
width = 594;
},
{
associatedMasterId = "6114C541-D024-4A3E-9713-6FAF49EAB318";
layerId = "C1DE8E7D-0837-4155-B8BF-27BD04EF9695";
name = "Bold fino";
paths = (
{
closed = 1;
nodes = (
"466 204 OFFCURVE",
"421 95 OFFCURVE",
"312 95 CURVE SMOOTH",
"202 95 OFFCURVE",
"158 202 OFFCURVE",
"158 336 CURVE SMOOTH",
"158 468 OFFCURVE",
"204 580 OFFCURVE",
"314 580 CURVE SMOOTH",
"422 580 OFFCURVE",
"466 472 OFFCURVE",
"466 335 CURVE SMOOTH"
);
},
{
closed = 1;
nodes = (
"596 540 OFFCURVE",
"504 690 OFFCURVE",
"314 690 CURVE SMOOTH",
"126 690 OFFCURVE",
"28 534 OFFCURVE",
"28 335 CURVE SMOOTH",
"28 133 OFFCURVE",
"121 -15 OFFCURVE",
"311 -15 CURVE SMOOTH",
"500 -15 OFFCURVE",
"596 137 OFFCURVE",
"596 336 CURVE SMOOTH"
);
}
);
width = 624;
},
{
anchors = (
{
name = top;
position = "{295, 635}";
}
);
background = {
paths = (
{
closed = 1;
nodes = (
"452 -7 OFFCURVE",
"544 144 OFFCURVE",
"544 336 CURVE SMOOTH",
"544 531 OFFCURVE",
"463 682 OFFCURVE",
"294 682 CURVE SMOOTH",
"134 682 OFFCURVE",
"40 529 OFFCURVE",
"40 336 CURVE SMOOTH",
"40 142 OFFCURVE",
"118 -7 OFFCURVE",
"292 -7 CURVE SMOOTH"
);
},
{
closed = 1;
nodes = (
"155 32 OFFCURVE",
"86 161 OFFCURVE",
"86 336 CURVE SMOOTH",
"86 509 OFFCURVE",
"160 643 OFFCURVE",
"294 643 CURVE SMOOTH",
"429 643 OFFCURVE",
"498 511 OFFCURVE",
"498 336 CURVE SMOOTH",
"498 163 OFFCURVE",
"426 32 OFFCURVE",
"292 32 CURVE SMOOTH"
);
}
);
};
layerId = "CC11FE7D-5FF0-4B40-9597-DFC61EB94F41";
paths = (
{
closed = 1;
nodes = (
"452 -7 OFFCURVE",
"544 144 OFFCURVE",
"544 336 CURVE SMOOTH",
"544 531 OFFCURVE",
"464 682 OFFCURVE",
"295 682 CURVE SMOOTH",
"135 682 OFFCURVE",
"40 529 OFFCURVE",
"40 336 CURVE SMOOTH",
"40 142 OFFCURVE",
"118 -7 OFFCURVE",
"292 -7 CURVE SMOOTH"
);
},
{
closed = 1;
nodes = (
"155 32 OFFCURVE",
"86 161 OFFCURVE",
"86 336 CURVE SMOOTH",
"86 509 OFFCURVE",
"160 643 OFFCURVE",
"294 643 CURVE SMOOTH",
"429 643 OFFCURVE",
"498 511 OFFCURVE",
"498 336 CURVE SMOOTH",
"498 163 OFFCURVE",
"426 32 OFFCURVE",
"292 32 CURVE SMOOTH"
);
}
);
width = 584;
}
);
unicode = 004F;
},
{
glyphname = Oslash;
lastChange = "2018-02-04 13:36:43 +0000";
layers = (
{
background = {
paths = (
{
closed = 1;
nodes = (
"413 756 LINE",
"121 -53 LINE",
"204 -78 LINE",
"495 731 LINE"
);
}
);
};
components = (
{
name = O;
}
);
guideLines = (
{
position = "{32, 350}";
}
);
layerId = "6114C541-D024-4A3E-9713-6FAF49EAB318";
paths = (
{
closed = 1;
nodes = (
"417 766 LINE",
"117 -63 LINE",
"200 -88 LINE",
"499 741 LINE"
);
}
);
width = 622;
},
{
background = {
paths = (
{
closed = 1;
nodes = (
"418 738 LINE",
"137 -48 LINE",
"171 -59 LINE",
"451 728 LINE"
);
}
);
};
components = (
{
name = O;
}
);
guideLines = (
{
position = "{11, 330}";
}
);
layerId = "CC11FE7D-5FF0-4B40-9597-DFC61EB94F41";
paths = (
{
closed = 1;
nodes = (
"420 743 LINE",
"133 -58 LINE",
"167 -69 LINE",
"453 733 LINE"
);
}
);
width = 584;
}
);
unicode = 00D8;
},
{
glyphname = OE;
lastChange = "2021-05-27 04:30:38 +0000";
layers = (
{
anchors = (
{
name = top;
position = "{400, 655}";
}
);
background = {
components = (
{
name = E;
transform = "{1, 0, 0, 1, 339, 0}";
}
);
paths = (
{
closed = 1;
nodes = (
"382 -10 OFFCURVE",
"429 -2 OFFCURVE",
"471 0 CURVE",
"417 117 LINE",
"393 109 OFFCURVE",
"353 105 OFFCURVE",
"316 105 CURVE SMOOTH",
"211 105 OFFCURVE",
"172 205 OFFCURVE",
"172 336 CURVE SMOOTH",
"172 465 OFFCURVE",
"213 570 OFFCURVE",
"316 570 CURVE SMOOTH",
"355 570 OFFCURVE",
"409 562 OFFCURVE",
"432 552 CURVE",
"467 675 LINE",
"432 676 OFFCURVE",
"379 684 OFFCURVE",
"313 684 CURVE SMOOTH",
"125 684 OFFCURVE",
"32 534 OFFCURVE",
"32 335 CURVE SMOOTH",
"32 133 OFFCURVE",
"120 -10 OFFCURVE",
"315 -10 CURVE SMOOTH"
);
}
);
};
components = (
{
name = E;
transform = "{1, 0, 0, 1, 339, 0}";
}
);
layerId = "6114C541-D024-4A3E-9713-6FAF49EAB318";
paths = (
{
closed = 1;
nodes = (
"150 -10 OFFCURVE",
"332 -10 CURVE SMOOTH",
"383 -10 OFFCURVE",
"439 0 OFFCURVE",
"485 0 CURVE",
"417 117 LINE",
"385 108 OFFCURVE",
"356 105 OFFCURVE",
"331 105 CURVE SMOOTH",
"220 105 OFFCURVE",
"172 186 OFFCURVE",
"172 336 CURVE SMOOTH",
"172 488 OFFCURVE",
"220 570 OFFCURVE",
"331 570 CURVE SMOOTH",
"362 570 OFFCURVE",
"394 564 OFFCURVE",
"432 550 CURVE",
"467 675 LINE",
"435 675 OFFCURVE",
"381 685 OFFCURVE",
"336 685 CURVE SMOOTH",
"144 685 OFFCURVE",
"32 572 OFFCURVE",
"32 335 CURVE SMOOTH",
"32 89 OFFCURVE"
);
}
);
width = 805;
},
{
anchors = (
{
name = top;
position = "{395, 635}";
}
);
background = {
components = (
{
name = E;
transform = "{1, 0, 0, 1, 313, 0}";
}
);
paths = (
{
closed = 1;
nodes = (
"334 -5 OFFCURVE",
"391 -2 OFFCURVE",
"423 0 CURVE",
"421 41 LINE",
"390 37 OFFCURVE",
"322 34 OFFCURVE",
"292 34 CURVE SMOOTH",
"155 34 OFFCURVE",
"86 161 OFFCURVE",
"86 336 CURVE SMOOTH",
"86 509 OFFCURVE",
"158 640 OFFCURVE",
"294 640 CURVE SMOOTH",
"322 640 OFFCURVE",
"384 639 OFFCURVE",
"421 633 CURVE",
"433 674 LINE",
"388 676 OFFCURVE",
"326 679 OFFCURVE",
"294 679 CURVE SMOOTH",
"132 679 OFFCURVE",
"40 529 OFFCURVE",
"40 336 CURVE SMOOTH",
"40 142 OFFCURVE",
"118 -5 OFFCURVE",
"292 -5 CURVE SMOOTH"
);
}
);
};
components = (
{
name = E;
transform = "{1, 0, 0, 1, 313, 0}";
}
);
layerId = "CC11FE7D-5FF0-4B40-9597-DFC61EB94F41";
paths = (
{
closed = 1;
nodes = (
"123 -6 OFFCURVE",
"316 -6 CURVE SMOOTH",
"344 -6 OFFCURVE",
"389 -1 OFFCURVE",
"423 0 CURVE",
"421 43 LINE",
"385 36 OFFCURVE",
"349 33 OFFCURVE",
"319 33 CURVE SMOOTH",
"161 33 OFFCURVE",
"86 133 OFFCURVE",
"86 336 CURVE SMOOTH",
"86 515 OFFCURVE",
"157 640 OFFCURVE",
"316 640 CURVE SMOOTH",
"359 640 OFFCURVE",
"396 635 OFFCURVE",
"421 631 CURVE",
"433 674 LINE",
"398 674 OFFCURVE",
"356 679 OFFCURVE",
"314 679 CURVE SMOOTH",
"126 679 OFFCURVE",
"40 529 OFFCURVE",
"40 336 CURVE SMOOTH",
"40 118 OFFCURVE"
);
}
);
width = 776;
}
);
leftMetricsKey = O;
rightMetricsKey = E;
unicode = 0152;
},
{
glyphname = P;
lastChange = "2021-05-27 04:30:38 +0000";
layers = (
{
background = {
paths = (
{
closed = 1;
nodes = (
"65 675 LINE",
"122 677 OFFCURVE",
"174 679 OFFCURVE",
"258 679 CURVE SMOOTH",
"385 679 OFFCURVE",
"499 611 OFFCURVE",
"499 471 CURVE SMOOTH",
"499 353 OFFCURVE",
"425 246 OFFCURVE",
"259 246 CURVE SMOOTH",
"131 246 LINE",
"131 356 LINE",
"269 356 LINE SMOOTH",
"336 356 OFFCURVE",
"363 398 OFFCURVE",
"363 462 CURVE SMOOTH",
"363 531 OFFCURVE",
"317 569 OFFCURVE",
"251 569 CURVE SMOOTH",
"230 569 OFFCURVE",
"217 568 OFFCURVE",
"197 566 CURVE",
"197 0 LINE",
"65 0 LINE"
);
}
);
};
layerId = "6114C541-D024-4A3E-9713-6FAF49EAB318";
paths = (
{
closed = 1;
nodes = (
"197 0 LINE",
"197 586 LINE",
"177 566 LINE",
"197 568 OFFCURVE",
"239 569 OFFCURVE",
"260 569 CURVE SMOOTH",
"336 569 OFFCURVE",
"364 522 OFFCURVE",
"364 457 CURVE SMOOTH",
"364 396 OFFCURVE",
"331 356 OFFCURVE",
"269 356 CURVE SMOOTH",
"131 356 LINE",
"131 246 LINE",
"259 246 LINE SMOOTH",
"425 246 OFFCURVE",
"499 353 OFFCURVE",
"499 471 CURVE SMOOTH",
"499 611 OFFCURVE",
"385 679 OFFCURVE",
"258 679 CURVE SMOOTH",
"174 679 OFFCURVE",
"122 677 OFFCURVE",
"65 675 CURVE",
"65 0 LINE"
);
}
);
width = 514;
},
{
associatedMasterId = "6114C541-D024-4A3E-9713-6FAF49EAB318";
background = {
paths = (
{
closed = 1;
nodes = (
"126 398 LINE",
"126 296 LINE",
"278 296 LINE SMOOTH",
"357 296 OFFCURVE",
"392 250 OFFCURVE",
"392 201 CURVE SMOOTH",
"392 124 OFFCURVE",
"335 100 OFFCURVE",
"255 100 CURVE SMOOTH",
"232 100 OFFCURVE",
"208 102 OFFCURVE",
"182 105 CURVE",
"182 571 LINE",
"207 573 OFFCURVE",
"230 574 OFFCURVE",
"251 574 CURVE SMOOTH",
"321 574 OFFCURVE",
"369 553 OFFCURVE",
"369 489 CURVE SMOOTH",
"369 440 OFFCURVE",
"340 398 OFFCURVE",
"269 398 CURVE SMOOTH"
);
},
{
closed = 1;
nodes = (
"326 349 LINE",
"430 349 OFFCURVE",
"491 430 OFFCURVE",
"491 508 CURVE SMOOTH",
"491 638 OFFCURVE",
"380 679 OFFCURVE",
"247 679 CURVE SMOOTH",
"169 679 OFFCURVE",
"117 677 OFFCURVE",
"60 675 CURVE",
"60 0 LINE",
"113 -3 OFFCURVE",
"160 -5 OFFCURVE",
"208 -5 CURVE SMOOTH",
"402 -5 OFFCURVE",
"512 51 OFFCURVE",
"512 198 CURVE SMOOTH",
"512 288 OFFCURVE",
"439 362 OFFCURVE",
"326 362 CURVE"
);
}
);
};
layerId = "B4E52B19-6DB7-43C9-9FA2-C2A216109979";
name = "Bold fino";
paths = (
{
closed = 1;
nodes = (
"60 675 LINE",
"117 677 OFFCURVE",
"169 679 OFFCURVE",
"258 679 CURVE SMOOTH",
"390 679 OFFCURVE",
"504 611 OFFCURVE",
"504 471 CURVE SMOOTH",
"504 353 OFFCURVE",
"430 246 OFFCURVE",
"259 246 CURVE SMOOTH",
"126 246 LINE",
"126 348 LINE",
"269 348 LINE SMOOTH",
"353 348 OFFCURVE",
"382 390 OFFCURVE",
"382 462 CURVE SMOOTH",
"382 536 OFFCURVE",
"334 574 OFFCURVE",
"251 574 CURVE SMOOTH",
"230 574 OFFCURVE",
"207 573 OFFCURVE",
"182 571 CURVE",
"182 0 LINE",
"60 0 LINE"
);
}
);
width = 521;
},
{
associatedMasterId = "CC11FE7D-5FF0-4B40-9597-DFC61EB94F41";
layerId = "BE746294-7B9B-4E87-A776-C7FFA81CB4AB";
name = "Light Condensed Sep 10 15, 19:43";
paths = (
{
closed = 1;
nodes = (
"244 295 LINE SMOOTH",
"383 295 OFFCURVE",
"462 381 OFFCURVE",
"462 497 CURVE SMOOTH",
"462 596 OFFCURVE",
"416 677 OFFCURVE",
"234 677 CURVE SMOOTH",
"187 677 OFFCURVE",
"132 677 OFFCURVE",
"85 675 CURVE",
"85 0 LINE",
"124 0 LINE",
"124 639 LINE",
"158 640 OFFCURVE",
"190 642 OFFCURVE",
"227 642 CURVE SMOOTH",
"372 642 OFFCURVE",
"419 588 OFFCURVE",
"419 488 CURVE SMOOTH",
"419 390 OFFCURVE",
"360 328 OFFCURVE",
"215 328 CURVE SMOOTH",
"105 328 LINE",
"105 295 LINE"
);
}
);
width = 487;
},
{
layerId = "CC11FE7D-5FF0-4B40-9597-DFC61EB94F41";
paths = (
{
closed = 1;
nodes = (
"127 0 LINE",
"127 649 LINE",
"114 637 LINE",
"148 638 OFFCURVE",
"185 640 OFFCURVE",
"222 640 CURVE SMOOTH",
"359 640 OFFCURVE",
"406 586 OFFCURVE",
"406 488 CURVE SMOOTH",
"406 394 OFFCURVE",
"347 332 OFFCURVE",
"210 332 CURVE SMOOTH",
"105 332 LINE",
"105 295 LINE",
"239 295 LINE SMOOTH",
"373 295 OFFCURVE",
"452 381 OFFCURVE",
"452 497 CURVE SMOOTH",
"452 596 OFFCURVE",
"406 677 OFFCURVE",
"229 677 CURVE SMOOTH",
"182 677 OFFCURVE",
"132 677 OFFCURVE",
"85 675 CURVE",
"85 0 LINE"
);
}
);
width = 472;
}
);
unicode = 0050;
},
{
glyphname = Thorn;
lastChange = "2021-05-27 04:30:38 +0000";
layers = (
{
layerId = "6114C541-D024-4A3E-9713-6FAF49EAB318";
paths = (
{
closed = 1;
nodes = (
"259 124 LINE SMOOTH",
"425 124 OFFCURVE",
"499 231 OFFCURVE",
"499 349 CURVE SMOOTH",
"499 489 OFFCURVE",
"385 557 OFFCURVE",
"258 557 CURVE SMOOTH",
"131 557 LINE",
"131 447 LINE",
"260 447 LINE SMOOTH",
"336 447 OFFCURVE",
"364 400 OFFCURVE",
"364 335 CURVE SMOOTH",
"364 274 OFFCURVE",
"331 234 OFFCURVE",
"269 234 CURVE SMOOTH",
"131 234 LINE",
"131 124 LINE"
);
},
{
closed = 1;
nodes = (
"197 0 LINE",
"197 675 LINE",
"65 675 LINE",
"65 0 LINE"
);
}
);
width = 519;
},
{
layerId = "CC11FE7D-5FF0-4B40-9597-DFC61EB94F41";
paths = (
{
closed = 1;
nodes = (
"239 163 LINE SMOOTH",
"373 163 OFFCURVE",
"452 249 OFFCURVE",
"452 365 CURVE SMOOTH",
"452 464 OFFCURVE",
"406 546 OFFCURVE",
"229 545 CURVE SMOOTH",
"104 544 LINE",
"104 507 LINE",
"222 508 LINE SMOOTH",
"359 509 OFFCURVE",
"406 454 OFFCURVE",
"406 356 CURVE SMOOTH",
"406 262 OFFCURVE",
"347 200 OFFCURVE",
"210 200 CURVE SMOOTH",
"105 200 LINE",
"105 163 LINE"
);
},
{
closed = 1;
nodes = (
"127 0 LINE",
"127 675 LINE",
"85 675 LINE",
"85 0 LINE"
);
}
);
width = 477;
}
);
unicode = 00DE;
},
{
glyphname = Q;
lastChange = "2021-05-27 04:30:38 +0000";
layers = (
{
background = {
paths = (
{
closed = 1;
nodes = (
"499 -15 OFFCURVE",
"595 137 OFFCURVE",
"595 336 CURVE SMOOTH",
"595 540 OFFCURVE",
"503 690 OFFCURVE",
"313 690 CURVE SMOOTH",
"125 690 OFFCURVE",
"27 534 OFFCURVE",
"27 335 CURVE SMOOTH",
"27 133 OFFCURVE",
"120 -15 OFFCURVE",
"310 -15 CURVE SMOOTH"
);
},
{
closed = 1;
nodes = (
"554 -126 OFFCURVE",
"570 -125 OFFCURVE",
"587 -124 CURVE",
"584 -18 LINE",
"565 -21 OFFCURVE",
"544 -23 OFFCURVE",
"524 -23 CURVE SMOOTH",
"481 -23 OFFCURVE",
"445 -12 OFFCURVE",
"445 29 CURVE",
"323 29 LINE",
"323 -86 OFFCURVE",
"409 -126 OFFCURVE",
"539 -126 CURVE SMOOTH"
);
},
{
closed = 1;
nodes = (
"201 95 OFFCURVE",
"157 202 OFFCURVE",
"157 336 CURVE SMOOTH",
"157 468 OFFCURVE",
"203 580 OFFCURVE",
"313 580 CURVE SMOOTH",
"421 580 OFFCURVE",
"465 472 OFFCURVE",
"465 335 CURVE SMOOTH",
"465 204 OFFCURVE",
"420 95 OFFCURVE",
"311 95 CURVE SMOOTH"
);
},
{
closed = 1;
nodes = (
"458 -136 OFFCURVE",
"578 -94 CURVE",
"568 -60 LINE",
"485 -90 OFFCURVE",
"385 -90 OFFCURVE",
"405 29 CURVE",
"364 29 LINE",
"344 -110 OFFCURVE"
);
}
);
};
layerId = "6114C541-D024-4A3E-9713-6FAF49EAB318";
paths = (
{
closed = 1;
nodes = (
"499 -15 OFFCURVE",
"590 137 OFFCURVE",
"590 336 CURVE SMOOTH",
"590 540 OFFCURVE",
"503 690 OFFCURVE",
"313 690 CURVE SMOOTH",
"125 690 OFFCURVE",
"32 534 OFFCURVE",
"32 335 CURVE SMOOTH",
"32 133 OFFCURVE",
"120 -15 OFFCURVE",
"310 -15 CURVE SMOOTH"
);
},
{
closed = 1;
nodes = (
"550 -26 LINE",
"475 -51 OFFCURVE",
"415 -45 OFFCURVE",
"420 24 CURVE",
"300 24 LINE",
"286 -139 OFFCURVE",
"414 -185 OFFCURVE",
"574 -132 CURVE"
);
},
{
closed = 1;
nodes = (
"211 100 OFFCURVE",
"172 205 OFFCURVE",
"172 336 CURVE SMOOTH",
"172 465 OFFCURVE",
"213 575 OFFCURVE",
"313 575 CURVE SMOOTH",
"411 575 OFFCURVE",
"450 469 OFFCURVE",
"450 335 CURVE SMOOTH",
"450 207 OFFCURVE",
"410 100 OFFCURVE",
"311 100 CURVE SMOOTH"
);
}
);
width = 613;
},
{
associatedMasterId = "CC11FE7D-5FF0-4B40-9597-DFC61EB94F41";
background = {
paths = (
{
closed = 1;
nodes = (
"430 315 OFFCURVE",
"404 346 OFFCURVE",
"374 381 CURVE SMOOTH",
"349 410 OFFCURVE",
"319 446 OFFCURVE",
"257 445 CURVE",
"256 415 LINE",
"298 415 OFFCURVE",
"317 393 OFFCURVE",
"344 361 CURVE SMOOTH",
"372 328 OFFCURVE",
"409 284 OFFCURVE",
"493 285 CURVE",
"493 315 LINE"
);
},
{
closed = 1;
nodes = (
"420 15 OFFCURVE",
"383 54 OFFCURVE",
"347 93 CURVE",
"322 117 OFFCURVE",
"295 145 OFFCURVE",
"257 145 CURVE",
"257 115 LINE",
"276 115 OFFCURVE",
"292 99 OFFCURVE",
"320 71 CURVE",
"319 72 LINE",
"352 36 OFFCURVE",
"401 -15 OFFCURVE",
"493 -15 CURVE",
"493 15 LINE"
);
}
);
};
layerId = "B01CC416-F92C-45F8-82AE-7AA7115FE41A";
name = "Light Condensed Sep 8 15, 20:34";
paths = (
{
closed = 1;
nodes = (
"379 -94 OFFCURVE",
"393 20 OFFCURVE",
"269 20 CURVE",
"268 -6 LINE",
"362 -6 OFFCURVE",
"355 -130 OFFCURVE",
"505 -130 CURVE",
"505 -94 LINE"
);
},
{
closed = 1;
nodes = (
"452 -7 OFFCURVE",
"544 144 OFFCURVE",
"544 336 CURVE SMOOTH",
"544 531 OFFCURVE",
"463 682 OFFCURVE",
"294 682 CURVE SMOOTH",
"134 682 OFFCURVE",
"40 529 OFFCURVE",
"40 336 CURVE SMOOTH",
"40 142 OFFCURVE",
"118 -7 OFFCURVE",
"292 -7 CURVE SMOOTH"
);
},
{
closed = 1;
nodes = (
"155 32 OFFCURVE",
"86 161 OFFCURVE",
"86 336 CURVE SMOOTH",
"86 509 OFFCURVE",
"160 643 OFFCURVE",
"294 643 CURVE SMOOTH",
"429 643 OFFCURVE",
"498 511 OFFCURVE",
"498 336 CURVE SMOOTH",
"498 163 OFFCURVE",
"426 32 OFFCURVE",
"292 32 CURVE SMOOTH"
);
}
);
width = 580;
},
{
associatedMasterId = "6114C541-D024-4A3E-9713-6FAF49EAB318";
background = {
paths = (
{
closed = 1;
nodes = (
"529 163 OFFCURVE",
"457 30 OFFCURVE",
"316 30 CURVE SMOOTH",
"172 30 OFFCURVE",
"103 161 OFFCURVE",
"103 336 CURVE SMOOTH",
"103 510 OFFCURVE",
"177 645 OFFCURVE",
"318 645 CURVE SMOOTH",
"460 645 OFFCURVE",
"529 512 OFFCURVE",
"529 336 CURVE SMOOTH"
);
},
{
closed = 1;
nodes = (
"573 531 OFFCURVE",
"492 682 OFFCURVE",
"318 682 CURVE SMOOTH",
"153 682 OFFCURVE",
"59 529 OFFCURVE",
"59 336 CURVE SMOOTH",
"59 142 OFFCURVE",
"137 -7 OFFCURVE",
"316 -7 CURVE SMOOTH",
"481 -7 OFFCURVE",
"573 144 OFFCURVE",
"573 336 CURVE SMOOTH"
);
},
{
closed = 1;
nodes = (
"553 -60 OFFCURVE",
"538 -61 OFFCURVE",
"523 -61 CURVE SMOOTH",
"451 -61 OFFCURVE",
"400 -38 OFFCURVE",
"400 29 CURVE",
"358 29 LINE",
"358 -66 OFFCURVE",
"436 -96 OFFCURVE",
"528 -96 CURVE SMOOTH",
"542 -96 OFFCURVE",
"557 -95 OFFCURVE",
"572 -94 CURVE",
"569 -58 LINE"
);
},
{
closed = 1;
nodes = (
"573 -20 OFFCURVE",
"538 -21 OFFCURVE",
"523 -21 CURVE SMOOTH",
"461 -21 OFFCURVE",
"450 2 OFFCURVE",
"450 29 CURVE",
"328 29 LINE",
"328 -96 OFFCURVE",
"436 -126 OFFCURVE",
"528 -126 CURVE SMOOTH",
"542 -126 OFFCURVE",
"577 -125 OFFCURVE",
"592 -124 CURVE",
"589 -18 LINE"
);
}
);
};
layerId = "AB7E8ADA-2236-406C-8947-DEDE424384F5";
name = "Bold fino";
paths = (
{
closed = 1;
nodes = (
"504 -15 OFFCURVE",
"600 137 OFFCURVE",
"600 336 CURVE SMOOTH",
"600 540 OFFCURVE",
"508 690 OFFCURVE",
"318 690 CURVE SMOOTH",
"130 690 OFFCURVE",
"32 534 OFFCURVE",
"32 335 CURVE SMOOTH",
"32 133 OFFCURVE",
"125 -15 OFFCURVE",
"315 -15 CURVE SMOOTH"
);
},
{
closed = 1;
nodes = (
"559 -126 OFFCURVE",
"575 -125 OFFCURVE",
"592 -124 CURVE",
"589 -18 LINE",
"570 -21 OFFCURVE",
"549 -23 OFFCURVE",
"529 -23 CURVE SMOOTH",
"486 -23 OFFCURVE",
"450 -12 OFFCURVE",
"450 29 CURVE",
"328 29 LINE",
"328 -86 OFFCURVE",
"414 -126 OFFCURVE",
"544 -126 CURVE SMOOTH"
);
},
{
closed = 1;
nodes = (
"206 95 OFFCURVE",
"162 202 OFFCURVE",
"162 336 CURVE SMOOTH",
"162 468 OFFCURVE",
"208 580 OFFCURVE",
"318 580 CURVE SMOOTH",
"426 580 OFFCURVE",
"470 472 OFFCURVE",
"470 335 CURVE SMOOTH",
"470 204 OFFCURVE",
"425 95 OFFCURVE",
"316 95 CURVE SMOOTH"
);
}
);
width = 632;
},
{
associatedMasterId = "CC11FE7D-5FF0-4B40-9597-DFC61EB94F41";
background = {
paths = (
{
closed = 1;
nodes = (
"411 -74 OFFCURVE",
"315 -67 OFFCURVE",
"315 23 CURVE",
"273 23 LINE",
"273 -97 OFFCURVE",
"397 -110 OFFCURVE",
"487 -110 CURVE",
"487 -74 LINE"
);
},
{
closed = 1;
nodes = (
"510 163 OFFCURVE",
"438 30 OFFCURVE",
"297 30 CURVE SMOOTH",
"153 30 OFFCURVE",
"84 161 OFFCURVE",
"84 336 CURVE SMOOTH",
"84 510 OFFCURVE",
"158 645 OFFCURVE",
"299 645 CURVE SMOOTH",
"441 645 OFFCURVE",
"510 512 OFFCURVE",
"510 336 CURVE SMOOTH"
);
},
{
closed = 1;
nodes = (
"554 531 OFFCURVE",
"473 682 OFFCURVE",
"299 682 CURVE SMOOTH",
"134 682 OFFCURVE",
"40 529 OFFCURVE",
"40 336 CURVE SMOOTH",
"40 142 OFFCURVE",
"118 -7 OFFCURVE",
"297 -7 CURVE SMOOTH",
"462 -7 OFFCURVE",
"554 144 OFFCURVE",
"554 336 CURVE SMOOTH"
);
}
);
};
guideLines = (
{
angle = 90;
position = "{553, 42}";
}
);
layerId = "D38CD59D-0CB6-45E7-A49E-3FE5E094710A";
name = "Light Condensed Sep 10 15, 19:49";
paths = (
{
closed = 1;
nodes = (
"462 -7 OFFCURVE",
"554 144 OFFCURVE",
"554 336 CURVE SMOOTH",
"554 531 OFFCURVE",
"473 682 OFFCURVE",
"299 682 CURVE SMOOTH",
"134 682 OFFCURVE",
"40 529 OFFCURVE",
"40 336 CURVE SMOOTH",
"40 142 OFFCURVE",
"118 -7 OFFCURVE",
"297 -7 CURVE SMOOTH"
);
},
{
closed = 1;
nodes = (
"523 -96 OFFCURVE",
"538 -95 OFFCURVE",
"553 -94 CURVE",
"550 -58 LINE",
"534 -60 OFFCURVE",
"519 -61 OFFCURVE",
"504 -61 CURVE SMOOTH",
"432 -61 OFFCURVE",
"378 -38 OFFCURVE",
"378 29 CURVE",
"339 29 LINE",
"339 -66 OFFCURVE",
"417 -96 OFFCURVE",
"509 -96 CURVE SMOOTH"
);
},
{
closed = 1;
nodes = (
"153 30 OFFCURVE",
"84 161 OFFCURVE",
"84 336 CURVE SMOOTH",
"84 510 OFFCURVE",
"158 645 OFFCURVE",
"299 645 CURVE SMOOTH",
"441 645 OFFCURVE",
"510 512 OFFCURVE",
"510 336 CURVE SMOOTH",
"510 163 OFFCURVE",
"438 30 OFFCURVE",
"297 30 CURVE SMOOTH"
);
}
);
width = 590;
},
{
associatedMasterId = "CC11FE7D-5FF0-4B40-9597-DFC61EB94F41";
background = {
paths = (
{
closed = 1;
nodes = (
"406 -74 OFFCURVE",
"310 -67 OFFCURVE",
"310 23 CURVE",
"268 23 LINE",
"268 -97 OFFCURVE",
"392 -110 OFFCURVE",
"482 -110 CURVE",
"482 -74 LINE"
);
},
{
closed = 1;
nodes = (
"505 163 OFFCURVE",
"433 30 OFFCURVE",
"292 30 CURVE SMOOTH",
"148 30 OFFCURVE",
"79 161 OFFCURVE",
"79 336 CURVE SMOOTH",
"79 510 OFFCURVE",
"153 645 OFFCURVE",
"294 645 CURVE SMOOTH",
"436 645 OFFCURVE",
"505 512 OFFCURVE",
"505 336 CURVE SMOOTH"
);
},
{
closed = 1;
nodes = (
"549 531 OFFCURVE",
"468 682 OFFCURVE",
"294 682 CURVE SMOOTH",
"129 682 OFFCURVE",
"35 529 OFFCURVE",
"35 336 CURVE SMOOTH",
"35 142 OFFCURVE",
"113 -7 OFFCURVE",
"292 -7 CURVE SMOOTH",
"457 -7 OFFCURVE",
"549 144 OFFCURVE",
"549 336 CURVE SMOOTH"
);
}
);
};
guideLines = (
{
angle = 90;
position = "{548, 42}";
}
);
layerId = "A9A8DC30-1B14-4974-9F6E-459F5110F353";
name = "Light Condensed Sep 13 15, 16:29";
paths = (
{
closed = 1;
nodes = (
"452 -7 OFFCURVE",
"544 144 OFFCURVE",
"544 336 CURVE SMOOTH",
"544 531 OFFCURVE",
"463 682 OFFCURVE",
"294 682 CURVE SMOOTH",
"134 682 OFFCURVE",
"40 529 OFFCURVE",
"40 336 CURVE SMOOTH",
"40 142 OFFCURVE",
"118 -7 OFFCURVE",
"292 -7 CURVE SMOOTH"
);
},
{
closed = 1;
nodes = (
"518 -96 OFFCURVE",
"533 -95 OFFCURVE",
"548 -94 CURVE",
"545 -58 LINE",
"529 -60 OFFCURVE",
"514 -61 OFFCURVE",
"499 -61 CURVE SMOOTH",
"427 -61 OFFCURVE",
"373 -38 OFFCURVE",
"373 29 CURVE",
"334 29 LINE",
"334 -66 OFFCURVE",
"412 -96 OFFCURVE",
"504 -96 CURVE SMOOTH"
);
},
{
closed = 1;
nodes = (
"155 32 OFFCURVE",
"86 161 OFFCURVE",
"86 336 CURVE SMOOTH",
"86 509 OFFCURVE",
"160 643 OFFCURVE",
"294 643 CURVE SMOOTH",
"429 643 OFFCURVE",
"498 511 OFFCURVE",
"498 336 CURVE SMOOTH",
"498 163 OFFCURVE",
"426 32 OFFCURVE",
"292 32 CURVE SMOOTH"
);
}
);
width = 584;
},
{
associatedMasterId = "6114C541-D024-4A3E-9713-6FAF49EAB318";
background = {
paths = (
{
closed = 1;
nodes = (
"499 -15 OFFCURVE",
"595 137 OFFCURVE",
"595 336 CURVE SMOOTH",
"595 540 OFFCURVE",
"503 690 OFFCURVE",
"313 690 CURVE SMOOTH",
"125 690 OFFCURVE",
"27 534 OFFCURVE",
"27 335 CURVE SMOOTH",
"27 133 OFFCURVE",
"120 -15 OFFCURVE",
"310 -15 CURVE SMOOTH"
);
},
{
closed = 1;
nodes = (
"554 -126 OFFCURVE",
"570 -125 OFFCURVE",
"587 -124 CURVE",
"584 -18 LINE",
"565 -21 OFFCURVE",
"544 -23 OFFCURVE",
"524 -23 CURVE SMOOTH",
"481 -23 OFFCURVE",
"445 -12 OFFCURVE",
"445 29 CURVE",
"323 29 LINE",
"323 -86 OFFCURVE",
"409 -126 OFFCURVE",
"539 -126 CURVE SMOOTH"
);
},
{
closed = 1;
nodes = (
"201 95 OFFCURVE",
"157 202 OFFCURVE",
"157 336 CURVE SMOOTH",
"157 468 OFFCURVE",
"203 580 OFFCURVE",
"313 580 CURVE SMOOTH",
"421 580 OFFCURVE",
"465 472 OFFCURVE",
"465 335 CURVE SMOOTH",
"465 204 OFFCURVE",
"420 95 OFFCURVE",
"311 95 CURVE SMOOTH"
);
},
{
closed = 1;
nodes = (
"408 -136 OFFCURVE",
"528 -94 CURVE",
"518 -60 LINE",
"435 -90 OFFCURVE",
"335 -90 OFFCURVE",
"355 29 CURVE",
"314 29 LINE",
"294 -110 OFFCURVE"
);
}
);
};
layerId = "B1F1F66E-CDBC-4543-82DA-62D06974A6F1";
name = "Bold Condensed Sep 14 15, 11:49";
paths = (
{
closed = 1;
nodes = (
"499 -15 OFFCURVE",
"590 137 OFFCURVE",
"590 336 CURVE SMOOTH",
"590 540 OFFCURVE",
"503 690 OFFCURVE",
"313 690 CURVE SMOOTH",
"125 690 OFFCURVE",
"32 534 OFFCURVE",
"32 335 CURVE SMOOTH",
"32 133 OFFCURVE",
"120 -15 OFFCURVE",
"310 -15 CURVE SMOOTH"
);
},
{
closed = 1;
nodes = (
"554 -131 OFFCURVE",
"570 -130 OFFCURVE",
"587 -129 CURVE",
"584 -18 LINE",
"565 -21 OFFCURVE",
"544 -23 OFFCURVE",
"524 -23 CURVE SMOOTH",
"483 -23 OFFCURVE",
"450 -12 OFFCURVE",
"450 29 CURVE",
"318 29 LINE",
"318 -86 OFFCURVE",
"406 -131 OFFCURVE",
"539 -131 CURVE SMOOTH"
);
},
{
closed = 1;
nodes = (
"211 100 OFFCURVE",
"172 205 OFFCURVE",
"172 336 CURVE SMOOTH",
"172 465 OFFCURVE",
"213 575 OFFCURVE",
"313 575 CURVE SMOOTH",
"411 575 OFFCURVE",
"450 469 OFFCURVE",
"450 335 CURVE SMOOTH",
"450 207 OFFCURVE",
"410 100 OFFCURVE",
"311 100 CURVE SMOOTH"
);
}
);
width = 613;
},
{
background = {
paths = (
{
closed = 1;
nodes = (
"452 -7 OFFCURVE",
"544 144 OFFCURVE",
"544 336 CURVE SMOOTH",
"544 531 OFFCURVE",
"463 682 OFFCURVE",
"294 682 CURVE SMOOTH",
"134 682 OFFCURVE",
"40 529 OFFCURVE",
"40 336 CURVE SMOOTH",
"40 142 OFFCURVE",
"118 -7 OFFCURVE",
"292 -7 CURVE SMOOTH"
);
},
{
closed = 1;
nodes = (
"408 -116 OFFCURVE",
"528 -94 CURVE",
"523 -58 LINE",
"438 -74 OFFCURVE",
"343 -90 OFFCURVE",
"363 29 CURVE",
"324 29 LINE",
"304 -110 OFFCURVE"
);
},
{
closed = 1;
nodes = (
"155 32 OFFCURVE",
"86 161 OFFCURVE",
"86 336 CURVE SMOOTH",
"86 509 OFFCURVE",
"160 643 OFFCURVE",
"294 643 CURVE SMOOTH",
"429 643 OFFCURVE",
"498 511 OFFCURVE",
"498 336 CURVE SMOOTH",
"498 163 OFFCURVE",
"426 32 OFFCURVE",
"292 32 CURVE SMOOTH"
);
}
);
};
guideLines = (
{
angle = 90;
position = "{548, 42}";
}
);
layerId = "CC11FE7D-5FF0-4B40-9597-DFC61EB94F41";
paths = (
{
closed = 1;
nodes = (
"452 -7 OFFCURVE",
"544 144 OFFCURVE",
"544 336 CURVE SMOOTH",
"544 531 OFFCURVE",
"463 682 OFFCURVE",
"294 682 CURVE SMOOTH",
"134 682 OFFCURVE",
"40 529 OFFCURVE",
"40 336 CURVE SMOOTH",
"40 142 OFFCURVE",
"118 -7 OFFCURVE",
"292 -7 CURVE SMOOTH"
);
},
{
closed = 1;
nodes = (
"518 -60 LINE",
"435 -90 OFFCURVE",
"335 -90 OFFCURVE",
"355 29 CURVE",
"314 29 LINE",
"294 -110 OFFCURVE",
"408 -136 OFFCURVE",
"528 -94 CURVE"
);
},
{
closed = 1;
nodes = (
"155 32 OFFCURVE",
"86 161 OFFCURVE",
"86 336 CURVE SMOOTH",
"86 509 OFFCURVE",
"160 643 OFFCURVE",
"294 643 CURVE SMOOTH",
"429 643 OFFCURVE",
"498 511 OFFCURVE",
"498 336 CURVE SMOOTH",
"498 163 OFFCURVE",
"426 32 OFFCURVE",
"292 32 CURVE SMOOTH"
);
}
);
width = 584;
}
);
unicode = 0051;
},
{
glyphname = R;
lastChange = "2021-05-27 04:30:38 +0000";
layers = (
{
anchors = (
{
name = bottom;
position = "{271, 0}";
},
{
name = top;
position = "{256, 660}";
}
);
background = {
paths = (
{
closed = 1;
nodes = (
"157 0 LINE",
"157 649 LINE",
"144 637 LINE",
"178 638 OFFCURVE",
"215 640 OFFCURVE",
"252 640 CURVE SMOOTH",
"392 640 OFFCURVE",
"439 590 OFFCURVE",
"439 493 CURVE SMOOTH",
"439 404 OFFCURVE",
"380 342 OFFCURVE",
"240 342 CURVE SMOOTH",
"135 342 LINE",
"135 305 LINE",
"269 305 LINE SMOOTH",
"406 305 OFFCURVE",
"485 391 OFFCURVE",
"485 502 CURVE SMOOTH",
"485 600 OFFCURVE",
"439 677 OFFCURVE",
"259 677 CURVE SMOOTH",
"212 677 OFFCURVE",
"162 677 OFFCURVE",
"115 675 CURVE",
"115 0 LINE"
);
},
{
closed = 1;
nodes = (
"497 0 LINE",
"339 322 LINE",
"294 320 LINE",
"449 0 LINE"
);
},
{
closed = 1;
nodes = (
"532 0 LINE",
"372 325 LINE",
"239 325 LINE",
"396 0 LINE"
);
}
);
};
layerId = "6114C541-D024-4A3E-9713-6FAF49EAB318";
paths = (
{
closed = 1;
nodes = (
"197 0 LINE",
"197 586 LINE",
"177 566 LINE",
"197 568 OFFCURVE",
"239 569 OFFCURVE",
"260 569 CURVE SMOOTH",
"339 569 OFFCURVE",
"367 531 OFFCURVE",
"367 465 CURVE SMOOTH",
"367 408 OFFCURVE",
"334 364 OFFCURVE",
"269 364 CURVE SMOOTH",
"131 364 LINE",
"131 254 LINE",
"259 254 LINE SMOOTH",
"428 254 OFFCURVE",
"502 365 OFFCURVE",
"502 479 CURVE SMOOTH",
"502 620 OFFCURVE",
"396 679 OFFCURVE",
"256 679 CURVE SMOOTH",
"172 679 OFFCURVE",
"122 677 OFFCURVE",
"65 675 CURVE",
"65 0 LINE"
);
},
{
closed = 1;
nodes = (
"348 71 LINE SMOOTH",
"373 17 OFFCURVE",
"407 -14 OFFCURVE",
"468 -14 CURVE SMOOTH",
"485 -14 OFFCURVE",
"506 -12 OFFCURVE",
"525 -7 CURVE",
"520 90 LINE",
"515 89 OFFCURVE",
"510 89 OFFCURVE",
"506 89 CURVE SMOOTH",
"486 89 OFFCURVE",
"476 96 OFFCURVE",
"466 116 CURVE SMOOTH",
"360 331 LINE",
"233 318 LINE"
);
}
);
width = 540;
},
{
associatedMasterId = "6114C541-D024-4A3E-9713-6FAF49EAB318";
background = {
paths = (
{
closed = 1;
nodes = (
"157 0 LINE",
"157 649 LINE",
"144 637 LINE",
"178 638 OFFCURVE",
"215 640 OFFCURVE",
"252 640 CURVE SMOOTH",
"392 640 OFFCURVE",
"439 590 OFFCURVE",
"439 493 CURVE SMOOTH",
"439 404 OFFCURVE",
"380 342 OFFCURVE",
"240 342 CURVE SMOOTH",
"135 342 LINE",
"135 305 LINE",
"269 305 LINE SMOOTH",
"406 305 OFFCURVE",
"485 391 OFFCURVE",
"485 502 CURVE SMOOTH",
"485 600 OFFCURVE",
"439 677 OFFCURVE",
"259 677 CURVE SMOOTH",
"212 677 OFFCURVE",
"162 677 OFFCURVE",
"115 675 CURVE",
"115 0 LINE"
);
},
{
closed = 1;
nodes = (
"497 0 LINE",
"339 322 LINE",
"294 320 LINE",
"449 0 LINE"
);
}
);
};
layerId = "F858B223-CD33-4083-93FE-E35A7B901C74";
name = "Bold Condensed Sep 12 15, 01:54";
paths = (
{
closed = 1;
nodes = (
"197 0 LINE",
"197 586 LINE",
"177 566 LINE",
"197 568 OFFCURVE",
"239 569 OFFCURVE",
"260 569 CURVE SMOOTH",
"339 569 OFFCURVE",
"367 531 OFFCURVE",
"367 465 CURVE SMOOTH",
"367 408 OFFCURVE",
"334 364 OFFCURVE",
"269 364 CURVE SMOOTH",
"131 364 LINE",
"131 254 LINE",
"259 254 LINE SMOOTH",
"428 254 OFFCURVE",
"502 365 OFFCURVE",
"502 479 CURVE SMOOTH",
"502 620 OFFCURVE",
"388 679 OFFCURVE",
"258 679 CURVE SMOOTH",
"174 679 OFFCURVE",
"122 677 OFFCURVE",
"65 675 CURVE",
"65 0 LINE"
);
},
{
closed = 1;
nodes = (
"532 0 LINE",
"372 325 LINE",
"239 325 LINE",
"396 0 LINE"
);
}
);
width = 542;
},
{
associatedMasterId = "CC11FE7D-5FF0-4B40-9597-DFC61EB94F41";
layerId = "589B0A21-9DFC-490B-B7D1-B9C6DC39EB5A";
name = "Light Condensed Sep 12 15, 01:55";
paths = (
{
closed = 1;
nodes = (
"127 0 LINE",
"127 649 LINE",
"114 637 LINE",
"148 638 OFFCURVE",
"185 640 OFFCURVE",
"222 640 CURVE SMOOTH",
"362 640 OFFCURVE",
"409 590 OFFCURVE",
"409 493 CURVE SMOOTH",
"409 404 OFFCURVE",
"350 342 OFFCURVE",
"210 342 CURVE SMOOTH",
"105 342 LINE",
"105 305 LINE",
"239 305 LINE SMOOTH",
"376 305 OFFCURVE",
"455 391 OFFCURVE",
"455 502 CURVE SMOOTH",
"455 600 OFFCURVE",
"409 677 OFFCURVE",
"229 677 CURVE SMOOTH",
"182 677 OFFCURVE",
"132 677 OFFCURVE",
"85 675 CURVE",
"85 0 LINE"
);
},
{
closed = 1;
nodes = (
"467 0 LINE",
"309 322 LINE",
"264 320 LINE",
"419 0 LINE"
);
}
);
width = 497;
},
{
anchors = (
{
name = bottom;
position = "{249, 0}";
},
{
name = top;
position = "{249, 645}";
}
);
associatedMasterId = "CC11FE7D-5FF0-4B40-9597-DFC61EB94F41";
background = {
paths = (
{
closed = 1;
nodes = (
"127 0 LINE",
"127 649 LINE",
"114 637 LINE",
"148 638 OFFCURVE",
"185 640 OFFCURVE",
"222 640 CURVE SMOOTH",
"362 640 OFFCURVE",
"409 590 OFFCURVE",
"409 493 CURVE SMOOTH",
"409 404 OFFCURVE",
"350 342 OFFCURVE",
"210 342 CURVE SMOOTH",
"105 342 LINE",
"105 305 LINE",
"239 305 LINE SMOOTH",
"376 305 OFFCURVE",
"455 391 OFFCURVE",
"455 502 CURVE SMOOTH",
"455 600 OFFCURVE",
"409 677 OFFCURVE",
"229 677 CURVE SMOOTH",
"182 677 OFFCURVE",
"132 677 OFFCURVE",
"85 675 CURVE",
"85 0 LINE"
);
},
{
closed = 1;
nodes = (
"467 0 LINE",
"309 322 LINE",
"264 320 LINE",
"419 0 LINE"
);
}
);
};
layerId = "03C1042D-9987-4A4A-972C-9768D0F7D993";
name = "Light Condensed Oct 21 15, 18:57";
paths = (
{
closed = 1;
nodes = (
"127 0 LINE",
"127 649 LINE",
"114 637 LINE",
"148 638 OFFCURVE",
"185 640 OFFCURVE",
"222 640 CURVE SMOOTH",
"362 640 OFFCURVE",
"409 590 OFFCURVE",
"409 493 CURVE SMOOTH",
"409 393 OFFCURVE",
"346 342 OFFCURVE",
"220 342 CURVE SMOOTH",
"105 342 LINE",
"105 305 LINE",
"229 305 LINE SMOOTH",
"384 305 OFFCURVE",
"455 391 OFFCURVE",
"455 502 CURVE SMOOTH",
"455 600 OFFCURVE",
"409 677 OFFCURVE",
"229 677 CURVE SMOOTH",
"182 677 OFFCURVE",
"132 677 OFFCURVE",
"85 675 CURVE",
"85 0 LINE"
);
},
{
closed = 1;
nodes = (
"400 35 LINE SMOOTH",
"416 4 OFFCURVE",
"434 -7 OFFCURVE",
"458 -7 CURVE SMOOTH",
"465 -7 OFFCURVE",
"474 -6 OFFCURVE",
"479 -5 CURVE",
"476 26 LINE",
"475 26 OFFCURVE",
"474 26 OFFCURVE",
"472 26 CURVE SMOOTH",
"454 26 OFFCURVE",
"444 34 OFFCURVE",
"434 55 CURVE SMOOTH",
"296 329 LINE",
"255 323 LINE"
);
}
);
width = 497;
},
{
anchors = (
{
name = bottom;
position = "{249, 0}";
},
{
name = top;
position = "{241, 645}";
}
);
background = {
paths = (
{
closed = 1;
nodes = (
"127 0 LINE",
"127 649 LINE",
"114 637 LINE",
"148 638 OFFCURVE",
"185 640 OFFCURVE",
"222 640 CURVE SMOOTH",
"362 640 OFFCURVE",
"409 590 OFFCURVE",
"409 493 CURVE SMOOTH",
"409 393 OFFCURVE",
"346 342 OFFCURVE",
"220 342 CURVE SMOOTH",
"105 342 LINE",
"105 305 LINE",
"229 305 LINE SMOOTH",
"384 305 OFFCURVE",
"455 391 OFFCURVE",
"455 502 CURVE SMOOTH",
"455 600 OFFCURVE",
"409 677 OFFCURVE",
"229 677 CURVE SMOOTH",
"182 677 OFFCURVE",
"132 677 OFFCURVE",
"85 675 CURVE",
"85 0 LINE"
);
},
{
closed = 1;
nodes = (
"400 35 LINE SMOOTH",
"416 4 OFFCURVE",
"434 -7 OFFCURVE",
"458 -7 CURVE SMOOTH",
"465 -7 OFFCURVE",
"474 -6 OFFCURVE",
"479 -5 CURVE",
"476 26 LINE",
"475 26 OFFCURVE",
"474 26 OFFCURVE",
"472 26 CURVE SMOOTH",
"454 26 OFFCURVE",
"444 34 OFFCURVE",
"434 55 CURVE SMOOTH",
"296 329 LINE",
"255 323 LINE"
);
}
);
};
layerId = "CC11FE7D-5FF0-4B40-9597-DFC61EB94F41";
paths = (
{
closed = 1;
nodes = (
"127 0 LINE",
"127 649 LINE",
"114 637 LINE",
"148 638 OFFCURVE",
"185 640 OFFCURVE",
"222 640 CURVE SMOOTH",
"362 640 OFFCURVE",
"409 593 OFFCURVE",
"409 493 CURVE SMOOTH",
"409 393 OFFCURVE",
"345 342 OFFCURVE",
"220 342 CURVE SMOOTH",
"105 342 LINE",
"105 305 LINE",
"229 305 LINE SMOOTH",
"379 305 OFFCURVE",
"455 384 OFFCURVE",
"455 499 CURVE SMOOTH",
"455 621 OFFCURVE",
"382 677 OFFCURVE",
"229 677 CURVE SMOOTH",
"182 677 OFFCURVE",
"132 677 OFFCURVE",
"85 675 CURVE",
"85 0 LINE"
);
},
{
closed = 1;
nodes = (
"400 35 LINE SMOOTH",
"416 4 OFFCURVE",
"434 -7 OFFCURVE",
"458 -7 CURVE SMOOTH",
"465 -7 OFFCURVE",
"474 -6 OFFCURVE",
"479 -5 CURVE",
"476 26 LINE",
"475 26 OFFCURVE",
"474 26 OFFCURVE",
"472 26 CURVE SMOOTH",
"454 26 OFFCURVE",
"444 34 OFFCURVE",
"434 55 CURVE SMOOTH",
"296 329 LINE",
"255 323 LINE"
);
}
);
width = 499;
}
);
unicode = 0052;
},
{
glyphname = S;
lastChange = "2021-05-27 04:30:38 +0000";
layers = (
{
anchors = (
{
name = bottom;
position = "{246, 0}";
},
{
name = top;
position = "{258, 660}";
}
);
background = {
paths = (
{
closed = 1;
nodes = (
"99 10 OFFCURVE",
"174 -14 OFFCURVE",
"242 -14 CURVE SMOOTH",
"362 -14 OFFCURVE",
"461 60 OFFCURVE",
"461 205 CURVE SMOOTH",
"461 418 OFFCURVE",
"189 380 OFFCURVE",
"189 500 CURVE SMOOTH",
"189 544 OFFCURVE",
"228 570 OFFCURVE",
"280 570 CURVE SMOOTH",
"319 570 OFFCURVE",
"364 551 OFFCURVE",
"400 526 CURVE",
"458 621 LINE",
"407 669 OFFCURVE",
"335 691 OFFCURVE",
"271 691 CURVE SMOOTH",
"157 691 OFFCURVE",
"57 620 OFFCURVE",
"57 495 CURVE SMOOTH",
"57 269 OFFCURVE",
"329 319 OFFCURVE",
"329 185 CURVE SMOOTH",
"329 136 OFFCURVE",
"289 112 OFFCURVE",
"235 112 CURVE SMOOTH",
"189 112 OFFCURVE",
"131 136 OFFCURVE",
"88 163 CURVE",
"32 59 LINE"
);
}
);
};
guideLines = (
{
angle = 90;
position = "{43, 313}";
}
);
layerId = "6114C541-D024-4A3E-9713-6FAF49EAB318";
paths = (
{
closed = 1;
nodes = (
"363 -15 OFFCURVE",
"463 61 OFFCURVE",
"463 197 CURVE SMOOTH",
"463 418 OFFCURVE",
"175 373 OFFCURVE",
"175 497 CURVE SMOOTH",
"175 551 OFFCURVE",
"214 579 OFFCURVE",
"257 579 CURVE SMOOTH",
"296 579 OFFCURVE",
"338 559 OFFCURVE",
"362 517 CURVE",
"459 569 LINE",
"428 651 OFFCURVE",
"345 690 OFFCURVE",
"261 690 CURVE SMOOTH",
"153 690 OFFCURVE",
"43 621 OFFCURVE",
"43 489 CURVE SMOOTH",
"43 257 OFFCURVE",
"329 309 OFFCURVE",
"329 181 CURVE SMOOTH",
"329 132 OFFCURVE",
"293 100 OFFCURVE",
"244 100 CURVE SMOOTH",
"197 100 OFFCURVE",
"135 116 OFFCURVE",
"85 148 CURVE",
"35 55 LINE",
"102 6 OFFCURVE",
"174 -15 OFFCURVE",
"242 -15 CURVE SMOOTH"
);
}
);
width = 491;
},
{
associatedMasterId = "6114C541-D024-4A3E-9713-6FAF49EAB318";
background = {
paths = (
{
closed = 1;
nodes = (
"97 10 OFFCURVE",
"171 -15 OFFCURVE",
"241 -15 CURVE SMOOTH",
"363 -15 OFFCURVE",
"464 61 OFFCURVE",
"464 200 CURVE SMOOTH",
"464 429 OFFCURVE",
"195 380 OFFCURVE",
"195 498 CURVE SMOOTH",
"195 578 OFFCURVE",
"323 572 OFFCURVE",
"402 518 CURVE",
"460 621 LINE",
"411 667 OFFCURVE",
"342 690 OFFCURVE",
"276 690 CURVE SMOOTH",
"159 690 OFFCURVE",
"58 618 OFFCURVE",
"58 491 CURVE SMOOTH",
"58 264 OFFCURVE",
"324 318 OFFCURVE",
"327 189 CURVE SMOOTH",
"328 139 OFFCURVE",
"277 117 OFFCURVE",
"232 117 CURVE SMOOTH",
"185 117 OFFCURVE",
"130 137 OFFCURVE",
"90 165 CURVE",
"35 64 LINE"
);
}
);
};
layerId = "5490DE73-566E-47AB-8685-98DA90D0A4FC";
name = "Bold Condensed Sep 13 15, 23:29";
paths = (
{
closed = 1;
nodes = (
"101 10 OFFCURVE",
"176 -14 OFFCURVE",
"244 -14 CURVE SMOOTH",
"364 -14 OFFCURVE",
"463 60 OFFCURVE",
"463 205 CURVE SMOOTH",
"463 418 OFFCURVE",
"191 380 OFFCURVE",
"191 500 CURVE SMOOTH",
"191 544 OFFCURVE",
"230 570 OFFCURVE",
"282 570 CURVE SMOOTH",
"321 570 OFFCURVE",
"366 551 OFFCURVE",
"402 526 CURVE",
"460 621 LINE",
"409 669 OFFCURVE",
"337 691 OFFCURVE",
"273 691 CURVE SMOOTH",
"159 691 OFFCURVE",
"59 620 OFFCURVE",
"59 495 CURVE SMOOTH",
"59 269 OFFCURVE",
"331 319 OFFCURVE",
"331 185 CURVE SMOOTH",
"331 136 OFFCURVE",
"291 112 OFFCURVE",
"237 112 CURVE SMOOTH",
"191 112 OFFCURVE",
"133 136 OFFCURVE",
"90 163 CURVE",
"34 59 LINE"
);
}
);
width = 497;
},
{
associatedMasterId = "CC11FE7D-5FF0-4B40-9597-DFC61EB94F41";
layerId = "1F008150-273B-4B3D-B2DF-58D2B48285BD";
name = "Light Condensed Sep 13 15, 23:36";
paths = (
{
closed = 1;
nodes = (
"107 20 OFFCURVE",
"178 -7 OFFCURVE",
"245 -7 CURVE SMOOTH",
"337 -7 OFFCURVE",
"424 56 OFFCURVE",
"424 169 CURVE SMOOTH",
"424 378 OFFCURVE",
"129 349 OFFCURVE",
"129 517 CURVE SMOOTH",
"129 598 OFFCURVE",
"189 645 OFFCURVE",
"255 645 CURVE SMOOTH",
"302 645 OFFCURVE",
"356 626 OFFCURVE",
"399 597 CURVE",
"418 627 LINE",
"371 661 OFFCURVE",
"311 682 OFFCURVE",
"256 682 CURVE SMOOTH",
"166 682 OFFCURVE",
"85 628 OFFCURVE",
"85 517 CURVE SMOOTH",
"85 311 OFFCURVE",
"380 344 OFFCURVE",
"380 169 CURVE SMOOTH",
"380 89 OFFCURVE",
"316 30 OFFCURVE",
"248 30 CURVE SMOOTH",
"195 30 OFFCURVE",
"127 56 OFFCURVE",
"71 100 CURVE",
"50 67 LINE"
);
}
);
width = 474;
},
{
anchors = (
{
name = bottom;
position = "{237, 0}";
},
{
name = top;
position = "{255, 645}";
}
);
associatedMasterId = "CC11FE7D-5FF0-4B40-9597-DFC61EB94F41";
background = {
paths = (
{
closed = 1;
nodes = (
"105 17 OFFCURVE",
"174 -7 OFFCURVE",
"237 -7 CURVE SMOOTH",
"338 -7 OFFCURVE",
"424 53 OFFCURVE",
"424 169 CURVE SMOOTH",
"424 390 OFFCURVE",
"128 339 OFFCURVE",
"128 513 CURVE SMOOTH",
"128 598 OFFCURVE",
"197 645 OFFCURVE",
"266 645 CURVE SMOOTH",
"316 645 OFFCURVE",
"365 621 OFFCURVE",
"390 570 CURVE",
"426 588 LINE",
"398 652 OFFCURVE",
"335 682 OFFCURVE",
"270 682 CURVE SMOOTH",
"179 682 OFFCURVE",
"84 622 OFFCURVE",
"84 513 CURVE SMOOTH",
"84 301 OFFCURVE",
"380 356 OFFCURVE",
"380 169 CURVE SMOOTH",
"380 79 OFFCURVE",
"319 30 OFFCURVE",
"240 30 CURVE SMOOTH",
"187 30 OFFCURVE",
"128 53 OFFCURVE",
"71 97 CURVE",
"48 64 LINE"
);
}
);
};
layerId = "2D930455-B5A5-482A-8246-E344B1C15389";
name = "Light Condensed Nov 1 15, 18:21";
paths = (
{
closed = 1;
nodes = (
"105 17 OFFCURVE",
"174 -7 OFFCURVE",
"237 -7 CURVE SMOOTH",
"338 -7 OFFCURVE",
"424 53 OFFCURVE",
"424 169 CURVE SMOOTH",
"424 390 OFFCURVE",
"128 339 OFFCURVE",
"128 513 CURVE SMOOTH",
"128 598 OFFCURVE",
"197 645 OFFCURVE",
"266 645 CURVE SMOOTH",
"316 645 OFFCURVE",
"365 621 OFFCURVE",
"390 570 CURVE",
"426 588 LINE",
"398 652 OFFCURVE",
"335 682 OFFCURVE",
"270 682 CURVE SMOOTH",
"179 682 OFFCURVE",
"84 622 OFFCURVE",
"84 513 CURVE SMOOTH",
"84 301 OFFCURVE",
"380 356 OFFCURVE",
"380 169 CURVE SMOOTH",
"380 79 OFFCURVE",
"319 30 OFFCURVE",
"240 30 CURVE SMOOTH",
"187 30 OFFCURVE",
"128 53 OFFCURVE",
"71 97 CURVE",
"48 64 LINE"
);
}
);
width = 474;
},
{
anchors = (
{
name = bottom;
position = "{214, 0}";
},
{
name = top;
position = "{232, 645}";
}
);
background = {
paths = (
{
closed = 1;
nodes = (
"82 17 OFFCURVE",
"151 -7 OFFCURVE",
"214 -7 CURVE SMOOTH",
"315 -7 OFFCURVE",
"401 53 OFFCURVE",
"401 169 CURVE SMOOTH",
"401 390 OFFCURVE",
"105 339 OFFCURVE",
"105 513 CURVE SMOOTH",
"105 598 OFFCURVE",
"174 645 OFFCURVE",
"243 645 CURVE SMOOTH",
"293 645 OFFCURVE",
"342 621 OFFCURVE",
"367 570 CURVE",
"403 588 LINE",
"375 652 OFFCURVE",
"312 682 OFFCURVE",
"247 682 CURVE SMOOTH",
"156 682 OFFCURVE",
"61 622 OFFCURVE",
"61 513 CURVE SMOOTH",
"61 301 OFFCURVE",
"357 356 OFFCURVE",
"357 169 CURVE SMOOTH",
"357 79 OFFCURVE",
"296 30 OFFCURVE",
"217 30 CURVE SMOOTH",
"164 30 OFFCURVE",
"105 53 OFFCURVE",
"48 97 CURVE",
"25 64 LINE"
);
}
);
};
guideLines = (
{
angle = 90;
position = "{62, 313}";
}
);
layerId = "CC11FE7D-5FF0-4B40-9597-DFC61EB94F41";
paths = (
{
closed = 1;
nodes = (
"315 -7 OFFCURVE",
"401 53 OFFCURVE",
"401 169 CURVE SMOOTH",
"401 390 OFFCURVE",
"105 339 OFFCURVE",
"105 513 CURVE SMOOTH",
"105 598 OFFCURVE",
"174 645 OFFCURVE",
"243 645 CURVE SMOOTH",
"293 645 OFFCURVE",
"342 621 OFFCURVE",
"367 570 CURVE",
"403 588 LINE",
"375 652 OFFCURVE",
"312 682 OFFCURVE",
"247 682 CURVE SMOOTH",
"156 682 OFFCURVE",
"61 622 OFFCURVE",
"61 513 CURVE SMOOTH",
"61 301 OFFCURVE",
"357 356 OFFCURVE",
"357 169 CURVE SMOOTH",
"357 79 OFFCURVE",
"296 30 OFFCURVE",
"217 30 CURVE SMOOTH",
"170 30 OFFCURVE",
"118 48 OFFCURVE",
"67 83 CURVE",
"45 49 LINE",
"98 12 OFFCURVE",
"159 -7 OFFCURVE",
"214 -7 CURVE SMOOTH"
);
}
);
width = 451;
}
);
unicode = 0053;
},
{
glyphname = T;
lastChange = "2018-02-04 13:36:43 +0000";
layers = (
{
anchors = (
{
name = bottom;
position = "{212, 0}";
},
{
name = center;
position = "{212, 338}";
},
{
name = top;
position = "{212, 660}";
}
);
background = {
paths = (
{
closed = 1;
nodes = (
"143 675 LINE",
"143 0 LINE",
"275 0 LINE",
"275 675 LINE"
);
},
{
closed = 1;
nodes = (
"5 565 LINE",
"418 565 LINE",
"418 675 LINE",
"5 675 LINE"
);
}
);
};
layerId = "6114C541-D024-4A3E-9713-6FAF49EAB318";
paths = (
{
closed = 1;
nodes = (
"5 675 LINE",
"5 565 LINE",
"163 565 LINE",
"143 585 LINE",
"143 0 LINE",
"275 0 LINE",
"275 585 LINE",
"255 565 LINE",
"418 565 LINE",
"418 675 LINE"
);
}
);
width = 423;
},
{
associatedMasterId = "CC11FE7D-5FF0-4B40-9597-DFC61EB94F41";
background = {
paths = (
{
closed = 1;
nodes = (
"-9 675 LINE",
"-9 0 LINE",
"30 0 LINE",
"30 675 LINE"
);
},
{
closed = 1;
nodes = (
"437 0 LINE",
"437 675 LINE",
"398 675 LINE",
"398 0 LINE"
);
},
{
closed = 1;
nodes = (
"11 336 LINE",
"417 336 LINE",
"417 371 LINE",
"11 371 LINE"
);
}
);
};
layerId = "BA238F71-CFCB-4386-B2FF-BC55CC59251F";
name = "Light Condensed Sep 10 15, 19:50";
paths = (
{
closed = 1;
nodes = (
"193 675 LINE",
"193 0 LINE",
"232 0 LINE",
"232 675 LINE"
);
},
{
closed = 1;
nodes = (
"5 641 LINE",
"421 641 LINE",
"421 676 LINE",
"5 676 LINE"
);
}
);
width = 426;
},
{
associatedMasterId = "6114C541-D024-4A3E-9713-6FAF49EAB318";
background = {
paths = (
{
closed = 1;
nodes = (
"199 675 LINE",
"199 0 LINE",
"238 0 LINE",
"238 675 LINE"
);
},
{
closed = 1;
nodes = (
"31 641 LINE",
"407 641 LINE",
"407 676 LINE",
"31 676 LINE"
);
},
{
closed = 1;
nodes = (
"-31 675 LINE",
"-31 0 LINE",
"91 0 LINE",
"91 675 LINE"
);
},
{
closed = 1;
nodes = (
"466 0 LINE",
"466 675 LINE",
"344 675 LINE",
"344 0 LINE"
);
},
{
closed = 1;
nodes = (
"28 301 LINE",
"404 301 LINE",
"404 406 LINE",
"28 406 LINE"
);
}
);
};
layerId = "C1B7FFD2-B27F-4859-B47D-F7C1095DFB88";
name = "Bold Condensed Sep 10 15, 19:50";
paths = (
{
closed = 1;
nodes = (
"158 675 LINE",
"158 0 LINE",
"280 0 LINE",
"280 675 LINE"
);
},
{
closed = 1;
nodes = (
"5 570 LINE",
"433 570 LINE",
"433 675 LINE",
"5 675 LINE"
);
}
);
width = 438;
},
{
anchors = (
{
name = bottom;
position = "{204, 0}";
},
{
name = center;
position = "{204, 338}";
},
{
name = top;
position = "{204, 645}";
}
);
background = {
paths = (
{
closed = 1;
nodes = (
"184 675 LINE",
"184 0 LINE",
"223 0 LINE",
"223 675 LINE"
);
},
{
closed = 1;
nodes = (
"5 641 LINE",
"403 641 LINE",
"403 676 LINE",
"5 676 LINE"
);
}
);
};
layerId = "CC11FE7D-5FF0-4B40-9597-DFC61EB94F41";
paths = (
{
closed = 1;
nodes = (
"9 676 LINE",
"9 639 LINE",
"194 639 LINE",
"182 651 LINE",
"182 0 LINE",
"224 0 LINE",
"224 651 LINE",
"213 639 LINE",
"397 639 LINE",
"397 676 LINE"
);
}
);
width = 408;
}
);
unicode = 0054;
},
{
glyphname = Tcedilla;
lastChange = "2021-05-27 04:30:38 +0000";
layers = (
{
background = {
paths = (
{
closed = 1;
nodes = (
"140 -217 OFFCURVE",
"158 -219 OFFCURVE",
"174 -219 CURVE SMOOTH",
"276 -219 OFFCURVE",
"326 -160 OFFCURVE",
"326 -103 CURVE SMOOTH",
"326 -54 OFFCURVE",
"290 -5 OFFCURVE",
"218 5 CURVE",
"124 5 LINE",
"194 -11 OFFCURVE",
"228 -48 OFFCURVE",
"228 -78 CURVE SMOOTH",
"228 -105 OFFCURVE",
"203 -127 OFFCURVE",
"155 -127 CURVE SMOOTH",
"146 -127 OFFCURVE",
"135 -126 OFFCURVE",
"123 -124 CURVE",
"121 -214 LINE"
);
}
);
};
components = (
{
name = T;
}
);
layerId = "6114C541-D024-4A3E-9713-6FAF49EAB318";
paths = (
{
closed = 1;
nodes = (
"140 -217 OFFCURVE",
"158 -219 OFFCURVE",
"174 -219 CURVE SMOOTH",
"276 -219 OFFCURVE",
"326 -160 OFFCURVE",
"326 -103 CURVE SMOOTH",
"326 -60 OFFCURVE",
"308 -34 OFFCURVE",
"275 0 CURVE",
"143 0 LINE",
"206 -20 OFFCURVE",
"231 -51 OFFCURVE",
"231 -78 CURVE SMOOTH",
"231 -105 OFFCURVE",
"203 -127 OFFCURVE",
"155 -127 CURVE SMOOTH",
"146 -127 OFFCURVE",
"135 -126 OFFCURVE",
"123 -124 CURVE",
"121 -214 LINE"
);
}
);
width = 423;
},
{
background = {
paths = (
{
closed = 1;
nodes = (
"152 -187 OFFCURVE",
"164 -188 OFFCURVE",
"176 -188 CURVE SMOOTH",
"248 -188 OFFCURVE",
"285 -143 OFFCURVE",
"285 -96 CURVE SMOOTH",
"285 -54 OFFCURVE",
"256 -11 OFFCURVE",
"195 5 CURVE",
"154 5 LINE",
"221 -16 OFFCURVE",
"252 -57 OFFCURVE",
"252 -92 CURVE SMOOTH",
"252 -125 OFFCURVE",
"223 -154 OFFCURVE",
"170 -154 CURVE SMOOTH",
"160 -154 OFFCURVE",
"151 -153 OFFCURVE",
"140 -151 CURVE",
"138 -184 LINE"
);
}
);
};
components = (
{
name = T;
}
);
layerId = "CC11FE7D-5FF0-4B40-9597-DFC61EB94F41";
paths = (
{
closed = 1;
nodes = (
"152 -187 OFFCURVE",
"164 -188 OFFCURVE",
"176 -188 CURVE SMOOTH",
"248 -188 OFFCURVE",
"285 -143 OFFCURVE",
"285 -96 CURVE SMOOTH",
"285 -58 OFFCURVE",
"260 -23 OFFCURVE",
"224 0 CURVE",
"182 0 LINE",
"235 -32 OFFCURVE",
"252 -60 OFFCURVE",
"252 -92 CURVE SMOOTH",
"252 -125 OFFCURVE",
"223 -154 OFFCURVE",
"170 -154 CURVE SMOOTH",
"160 -154 OFFCURVE",
"151 -153 OFFCURVE",
"140 -151 CURVE",
"138 -184 LINE"
);
}
);
width = 408;
}
);
unicode = 0162;
},
{
glyphname = U;
lastChange = "2021-05-27 04:30:38 +0000";
layers = (
{
anchors = (
{
name = ogonek;
position = "{378, 10}";
},
{
name = top;
position = "{291, 660}";
}
);
background = {
paths = (
{
closed = 1;
nodes = (
"425 -15 OFFCURVE",
"536 75 OFFCURVE",
"536 266 CURVE SMOOTH",
"536 675 LINE",
"404 675 LINE",
"404 265 LINE SMOOTH",
"404 144 OFFCURVE",
"356 100 OFFCURVE",
"289 100 CURVE SMOOTH",
"224 100 OFFCURVE",
"177 139 OFFCURVE",
"177 255 CURVE SMOOTH",
"177 675 LINE",
"45 675 LINE",
"45 254 LINE SMOOTH",
"45 65 OFFCURVE",
"149 -15 OFFCURVE",
"285 -15 CURVE SMOOTH"
);
}
);
};
layerId = "6114C541-D024-4A3E-9713-6FAF49EAB318";
paths = (
{
closed = 1;
nodes = (
"430 -15 OFFCURVE",
"536 67 OFFCURVE",
"536 258 CURVE SMOOTH",
"536 675 LINE",
"404 675 LINE",
"404 265 LINE SMOOTH",
"404 143 OFFCURVE",
"361 100 OFFCURVE",
"289 100 CURVE SMOOTH",
"219 100 OFFCURVE",
"177 138 OFFCURVE",
"177 252 CURVE SMOOTH",
"177 675 LINE",
"45 675 LINE",
"45 257 LINE SMOOTH",
"45 68 OFFCURVE",
"135 -15 OFFCURVE",
"285 -15 CURVE SMOOTH"
);
}
);
width = 581;
},
{
associatedMasterId = "6114C541-D024-4A3E-9713-6FAF49EAB318";
background = {
paths = (
{
closed = 1;
nodes = (
"527 675 LINE",
"488 675 LINE",
"488 256 LINE SMOOTH",
"488 92 OFFCURVE",
"410 29 OFFCURVE",
"306 29 CURVE SMOOTH",
"208 29 OFFCURVE",
"124 96 OFFCURVE",
"124 256 CURVE SMOOTH",
"124 675 LINE",
"85 675 LINE",
"85 256 LINE SMOOTH",
"85 67 OFFCURVE",
"183 -8 OFFCURVE",
"306 -8 CURVE SMOOTH",
"424 -8 OFFCURVE",
"527 71 OFFCURVE",
"527 256 CURVE SMOOTH"
);
},
{
closed = 1;
nodes = (
"172 675 LINE",
"50 675 LINE",
"50 265 LINE SMOOTH",
"50 72 OFFCURVE",
"140 -15 OFFCURVE",
"296 -15 CURVE SMOOTH",
"448 -15 OFFCURVE",
"543 76 OFFCURVE",
"543 266 CURVE SMOOTH",
"543 675 LINE",
"421 675 LINE",
"421 265 LINE SMOOTH",
"421 143 OFFCURVE",
"369 95 OFFCURVE",
"297 95 CURVE SMOOTH",
"221 95 OFFCURVE",
"172 141 OFFCURVE",
"172 266 CURVE SMOOTH"
);
}
);
};
layerId = "ACDD2EDA-544A-4984-BF5A-BFAC0F08775F";
name = "Bold fino";
paths = (
{
closed = 1;
nodes = (
"427 -14 OFFCURVE",
"543 72 OFFCURVE",
"543 266 CURVE SMOOTH",
"543 675 LINE",
"421 675 LINE",
"421 265 LINE SMOOTH",
"421 139 OFFCURVE",
"372 95 OFFCURVE",
"297 95 CURVE SMOOTH",
"227 95 OFFCURVE",
"172 145 OFFCURVE",
"172 266 CURVE SMOOTH",
"172 675 LINE",
"50 675 LINE",
"50 265 LINE SMOOTH",
"50 66 OFFCURVE",
"160 -15 OFFCURVE",
"296 -15 CURVE SMOOTH"
);
}
);
width = 590;
},
{
associatedMasterId = "CC11FE7D-5FF0-4B40-9597-DFC61EB94F41";
background = {
paths = (
{
closed = 1;
nodes = (
"527 675 LINE",
"488 675 LINE",
"488 256 LINE SMOOTH",
"488 93 OFFCURVE",
"421 30 OFFCURVE",
"306 30 CURVE SMOOTH",
"189 30 OFFCURVE",
"124 91 OFFCURVE",
"124 256 CURVE SMOOTH",
"124 675 LINE",
"85 675 LINE",
"85 256 LINE SMOOTH",
"85 72 OFFCURVE",
"154 -7 OFFCURVE",
"306 -7 CURVE SMOOTH",
"442 -7 OFFCURVE",
"527 74 OFFCURVE",
"527 256 CURVE SMOOTH"
);
}
);
};
layerId = "0AB3E0C4-C7CD-4D0F-B594-A15C43FC26D6";
name = "Light Condensed Sep 10 15, 19:52";
paths = (
{
closed = 1;
nodes = (
"424 -8 OFFCURVE",
"527 71 OFFCURVE",
"527 256 CURVE SMOOTH",
"527 675 LINE",
"488 675 LINE",
"488 256 LINE SMOOTH",
"488 92 OFFCURVE",
"410 29 OFFCURVE",
"306 29 CURVE SMOOTH",
"208 29 OFFCURVE",
"124 96 OFFCURVE",
"124 256 CURVE SMOOTH",
"124 675 LINE",
"85 675 LINE",
"85 256 LINE SMOOTH",
"85 67 OFFCURVE",
"183 -8 OFFCURVE",
"306 -8 CURVE SMOOTH"
);
}
);
width = 612;
},
{
anchors = (
{
name = ogonek;
position = "{363, 5}";
},
{
name = top;
position = "{301, 675}";
}
);
associatedMasterId = "CC11FE7D-5FF0-4B40-9597-DFC61EB94F41";
background = {
paths = (
{
closed = 1;
nodes = (
"522 675 LINE",
"483 675 LINE",
"483 256 LINE SMOOTH",
"483 93 OFFCURVE",
"416 30 OFFCURVE",
"301 30 CURVE SMOOTH",
"184 30 OFFCURVE",
"119 91 OFFCURVE",
"119 256 CURVE SMOOTH",
"119 675 LINE",
"80 675 LINE",
"80 256 LINE SMOOTH",
"80 72 OFFCURVE",
"149 -7 OFFCURVE",
"301 -7 CURVE SMOOTH",
"437 -7 OFFCURVE",
"522 74 OFFCURVE",
"522 256 CURVE SMOOTH"
);
}
);
};
layerId = "6BF95AB9-5824-4881-AAB1-BA9CFB25692D";
name = "Light Condensed Oct 21 15, 10:03";
paths = (
{
closed = 1;
nodes = (
"414 -8 OFFCURVE",
"517 69 OFFCURVE",
"517 254 CURVE SMOOTH",
"517 675 LINE",
"475 675 LINE",
"475 254 LINE SMOOTH",
"475 91 OFFCURVE",
"397 31 OFFCURVE",
"301 31 CURVE SMOOTH",
"211 31 OFFCURVE",
"127 95 OFFCURVE",
"127 254 CURVE SMOOTH",
"127 675 LINE",
"85 675 LINE",
"85 254 LINE SMOOTH",
"85 65 OFFCURVE",
"183 -8 OFFCURVE",
"301 -8 CURVE SMOOTH"
);
}
);
width = 602;
},
{
anchors = (
{
name = ogonek;
position = "{363, 5}";
},
{
name = top;
position = "{301, 645}";
}
);
layerId = "CC11FE7D-5FF0-4B40-9597-DFC61EB94F41";
paths = (
{
closed = 1;
nodes = (
"425 -8 OFFCURVE",
"517 71 OFFCURVE",
"517 235 CURVE SMOOTH",
"517 675 LINE",
"475 675 LINE",
"475 235 LINE SMOOTH",
"475 91 OFFCURVE",
"406 31 OFFCURVE",
"298 31 CURVE SMOOTH",
"208 31 OFFCURVE",
"127 80 OFFCURVE",
"127 249 CURVE SMOOTH",
"127 675 LINE",
"85 675 LINE",
"85 249 LINE SMOOTH",
"85 60 OFFCURVE",
"179 -8 OFFCURVE",
"300 -8 CURVE SMOOTH"
);
}
);
width = 602;
}
);
unicode = 0055;
},
{
glyphname = V;
lastChange = "2018-02-04 13:36:43 +0000";
layers = (
{
background = {
paths = (
{
closed = 1;
nodes = (
"354 0 LINE",
"560 675 LINE",
"439 675 LINE",
"336 303 LINE SMOOTH",
"321 250 OFFCURVE",
"286 112 OFFCURVE",
"272 58 CURVE",
"294 58 LINE",
"280 111 OFFCURVE",
"248 245 OFFCURVE",
"234 297 CURVE SMOOTH",
"129 675 LINE",
"-2 675 LINE",
"205 0 LINE"
);
}
);
};
layerId = "6114C541-D024-4A3E-9713-6FAF49EAB318";
paths = (
{
closed = 1;
nodes = (
"364 0 LINE",
"558 675 LINE",
"419 675 LINE",
"321 312 LINE SMOOTH",
"304 250 OFFCURVE",
"280 122 OFFCURVE",
"267 58 CURVE",
"296 58 LINE",
"286 121 OFFCURVE",
"258 246 OFFCURVE",
"242 307 CURVE SMOOTH",
"143 675 LINE",
"0 675 LINE",
"192 0 LINE"
);
}
);
width = 558;
},
{
background = {
paths = (
{
closed = 1;
nodes = (
"281 0 LINE",
"501 675 LINE",
"456 675 LINE",
"303 199 LINE SMOOTH",
"285 143 OFFCURVE",
"270 86 OFFCURVE",
"254 26 CURVE",
"260 26 LINE",
"245 78 OFFCURVE",
"226 143 OFFCURVE",
"208 201 CURVE SMOOTH",
"61 675 LINE",
"12 675 LINE",
"227 0 LINE"
);
}
);
};
guideLines = (
{
position = "{261, 201}";
}
);
layerId = "CC11FE7D-5FF0-4B40-9597-DFC61EB94F41";
paths = (
{
closed = 1;
nodes = (
"281 0 LINE",
"501 675 LINE",
"458 675 LINE",
"305 199 LINE SMOOTH",
"287 143 OFFCURVE",
"270 86 OFFCURVE",
"254 26 CURVE",
"260 26 LINE",
"245 78 OFFCURVE",
"224 143 OFFCURVE",
"206 201 CURVE SMOOTH",
"59 675 LINE",
"12 675 LINE",
"227 0 LINE"
);
}
);
width = 513;
}
);
unicode = 0056;
},
{
glyphname = W;
lastChange = "2021-05-27 04:30:38 +0000";
layers = (
{
background = {
paths = (
{
closed = 1;
nodes = (
"351 650 LINE",
"254 310 LINE SMOOTH",
"238 253 OFFCURVE",
"228 187 OFFCURVE",
"211 130 CURVE",
"225 130 LINE",
"213 186 OFFCURVE",
"207 251 OFFCURVE",
"194 307 CURVE SMOOTH",
"109 675 LINE",
"-24 675 LINE",
"146 0 LINE",
"280 0 LINE",
"387 363 LINE SMOOTH",
"404 420 OFFCURVE",
"414 467 OFFCURVE",
"425 521 CURVE",
"405 521 LINE",
"418 466 OFFCURVE",
"425 422 OFFCURVE",
"440 366 CURVE SMOOTH",
"540 0 LINE",
"669 0 LINE",
"854 675 LINE",
"726 675 LINE",
"639 310 LINE SMOOTH",
"625 253 OFFCURVE",
"616 187 OFFCURVE",
"599 130 CURVE",
"615 130 LINE",
"603 186 OFFCURVE",
"592 251 OFFCURVE",
"577 307 CURVE SMOOTH",
"484 650 LINE"
);
}
);
};
guideLines = (
{
position = "{435, 106}";
}
);
layerId = "6114C541-D024-4A3E-9713-6FAF49EAB318";
paths = (
{
closed = 1;
nodes = (
"302 0 LINE",
"401 363 LINE SMOOTH",
"417 421 OFFCURVE",
"424 467 OFFCURVE",
"433 521 CURVE",
"407 521 LINE",
"417 466 OFFCURVE",
"423 422 OFFCURVE",
"438 366 CURVE SMOOTH",
"534 0 LINE",
"647 0 LINE",
"820 675 LINE",
"691 675 LINE",
"615 310 LINE SMOOTH",
"603 253 OFFCURVE",
"596 177 OFFCURVE",
"583 120 CURVE",
"605 120 LINE",
"598 176 OFFCURVE",
"589 251 OFFCURVE",
"575 307 CURVE SMOOTH",
"487 654 LINE",
"360 650 LINE",
"274 310 LINE SMOOTH",
"260 253 OFFCURVE",
"252 177 OFFCURVE",
"240 120 CURVE",
"260 120 LINE",
"252 176 OFFCURVE",
"248 251 OFFCURVE",
"236 307 CURVE SMOOTH",
"157 675 LINE",
"20 675 LINE",
"185 0 LINE"
);
}
);
width = 840;
},
{
associatedMasterId = "6114C541-D024-4A3E-9713-6FAF49EAB318";
background = {
paths = (
{
closed = 1;
nodes = (
"392 675 LINE",
"295 310 LINE SMOOTH",
"280 253 OFFCURVE",
"269 187 OFFCURVE",
"252 130 CURVE",
"274 130 LINE",
"262 186 OFFCURVE",
"250 251 OFFCURVE",
"236 307 CURVE SMOOTH",
"143 675 LINE",
"10 675 LINE",
"198 0 LINE",
"319 0 LINE",
"428 363 LINE SMOOTH",
"445 420 OFFCURVE",
"455 487 OFFCURVE",
"466 541 CURVE",
"443 541 LINE",
"456 486 OFFCURVE",
"462 422 OFFCURVE",
"478 366 CURVE SMOOTH",
"580 0 LINE",
"696 0 LINE",
"899 675 LINE",
"771 675 LINE",
"674 310 LINE SMOOTH",
"659 253 OFFCURVE",
"648 187 OFFCURVE",
"631 130 CURVE",
"653 130 LINE",
"641 186 OFFCURVE",
"629 251 OFFCURVE",
"615 307 CURVE SMOOTH",
"522 675 LINE"
);
}
);
};
guideLines = (
{
position = "{476, 106}";
}
);
layerId = "FD899096-F043-4658-8A6B-BC0413C92D66";
name = "Bold Condensed Sep 11 15, 20:06";
paths = (
{
closed = 1;
nodes = (
"382 675 LINE",
"285 310 LINE SMOOTH",
"258 208 OFFCURVE",
"254 127 OFFCURVE",
"237 70 CURVE",
"259 70 LINE",
"247 126 OFFCURVE",
"235 206 OFFCURVE",
"211 307 CURVE SMOOTH",
"123 675 LINE",
"-10 675 LINE",
"173 0 LINE",
"309 0 LINE",
"418 363 LINE SMOOTH",
"453 479 OFFCURVE",
"455 552 OFFCURVE",
"466 606 CURVE",
"443 606 LINE",
"456 551 OFFCURVE",
"456 481 OFFCURVE",
"488 366 CURVE SMOOTH",
"590 0 LINE",
"721 0 LINE",
"919 675 LINE",
"791 675 LINE",
"699 310 LINE SMOOTH",
"673 208 OFFCURVE",
"663 127 OFFCURVE",
"646 70 CURVE",
"668 70 LINE",
"656 126 OFFCURVE",
"651 206 OFFCURVE",
"625 307 CURVE SMOOTH",
"532 675 LINE"
);
}
);
width = 909;
},
{
associatedMasterId = "6114C541-D024-4A3E-9713-6FAF49EAB318";
background = {
paths = (
{
closed = 1;
nodes = (
"392 675 LINE",
"295 310 LINE SMOOTH",
"280 253 OFFCURVE",
"269 187 OFFCURVE",
"252 130 CURVE",
"274 130 LINE",
"262 186 OFFCURVE",
"250 251 OFFCURVE",
"236 307 CURVE SMOOTH",
"143 675 LINE",
"10 675 LINE",
"198 0 LINE",
"319 0 LINE",
"428 363 LINE SMOOTH",
"445 420 OFFCURVE",
"455 487 OFFCURVE",
"466 541 CURVE",
"443 541 LINE",
"456 486 OFFCURVE",
"462 422 OFFCURVE",
"478 366 CURVE SMOOTH",
"580 0 LINE",
"696 0 LINE",
"899 675 LINE",
"771 675 LINE",
"674 310 LINE SMOOTH",
"659 253 OFFCURVE",
"648 187 OFFCURVE",
"631 130 CURVE",
"653 130 LINE",
"641 186 OFFCURVE",
"629 251 OFFCURVE",
"615 307 CURVE SMOOTH",
"522 675 LINE"
);
}
);
};
guideLines = (
{
position = "{476, 106}";
}
);
layerId = "D2A3003F-BB6E-4113-A628-02CAECD56042";
name = "Bold cerrada";
paths = (
{
closed = 1;
nodes = (
"391 614 LINE",
"303 310 LINE SMOOTH",
"277 220 OFFCURVE",
"256 112 OFFCURVE",
"239 35 CURVE",
"272 30 LINE",
"260 106 OFFCURVE",
"263 216 OFFCURVE",
"244 307 CURVE SMOOTH",
"167 675 LINE",
"31 675 LINE",
"178 0 LINE",
"327 0 LINE",
"431 365 LINE SMOOTH",
"446 418 OFFCURVE",
"460 511 OFFCURVE",
"471 565 CURVE",
"435 565 LINE",
"448 510 OFFCURVE",
"459 420 OFFCURVE",
"473 368 CURVE SMOOTH",
"573 0 LINE",
"718 0 LINE",
"874 675 LINE",
"744 675 LINE",
"668 310 LINE SMOOTH",
"646 206 OFFCURVE",
"646 102 OFFCURVE",
"629 35 CURVE",
"661 35 LINE",
"649 101 OFFCURVE",
"636 207 OFFCURVE",
"609 307 CURVE SMOOTH",
"525 618 LINE"
);
}
);
width = 909;
},
{
associatedMasterId = "CC11FE7D-5FF0-4B40-9597-DFC61EB94F41";
background = {
paths = (
{
closed = 1;
nodes = (
"304 650 LINE",
"213 310 LINE SMOOTH",
"198 253 OFFCURVE",
"189 187 OFFCURVE",
"173 130 CURVE",
"203 130 LINE",
"192 186 OFFCURVE",
"185 251 OFFCURVE",
"173 307 CURVE SMOOTH",
"91 675 LINE",
"-46 675 LINE",
"118 0 LINE",
"245 0 LINE",
"346 363 LINE SMOOTH",
"362 420 OFFCURVE",
"371 467 OFFCURVE",
"382 521 CURVE",
"356 521 LINE",
"369 466 OFFCURVE",
"376 422 OFFCURVE",
"391 366 CURVE SMOOTH",
"487 0 LINE",
"610 0 LINE",
"784 675 LINE",
"655 675 LINE",
"573 310 LINE SMOOTH",
"560 253 OFFCURVE",
"552 187 OFFCURVE",
"536 130 CURVE",
"568 130 LINE",
"557 186 OFFCURVE",
"546 251 OFFCURVE",
"531 307 CURVE SMOOTH",
"442 650 LINE"
);
},
{
closed = 0;
nodes = (
"23 675 LINE",
"182 0 LINE",
"373 641 LINE",
"549 0 LINE",
"720 675 LINE"
);
}
);
};
guideLines = (
{
position = "{261, 443}";
},
{
position = "{261, 201}";
}
);
layerId = "B4E65C23-1A04-4BE4-9E10-A1FFD44A2995";
name = "Light Condensed Sep 15 15, 20:42";
paths = (
{
closed = 1;
nodes = (
"211 0 LINE",
"338 443 LINE SMOOTH",
"351 488 OFFCURVE",
"367 561 OFFCURVE",
"376 605 CURVE",
"369 605 LINE",
"378 561 OFFCURVE",
"392 488 OFFCURVE",
"404 443 CURVE SMOOTH",
"522 0 LINE",
"567 0 LINE",
"727 675 LINE",
"685 675 LINE",
"573 201 LINE SMOOTH",
"562 156 OFFCURVE",
"550 77 OFFCURVE",
"541 32 CURVE",
"550 32 LINE",
"541 76 OFFCURVE",
"526 156 OFFCURVE",
"514 200 CURVE SMOOTH",
"392 652 LINE",
"355 650 LINE",
"226 201 LINE SMOOTH",
"212 154 OFFCURVE",
"197 75 OFFCURVE",
"187 30 CURVE",
"195 30 LINE",
"187 75 OFFCURVE",
"175 154 OFFCURVE",
"165 199 CURVE SMOOTH",
"60 675 LINE",
"15 675 LINE",
"165 0 LINE"
);
}
);
width = 742;
},
{
background = {
paths = (
{
closed = 1;
nodes = (
"211 0 LINE",
"338 443 LINE SMOOTH",
"351 488 OFFCURVE",
"367 561 OFFCURVE",
"376 605 CURVE",
"369 605 LINE",
"378 561 OFFCURVE",
"392 488 OFFCURVE",
"404 443 CURVE SMOOTH",
"522 0 LINE",
"567 0 LINE",
"727 675 LINE",
"685 675 LINE",
"573 201 LINE SMOOTH",
"562 156 OFFCURVE",
"550 77 OFFCURVE",
"541 32 CURVE",
"550 32 LINE",
"541 76 OFFCURVE",
"526 156 OFFCURVE",
"514 200 CURVE SMOOTH",
"392 652 LINE",
"355 650 LINE",
"226 201 LINE SMOOTH",
"212 154 OFFCURVE",
"197 75 OFFCURVE",
"187 30 CURVE",
"195 30 LINE",
"187 75 OFFCURVE",
"175 154 OFFCURVE",
"165 199 CURVE SMOOTH",
"60 675 LINE",
"15 675 LINE",
"165 0 LINE"
);
}
);
};
guideLines = (
{
position = "{261, 443}";
},
{
position = "{261, 201}";
}
);
layerId = "CC11FE7D-5FF0-4B40-9597-DFC61EB94F41";
paths = (
{
closed = 1;
nodes = (
"211 0 LINE",
"338 443 LINE SMOOTH",
"351 488 OFFCURVE",
"367 561 OFFCURVE",
"376 605 CURVE",
"369 605 LINE",
"378 561 OFFCURVE",
"392 488 OFFCURVE",
"404 443 CURVE SMOOTH",
"522 0 LINE",
"567 0 LINE",
"727 675 LINE",
"686 675 LINE",
"574 201 LINE SMOOTH",
"563 156 OFFCURVE",
"550 77 OFFCURVE",
"541 32 CURVE",
"550 32 LINE",
"541 76 OFFCURVE",
"525 156 OFFCURVE",
"513 200 CURVE SMOOTH",
"391 652 LINE",
"356 650 LINE",
"227 201 LINE SMOOTH",
"213 154 OFFCURVE",
"197 75 OFFCURVE",
"187 30 CURVE",
"195 30 LINE",
"187 75 OFFCURVE",
"174 154 OFFCURVE",
"164 199 CURVE SMOOTH",
"59 675 LINE",
"15 675 LINE",
"165 0 LINE"
);
}
);
width = 742;
}
);
unicode = 0057;
},
{
glyphname = X;
lastChange = "2021-05-27 04:30:38 +0000";
layers = (
{
background = {
paths = (
{
closed = 1;
nodes = (
"269 337 LINE",
"465 35 LINE SMOOTH",
"489 -2 OFFCURVE",
"505 -7 OFFCURVE",
"537 -7 CURVE",
"537 28 LINE",
"521 28 OFFCURVE",
"514 34 OFFCURVE",
"500 55 CURVE SMOOTH",
"294 367 LINE",
"94 675 LINE",
"48 675 LINE"
);
},
{
closed = 1;
nodes = (
"513 675 LINE",
"469 675 LINE",
"277 368 LINE",
"263 361 LINE",
"33 0 LINE",
"77 0 LINE",
"288 333 LINE",
"302 340 LINE"
);
}
);
};
layerId = "6114C541-D024-4A3E-9713-6FAF49EAB318";
paths = (
{
closed = 1;
nodes = (
"564 95 LINE",
"536 94 OFFCURVE",
"521 100 OFFCURVE",
"505 125 CURVE SMOOTH",
"329 397 LINE",
"163 675 LINE",
"10 675 LINE",
"252 292 LINE",
"392 70 LINE SMOOTH",
"432 7 OFFCURVE",
"469 -15 OFFCURVE",
"519 -15 CURVE SMOOTH",
"534 -15 OFFCURVE",
"551 -13 OFFCURVE",
"569 -9 CURVE"
);
},
{
closed = 1;
nodes = (
"153 0 LINE",
"307 276 LINE",
"353 308 LINE",
"561 675 LINE",
"431 675 LINE",
"280 416 LINE",
"239 384 LINE",
"5 0 LINE"
);
}
);
width = 569;
},
{
associatedMasterId = "CC11FE7D-5FF0-4B40-9597-DFC61EB94F41";
background = {
paths = (
{
closed = 0;
nodes = (
"34 674 LINE",
"457 45 LINE SMOOTH",
"475 18 OFFCURVE",
"484 10 OFFCURVE",
"515 10 CURVE"
);
},
{
closed = 0;
nodes = (
"470 675 LINE",
"51 0 LINE"
);
}
);
};
layerId = "C3F4B6B8-7DF5-46DD-B77E-5277F38F9717";
name = "Light Condensed Sep 16 15, 08:36";
paths = (
{
closed = 1;
nodes = (
"512 28 LINE",
"496 28 OFFCURVE",
"489 34 OFFCURVE",
"475 55 CURVE SMOOTH",
"269 367 LINE",
"69 675 LINE",
"22 675 LINE",
"243 337 LINE",
"439 35 LINE SMOOTH",
"463 -2 OFFCURVE",
"480 -7 OFFCURVE",
"512 -7 CURVE"
);
},
{
closed = 1;
nodes = (
"52 0 LINE",
"263 333 LINE",
"277 340 LINE",
"488 675 LINE",
"443 675 LINE",
"251 368 LINE",
"237 361 LINE",
"7 0 LINE"
);
}
);
width = 519;
},
{
background = {
paths = (
{
closed = 0;
nodes = (
"34 674 LINE",
"457 45 LINE SMOOTH",
"475 18 OFFCURVE",
"484 10 OFFCURVE",
"515 10 CURVE"
);
},
{
closed = 0;
nodes = (
"470 675 LINE",
"51 0 LINE"
);
}
);
};
layerId = "CC11FE7D-5FF0-4B40-9597-DFC61EB94F41";
paths = (
{
closed = 1;
nodes = (
"512 28 LINE",
"495 26 OFFCURVE",
"489 34 OFFCURVE",
"475 55 CURVE SMOOTH",
"269 367 LINE",
"69 675 LINE",
"22 675 LINE",
"243 337 LINE",
"439 35 LINE SMOOTH",
"458 6 OFFCURVE",
"474 -6 OFFCURVE",
"495 -6 CURVE SMOOTH",
"502 -6 OFFCURVE",
"508 -5 OFFCURVE",
"515 -3 CURVE"
);
},
{
closed = 1;
nodes = (
"52 0 LINE",
"263 333 LINE",
"277 340 LINE",
"488 675 LINE",
"443 675 LINE",
"251 368 LINE",
"237 361 LINE",
"7 0 LINE"
);
}
);
width = 519;
}
);
unicode = 0058;
},
{
glyphname = Y;
lastChange = "2021-05-27 04:30:38 +0000";
layers = (
{
anchors = (
{
name = top;
position = "{275, 660}";
}
);
layerId = "6114C541-D024-4A3E-9713-6FAF49EAB318";
paths = (
{
closed = 1;
nodes = (
"338 0 LINE",
"338 253 LINE",
"547 675 LINE",
"406 675 LINE",
"318 478 LINE SMOOTH",
"293 423 OFFCURVE",
"276 367 OFFCURVE",
"254 312 CURVE",
"295 312 LINE",
"274 367 OFFCURVE",
"256 423 OFFCURVE",
"231 478 CURVE SMOOTH",
"142 675 LINE",
"1 675 LINE",
"206 254 LINE",
"206 0 LINE"
);
}
);
width = 548;
},
{
anchors = (
{
name = top;
position = "{225, 645}";
}
);
background = {
paths = (
{
closed = 1;
nodes = (
"242 0 LINE",
"242 255 LINE",
"448 675 LINE",
"405 675 LINE",
"286 429 LINE SMOOTH",
"262 379 OFFCURVE",
"239 331 OFFCURVE",
"219 279 CURVE",
"228 279 LINE",
"209 327 OFFCURVE",
"187 379 OFFCURVE",
"162 431 CURVE SMOOTH",
"46 675 LINE",
"1 675 LINE",
"200 256 LINE",
"200 0 LINE"
);
}
);
};
layerId = "CC11FE7D-5FF0-4B40-9597-DFC61EB94F41";
paths = (
{
closed = 1;
nodes = (
"242 0 LINE",
"242 255 LINE",
"448 675 LINE",
"404 675 LINE",
"285 429 LINE SMOOTH",
"259 376 OFFCURVE",
"240 333 OFFCURVE",
"219 281 CURVE",
"228 281 LINE",
"209 329 OFFCURVE",
"189 376 OFFCURVE",
"163 431 CURVE SMOOTH",
"47 675 LINE",
"1 675 LINE",
"200 256 LINE",
"200 0 LINE"
);
}
);
width = 448;
}
);
unicode = 0059;
},
{
glyphname = Z;
lastChange = "2018-02-04 13:36:43 +0000";
layers = (
{
anchors = (
{
name = top;
position = "{245, 660}";
}
);
layerId = "6114C541-D024-4A3E-9713-6FAF49EAB318";
paths = (
{
closed = 1;
nodes = (
"174 116 LINE",
"455 564 LINE",
"456 675 LINE",
"35 675 LINE",
"35 561 LINE",
"308 561 LINE",
"25 107 LINE",
"25 0 LINE",
"456 0 LINE",
"456 116 LINE"
);
}
);
width = 481;
},
{
anchors = (
{
name = top;
position = "{238, 645}";
}
);
background = {
paths = (
{
closed = 1;
nodes = (
"167 116 LINE",
"448 564 LINE",
"449 675 LINE",
"28 675 LINE",
"28 561 LINE",
"301 561 LINE",
"18 107 LINE",
"18 0 LINE",
"449 0 LINE",
"449 116 LINE"
);
}
);
};
layerId = "CC11FE7D-5FF0-4B40-9597-DFC61EB94F41";
paths = (
{
closed = 1;
nodes = (
"82 40 LINE",
"435 640 LINE",
"435 676 LINE",
"41 676 LINE",
"41 637 LINE",
"388 637 LINE",
"33 37 LINE",
"33 0 LINE",
"431 0 LINE",
"431 40 LINE"
);
}
);
width = 468;
}
);
unicode = 005A;
},
{
glyphname = a;
lastChange = "2021-05-27 04:30:38 +0000";
layers = (
{
anchors = (
{
name = ogonek;
position = "{447, 10}";
},
{
name = top;
position = "{222, 500}";
}
);
background = {
paths = (
{
closed = 1;
nodes = (
"290 18 OFFCURVE",
"333 -15 OFFCURVE",
"396 -15 CURVE SMOOTH",
"413 -15 OFFCURVE",
"432 -13 OFFCURVE",
"452 -8 CURVE",
"448 87 LINE",
"443 86 OFFCURVE",
"438 86 OFFCURVE",
"434 86 CURVE SMOOTH",
"408 86 OFFCURVE",
"399 100 OFFCURVE",
"399 133 CURVE SMOOTH",
"399 336 LINE SMOOTH",
"399 455 OFFCURVE",
"324 514 OFFCURVE",
"217 514 CURVE SMOOTH",
"158 514 OFFCURVE",
"88 492 OFFCURVE",
"31 457 CURVE",
"73 368 LINE",
"111 389 OFFCURVE",
"154 406 OFFCURVE",
"194 406 CURVE SMOOTH",
"239 406 OFFCURVE",
"269 385 OFFCURVE",
"269 331 CURVE SMOOTH",
"269 196 LINE SMOOTH",
"269 118 OFFCURVE",
"248 89 OFFCURVE",
"198 89 CURVE SMOOTH",
"168 89 OFFCURVE",
"146 110 OFFCURVE",
"146 142 CURVE SMOOTH",
"146 196 OFFCURVE",
"176 221 OFFCURVE",
"240 221 CURVE SMOOTH",
"273 221 OFFCURVE",
"298 219 OFFCURVE",
"327 214 CURVE",
"327 299 LINE",
"300 304 OFFCURVE",
"255 306 OFFCURVE",
"232 306 CURVE SMOOTH",
"98 306 OFFCURVE",
"15 244 OFFCURVE",
"15 142 CURVE SMOOTH",
"15 41 OFFCURVE",
"93 -15 OFFCURVE",
"172 -15 CURVE SMOOTH",
"234 -15 OFFCURVE",
"295 21 OFFCURVE",
"311 100 CURVE",
"290 100 LINE"
);
}
);
};
layerId = "6114C541-D024-4A3E-9713-6FAF49EAB318";
paths = (
{
closed = 1;
nodes = (
"290 18 OFFCURVE",
"333 -15 OFFCURVE",
"396 -15 CURVE SMOOTH",
"413 -15 OFFCURVE",
"432 -13 OFFCURVE",
"452 -8 CURVE",
"448 87 LINE",
"443 86 OFFCURVE",
"438 86 OFFCURVE",
"434 86 CURVE SMOOTH",
"408 86 OFFCURVE",
"399 100 OFFCURVE",
"399 133 CURVE SMOOTH",
"399 336 LINE SMOOTH",
"399 455 OFFCURVE",
"330 514 OFFCURVE",
"226 514 CURVE SMOOTH",
"163 514 OFFCURVE",
"87 494 OFFCURVE",
"30 460 CURVE",
"73 366 LINE",
"116 389 OFFCURVE",
"160 406 OFFCURVE",
"195 406 CURVE SMOOTH",
"239 406 OFFCURVE",
"269 384 OFFCURVE",
"269 331 CURVE SMOOTH",
"269 196 LINE SMOOTH",
"269 118 OFFCURVE",
"248 89 OFFCURVE",
"198 89 CURVE SMOOTH",
"168 89 OFFCURVE",
"146 110 OFFCURVE",
"146 142 CURVE SMOOTH",
"146 196 OFFCURVE",
"176 221 OFFCURVE",
"240 221 CURVE SMOOTH",
"273 221 OFFCURVE",
"298 219 OFFCURVE",
"327 214 CURVE",
"327 299 LINE",
"300 304 OFFCURVE",
"255 306 OFFCURVE",
"232 306 CURVE SMOOTH",
"98 306 OFFCURVE",
"15 244 OFFCURVE",
"15 142 CURVE SMOOTH",
"15 41 OFFCURVE",
"88 -15 OFFCURVE",
"168 -15 CURVE SMOOTH",
"230 -15 OFFCURVE",
"295 21 OFFCURVE",
"311 100 CURVE",
"290 100 LINE"
);
}
);
width = 457;
},
{
associatedMasterId = "CC11FE7D-5FF0-4B40-9597-DFC61EB94F41";
background = {
paths = (
{
closed = 0;
nodes = (
"77 435 LINE",
"140 470 OFFCURVE",
"174 475 OFFCURVE",
"218 475 CURVE SMOOTH",
"276 475 OFFCURVE",
"332 445 OFFCURVE",
"332 369 CURVE SMOOTH",
"332 306 OFFCURVE",
"330 101 OFFCURVE",
"330 101 CURVE",
"330 43 OFFCURVE",
"341 21 OFFCURVE",
"420 21 CURVE"
);
},
{
closed = 0;
nodes = (
"325 268 LINE",
"171 268 OFFCURVE",
"74 249 OFFCURVE",
"74 134 CURVE SMOOTH",
"74 45 OFFCURVE",
"131 19 OFFCURVE",
"190 19 CURVE SMOOTH",
"252 19 OFFCURVE",
"299 65 OFFCURVE",
"329 112 CURVE"
);
},
{
closed = 1;
nodes = (
"360 26 OFFCURVE",
"348 32 OFFCURVE",
"350 103 CURVE SMOOTH",
"350 384 LINE SMOOTH",
"351 466 OFFCURVE",
"291 508 OFFCURVE",
"214 508 CURVE SMOOTH",
"168 508 OFFCURVE",
"116 483 OFFCURVE",
"68 454 CURVE",
"86 427 LINE",
"128 451 OFFCURVE",
"174 474 OFFCURVE",
"213 474 CURVE SMOOTH",
"269 474 OFFCURVE",
"312 446 OFFCURVE",
"312 381 CURVE SMOOTH",
"312 101 LINE SMOOTH",
"312 15 OFFCURVE",
"337 -7 OFFCURVE",
"420 -7 CURVE",
"420 26 LINE"
);
},
{
closed = 1;
nodes = (
"292 55 OFFCURVE",
"243 24 OFFCURVE",
"196 24 CURVE SMOOTH",
"139 24 OFFCURVE",
"95 63 OFFCURVE",
"95 141 CURVE SMOOTH",
"95 221 OFFCURVE",
"153 263 OFFCURVE",
"325 263 CURVE",
"325 293 LINE",
"159 293 OFFCURVE",
"55 251 OFFCURVE",
"55 141 CURVE SMOOTH",
"55 44 OFFCURVE",
"114 -7 OFFCURVE",
"189 -7 CURVE SMOOTH",
"244 -7 OFFCURVE",
"303 26 OFFCURVE",
"334 96 CURVE",
"313 117 LINE"
);
}
);
};
layerId = "C67DF83B-54C0-4C98-BCB8-D29C4D2F3407";
name = "Light Condensed Aug 31 15, 11:21";
paths = (
{
closed = 1;
nodes = (
"360 26 OFFCURVE",
"350 43 OFFCURVE",
"350 103 CURVE SMOOTH",
"350 374 LINE SMOOTH",
"350 466 OFFCURVE",
"296 508 OFFCURVE",
"219 508 CURVE SMOOTH",
"161 508 OFFCURVE",
"110 483 OFFCURVE",
"68 455 CURVE",
"86 427 LINE",
"124 451 OFFCURVE",
"164 474 OFFCURVE",
"218 474 CURVE SMOOTH",
"275 474 OFFCURVE",
"312 440 OFFCURVE",
"312 371 CURVE SMOOTH",
"312 101 LINE SMOOTH",
"312 18 OFFCURVE",
"337 -7 OFFCURVE",
"420 -7 CURVE",
"420 26 LINE"
);
},
{
closed = 1;
nodes = (
"292 60 OFFCURVE",
"243 24 OFFCURVE",
"196 24 CURVE SMOOTH",
"139 24 OFFCURVE",
"95 63 OFFCURVE",
"95 142 CURVE SMOOTH",
"95 221 OFFCURVE",
"153 283 OFFCURVE",
"325 253 CURVE",
"325 283 LINE",
"159 313 OFFCURVE",
"55 251 OFFCURVE",
"55 142 CURVE SMOOTH",
"55 44 OFFCURVE",
"114 -7 OFFCURVE",
"189 -7 CURVE SMOOTH",
"244 -7 OFFCURVE",
"303 26 OFFCURVE",
"334 96 CURVE",
"313 126 LINE"
);
}
);
width = 453;
},
{
associatedMasterId = "CC11FE7D-5FF0-4B40-9597-DFC61EB94F41";
background = {
paths = (
{
closed = 0;
nodes = (
"77 435 LINE",
"140 470 OFFCURVE",
"174 475 OFFCURVE",
"218 475 CURVE SMOOTH",
"276 475 OFFCURVE",
"332 445 OFFCURVE",
"332 369 CURVE SMOOTH",
"332 306 OFFCURVE",
"330 101 OFFCURVE",
"330 101 CURVE",
"330 43 OFFCURVE",
"341 21 OFFCURVE",
"420 21 CURVE"
);
},
{
closed = 0;
nodes = (
"325 268 LINE",
"171 268 OFFCURVE",
"74 249 OFFCURVE",
"74 134 CURVE SMOOTH",
"74 45 OFFCURVE",
"131 19 OFFCURVE",
"190 19 CURVE SMOOTH",
"252 19 OFFCURVE",
"299 65 OFFCURVE",
"329 112 CURVE"
);
},
{
closed = 1;
nodes = (
"360 26 OFFCURVE",
"348 32 OFFCURVE",
"350 103 CURVE SMOOTH",
"350 384 LINE SMOOTH",
"351 466 OFFCURVE",
"291 508 OFFCURVE",
"214 508 CURVE SMOOTH",
"168 508 OFFCURVE",
"116 483 OFFCURVE",
"68 454 CURVE",
"86 427 LINE",
"128 451 OFFCURVE",
"174 474 OFFCURVE",
"213 474 CURVE SMOOTH",
"269 474 OFFCURVE",
"312 446 OFFCURVE",
"312 381 CURVE SMOOTH",
"312 101 LINE SMOOTH",
"312 15 OFFCURVE",
"337 -7 OFFCURVE",
"420 -7 CURVE",
"420 26 LINE"
);
},
{
closed = 1;
nodes = (
"292 55 OFFCURVE",
"243 24 OFFCURVE",
"196 24 CURVE SMOOTH",
"139 24 OFFCURVE",
"95 63 OFFCURVE",
"95 141 CURVE SMOOTH",
"95 221 OFFCURVE",
"153 263 OFFCURVE",
"325 263 CURVE",
"325 293 LINE",
"159 293 OFFCURVE",
"55 251 OFFCURVE",
"55 141 CURVE SMOOTH",
"55 44 OFFCURVE",
"114 -7 OFFCURVE",
"189 -7 CURVE SMOOTH",
"244 -7 OFFCURVE",
"303 26 OFFCURVE",
"334 96 CURVE",
"313 117 LINE"
);
}
);
};
layerId = "3598FAD8-C0C7-4F67-AF94-7D4DBDD480BE";
name = "Light Condensed Sep 2 15, 17:44";
paths = (
{
closed = 1;
nodes = (
"312 18 OFFCURVE",
"337 -7 OFFCURVE",
"420 -7 CURVE",
"420 26 LINE",
"360 26 OFFCURVE",
"350 43 OFFCURVE",
"350 103 CURVE SMOOTH",
"350 374 LINE SMOOTH",
"350 465 OFFCURVE",
"296 507 OFFCURVE",
"219 507 CURVE SMOOTH",
"161 507 OFFCURVE",
"110 482 OFFCURVE",
"68 454 CURVE",
"86 426 LINE",
"124 450 OFFCURVE",
"164 474 OFFCURVE",
"218 474 CURVE SMOOTH",
"275 474 OFFCURVE",
"312 439 OFFCURVE",
"312 371 CURVE SMOOTH",
"312 156 LINE SMOOTH",
"312 67 OFFCURVE",
"243 24 OFFCURVE",
"196 24 CURVE SMOOTH",
"137 24 OFFCURVE",
"95 65 OFFCURVE",
"95 142 CURVE SMOOTH",
"95 202 OFFCURVE",
"135 259 OFFCURVE",
"248 259 CURVE SMOOTH",
"271 259 OFFCURVE",
"296 257 OFFCURVE",
"325 252 CURVE",
"325 283 LINE",
"298 288 OFFCURVE",
"273 290 OFFCURVE",
"250 290 CURVE SMOOTH",
"128 290 OFFCURVE",
"55 228 OFFCURVE",
"55 142 CURVE SMOOTH",
"55 46 OFFCURVE",
"112 -7 OFFCURVE",
"189 -7 CURVE SMOOTH",
"244 -7 OFFCURVE",
"303 26 OFFCURVE",
"334 96 CURVE",
"312 101 LINE"
);
}
);
width = 453;
},
{
associatedMasterId = "6114C541-D024-4A3E-9713-6FAF49EAB318";
background = {
paths = (
{
closed = 1;
nodes = (
"319 18 OFFCURVE",
"344 -7 OFFCURVE",
"427 -7 CURVE",
"427 26 LINE",
"367 26 OFFCURVE",
"357 43 OFFCURVE",
"357 103 CURVE SMOOTH",
"357 374 LINE SMOOTH",
"357 465 OFFCURVE",
"303 507 OFFCURVE",
"226 507 CURVE SMOOTH",
"168 507 OFFCURVE",
"117 482 OFFCURVE",
"75 454 CURVE",
"93 426 LINE",
"131 450 OFFCURVE",
"171 474 OFFCURVE",
"225 474 CURVE SMOOTH",
"282 474 OFFCURVE",
"319 439 OFFCURVE",
"319 371 CURVE SMOOTH",
"319 156 LINE SMOOTH",
"319 67 OFFCURVE",
"250 24 OFFCURVE",
"203 24 CURVE SMOOTH",
"144 24 OFFCURVE",
"102 65 OFFCURVE",
"102 142 CURVE SMOOTH",
"102 202 OFFCURVE",
"142 259 OFFCURVE",
"255 259 CURVE SMOOTH",
"278 259 OFFCURVE",
"303 257 OFFCURVE",
"332 252 CURVE",
"332 283 LINE",
"305 288 OFFCURVE",
"280 290 OFFCURVE",
"257 290 CURVE SMOOTH",
"135 290 OFFCURVE",
"62 228 OFFCURVE",
"62 142 CURVE SMOOTH",
"62 46 OFFCURVE",
"119 -7 OFFCURVE",
"196 -7 CURVE SMOOTH",
"251 -7 OFFCURVE",
"310 26 OFFCURVE",
"341 96 CURVE",
"319 101 LINE"
);
},
{
closed = 0;
nodes = (
"290 329 LINE SMOOTH",
"290 117 LINE SMOOTH",
"290 7 OFFCURVE",
"341 -15 OFFCURVE",
"446 -15 CURVE",
"446 75 LINE",
"421 75 OFFCURVE",
"410 84 OFFCURVE",
"410 109 CURVE SMOOTH",
"410 339 LINE SMOOTH"
);
}
);
};
layerId = "0A4F174C-6644-4178-9624-F2A22220857D";
name = "Bold fino";
paths = (
{
closed = 1;
nodes = (
"299 0 OFFCURVE",
"362 -15 OFFCURVE",
"447 -15 CURVE",
"447 75 LINE",
"407 75 OFFCURVE",
"399 93 OFFCURVE",
"399 133 CURVE SMOOTH",
"399 336 LINE SMOOTH",
"399 455 OFFCURVE",
"321 514 OFFCURVE",
"222 514 CURVE SMOOTH",
"163 514 OFFCURVE",
"96 493 OFFCURVE",
"41 458 CURVE",
"80 379 LINE",
"117 401 OFFCURVE",
"159 417 OFFCURVE",
"199 417 CURVE SMOOTH",
"244 417 OFFCURVE",
"279 395 OFFCURVE",
"279 331 CURVE SMOOTH",
"279 196 LINE SMOOTH",
"279 113 OFFCURVE",
"253 84 OFFCURVE",
"203 84 CURVE SMOOTH",
"169 84 OFFCURVE",
"147 105 OFFCURVE",
"147 142 CURVE SMOOTH",
"147 197 OFFCURVE",
"177 224 OFFCURVE",
"245 224 CURVE SMOOTH",
"278 224 OFFCURVE",
"303 222 OFFCURVE",
"332 217 CURVE",
"332 297 LINE",
"305 302 OFFCURVE",
"260 304 OFFCURVE",
"237 304 CURVE SMOOTH",
"103 304 OFFCURVE",
"25 242 OFFCURVE",
"25 142 CURVE SMOOTH",
"25 40 OFFCURVE",
"88 -15 OFFCURVE",
"179 -15 CURVE SMOOTH",
"248 -15 OFFCURVE",
"310 34 OFFCURVE",
"316 100 CURVE",
"299 100 LINE"
);
}
);
width = 462;
},
{
associatedMasterId = "6114C541-D024-4A3E-9713-6FAF49EAB318";
background = {
paths = (
{
closed = 1;
nodes = (
"294 0 OFFCURVE",
"357 -15 OFFCURVE",
"442 -15 CURVE",
"442 75 LINE",
"402 75 OFFCURVE",
"394 93 OFFCURVE",
"394 133 CURVE SMOOTH",
"394 336 LINE SMOOTH",
"394 455 OFFCURVE",
"316 514 OFFCURVE",
"217 514 CURVE SMOOTH",
"158 514 OFFCURVE",
"91 493 OFFCURVE",
"36 458 CURVE",
"75 379 LINE",
"112 401 OFFCURVE",
"154 417 OFFCURVE",
"194 417 CURVE SMOOTH",
"239 417 OFFCURVE",
"274 395 OFFCURVE",
"274 331 CURVE SMOOTH",
"274 196 LINE SMOOTH",
"274 113 OFFCURVE",
"248 84 OFFCURVE",
"198 84 CURVE SMOOTH",
"164 84 OFFCURVE",
"142 105 OFFCURVE",
"142 142 CURVE SMOOTH",
"142 197 OFFCURVE",
"172 224 OFFCURVE",
"240 224 CURVE SMOOTH",
"273 224 OFFCURVE",
"298 222 OFFCURVE",
"327 217 CURVE",
"327 297 LINE",
"300 302 OFFCURVE",
"255 304 OFFCURVE",
"232 304 CURVE SMOOTH",
"98 304 OFFCURVE",
"20 242 OFFCURVE",
"20 142 CURVE SMOOTH",
"20 40 OFFCURVE",
"83 -15 OFFCURVE",
"174 -15 CURVE SMOOTH",
"243 -15 OFFCURVE",
"305 34 OFFCURVE",
"311 100 CURVE",
"294 100 LINE"
);
}
);
};
layerId = "7D9F3EFC-B4D2-4232-B8D1-903785E7E3D4";
name = "Bold Condensed Sep 13 15, 20:45";
paths = (
{
closed = 1;
nodes = (
"289 0 OFFCURVE",
"347 -15 OFFCURVE",
"442 -15 CURVE",
"442 85 LINE",
"409 85 OFFCURVE",
"399 100 OFFCURVE",
"399 133 CURVE SMOOTH",
"399 336 LINE SMOOTH",
"399 455 OFFCURVE",
"324 514 OFFCURVE",
"217 514 CURVE SMOOTH",
"158 514 OFFCURVE",
"88 492 OFFCURVE",
"31 457 CURVE",
"73 372 LINE",
"111 393 OFFCURVE",
"154 410 OFFCURVE",
"194 410 CURVE SMOOTH",
"239 410 OFFCURVE",
"269 389 OFFCURVE",
"269 331 CURVE SMOOTH",
"269 196 LINE SMOOTH",
"269 118 OFFCURVE",
"248 89 OFFCURVE",
"198 89 CURVE SMOOTH",
"168 89 OFFCURVE",
"146 110 OFFCURVE",
"146 142 CURVE SMOOTH",
"146 196 OFFCURVE",
"176 221 OFFCURVE",
"240 221 CURVE SMOOTH",
"273 221 OFFCURVE",
"298 219 OFFCURVE",
"327 214 CURVE",
"327 299 LINE",
"300 304 OFFCURVE",
"255 306 OFFCURVE",
"232 306 CURVE SMOOTH",
"98 306 OFFCURVE",
"15 244 OFFCURVE",
"15 142 CURVE SMOOTH",
"15 41 OFFCURVE",
"93 -15 OFFCURVE",
"172 -15 CURVE SMOOTH",
"234 -15 OFFCURVE",
"295 21 OFFCURVE",
"311 100 CURVE",
"289 100 LINE"
);
}
);
width = 452;
},
{
anchors = (
{
name = ogonek;
position = "{383, 10}";
},
{
name = top;
position = "{199, 500}";
}
);
associatedMasterId = "CC11FE7D-5FF0-4B40-9597-DFC61EB94F41";
background = {
paths = (
{
closed = 1;
nodes = (
"303 18 OFFCURVE",
"328 -7 OFFCURVE",
"411 -7 CURVE",
"411 26 LINE",
"351 26 OFFCURVE",
"341 43 OFFCURVE",
"341 103 CURVE SMOOTH",
"341 364 LINE SMOOTH",
"341 465 OFFCURVE",
"287 507 OFFCURVE",
"200 507 CURVE SMOOTH",
"132 507 OFFCURVE",
"81 482 OFFCURVE",
"39 454 CURVE",
"57 426 LINE",
"95 450 OFFCURVE",
"135 474 OFFCURVE",
"199 474 CURVE SMOOTH",
"266 474 OFFCURVE",
"303 439 OFFCURVE",
"303 361 CURVE SMOOTH",
"303 156 LINE SMOOTH",
"303 67 OFFCURVE",
"224 24 OFFCURVE",
"177 24 CURVE SMOOTH",
"108 24 OFFCURVE",
"66 65 OFFCURVE",
"66 142 CURVE SMOOTH",
"66 202 OFFCURVE",
"106 254 OFFCURVE",
"229 254 CURVE SMOOTH",
"262 254 OFFCURVE",
"287 252 OFFCURVE",
"316 247 CURVE",
"316 278 LINE",
"289 283 OFFCURVE",
"264 285 OFFCURVE",
"231 285 CURVE SMOOTH",
"99 285 OFFCURVE",
"26 228 OFFCURVE",
"26 142 CURVE SMOOTH",
"26 46 OFFCURVE",
"83 -7 OFFCURVE",
"170 -7 CURVE SMOOTH",
"225 -7 OFFCURVE",
"294 26 OFFCURVE",
"325 96 CURVE",
"303 101 LINE"
);
}
);
};
layerId = "62C3ADD2-255D-4E82-8050-C7F70040D41C";
name = "Light Condensed Sep 30 15, 11:47";
paths = (
{
closed = 1;
nodes = (
"303 28 OFFCURVE",
"323 -7 OFFCURVE",
"386 -7 CURVE SMOOTH",
"394 -7 OFFCURVE",
"402 -6 OFFCURVE",
"412 -5 CURVE",
"410 26 LINE",
"404 25 OFFCURVE",
"399 25 OFFCURVE",
"394 25 CURVE SMOOTH",
"353 25 OFFCURVE",
"343 50 OFFCURVE",
"343 103 CURVE SMOOTH",
"343 364 LINE SMOOTH",
"343 462 OFFCURVE",
"278 507 OFFCURVE",
"199 507 CURVE SMOOTH",
"148 507 OFFCURVE",
"88 489 OFFCURVE",
"38 453 CURVE",
"57 423 LINE",
"103 454 OFFCURVE",
"155 472 OFFCURVE",
"198 472 CURVE SMOOTH",
"259 472 OFFCURVE",
"303 438 OFFCURVE",
"303 361 CURVE SMOOTH",
"303 156 LINE SMOOTH",
"303 67 OFFCURVE",
"224 28 OFFCURVE",
"177 28 CURVE SMOOTH",
"108 28 OFFCURVE",
"69 67 OFFCURVE",
"69 142 CURVE SMOOTH",
"69 202 OFFCURVE",
"106 252 OFFCURVE",
"229 252 CURVE SMOOTH",
"262 252 OFFCURVE",
"287 250 OFFCURVE",
"316 245 CURVE",
"316 278 LINE",
"289 283 OFFCURVE",
"264 285 OFFCURVE",
"231 285 CURVE SMOOTH",
"101 285 OFFCURVE",
"26 225 OFFCURVE",
"26 142 CURVE SMOOTH",
"26 46 OFFCURVE",
"83 -7 OFFCURVE",
"170 -7 CURVE SMOOTH",
"225 -7 OFFCURVE",
"290 26 OFFCURVE",
"321 96 CURVE",
"303 101 LINE"
);
}
);
width = 426;
},
{
anchors = (
{
name = ogonek;
position = "{407, 10}";
},
{
name = top;
position = "{198, 500}";
}
);
background = {
paths = (
{
closed = 1;
nodes = (
"300 28 OFFCURVE",
"320 -7 OFFCURVE",
"383 -7 CURVE SMOOTH",
"391 -7 OFFCURVE",
"399 -6 OFFCURVE",
"409 -5 CURVE",
"407 26 LINE",
"401 25 OFFCURVE",
"396 25 OFFCURVE",
"391 25 CURVE SMOOTH",
"350 25 OFFCURVE",
"340 50 OFFCURVE",
"340 103 CURVE SMOOTH",
"340 364 LINE SMOOTH",
"340 462 OFFCURVE",
"275 507 OFFCURVE",
"196 507 CURVE SMOOTH",
"149 507 OFFCURVE",
"94 492 OFFCURVE",
"46 461 CURVE SMOOTH",
"42 458 OFFCURVE",
"39 456 OFFCURVE",
"35 453 CURVE",
"54 423 LINE",
"57 425 OFFCURVE",
"59 426 OFFCURVE",
"62 428 CURVE SMOOTH",
"106 456 OFFCURVE",
"154 472 OFFCURVE",
"195 472 CURVE SMOOTH",
"256 472 OFFCURVE",
"300 438 OFFCURVE",
"300 361 CURVE SMOOTH",
"300 156 LINE SMOOTH",
"300 67 OFFCURVE",
"221 28 OFFCURVE",
"174 28 CURVE SMOOTH",
"105 28 OFFCURVE",
"66 67 OFFCURVE",
"66 142 CURVE SMOOTH",
"66 202 OFFCURVE",
"103 252 OFFCURVE",
"226 252 CURVE SMOOTH",
"259 252 OFFCURVE",
"284 250 OFFCURVE",
"313 245 CURVE",
"313 278 LINE",
"286 283 OFFCURVE",
"261 285 OFFCURVE",
"228 285 CURVE SMOOTH",
"98 285 OFFCURVE",
"23 225 OFFCURVE",
"23 142 CURVE SMOOTH",
"23 46 OFFCURVE",
"80 -7 OFFCURVE",
"167 -7 CURVE SMOOTH",
"222 -7 OFFCURVE",
"287 26 OFFCURVE",
"318 96 CURVE",
"300 101 LINE"
);
}
);
};
layerId = "CC11FE7D-5FF0-4B40-9597-DFC61EB94F41";
paths = (
{
closed = 1;
nodes = (
"300 28 OFFCURVE",
"320 -7 OFFCURVE",
"383 -7 CURVE SMOOTH",
"391 -7 OFFCURVE",
"401 -6 OFFCURVE",
"409 -5 CURVE",
"407 26 LINE",
"401 25 OFFCURVE",
"396 25 OFFCURVE",
"391 25 CURVE SMOOTH",
"350 25 OFFCURVE",
"340 50 OFFCURVE",
"340 103 CURVE SMOOTH",
"340 364 LINE SMOOTH",
"340 462 OFFCURVE",
"275 507 OFFCURVE",
"196 507 CURVE SMOOTH",
"149 507 OFFCURVE",
"92 491 OFFCURVE",
"44 460 CURVE",
"62 428 LINE",
"106 456 OFFCURVE",
"154 472 OFFCURVE",
"195 472 CURVE SMOOTH",
"256 472 OFFCURVE",
"300 438 OFFCURVE",
"300 361 CURVE SMOOTH",
"300 156 LINE SMOOTH",
"300 67 OFFCURVE",
"221 28 OFFCURVE",
"174 28 CURVE SMOOTH",
"105 28 OFFCURVE",
"66 66 OFFCURVE",
"66 141 CURVE SMOOTH",
"66 199 OFFCURVE",
"103 250 OFFCURVE",
"226 250 CURVE SMOOTH",
"259 250 OFFCURVE",
"284 248 OFFCURVE",
"313 243 CURVE",
"313 276 LINE",
"286 281 OFFCURVE",
"261 283 OFFCURVE",
"228 283 CURVE SMOOTH",
"98 283 OFFCURVE",
"23 222 OFFCURVE",
"23 141 CURVE SMOOTH",
"23 45 OFFCURVE",
"80 -7 OFFCURVE",
"167 -7 CURVE SMOOTH",
"222 -7 OFFCURVE",
"287 26 OFFCURVE",
"318 96 CURVE",
"300 101 LINE"
);
}
);
width = 423;
}
);
unicode = 0061;
},
{
glyphname = aogonek;
lastChange = "2018-02-04 13:36:43 +0000";
layers = (
{
background = {
anchors = (
{
name = _ogonek;
position = "{447, 10}";
},
{
name = ogonek;
position = "{447, 10}";
},
{
name = top;
position = "{222, 500}";
}
);
paths = (
{
closed = 0;
nodes = (
"290 100 LINE",
"290 51 OFFCURVE",
"307 11 OFFCURVE",
"348 -7 CURVE",
"348 -3 LINE",
"285 -36 OFFCURVE",
"256 -82 OFFCURVE",
"256 -122 CURVE SMOOTH",
"256 -173 OFFCURVE",
"301 -215 OFFCURVE",
"386 -215 CURVE SMOOTH",
"411 -215 OFFCURVE",
"437 -211 OFFCURVE",
"463 -203 CURVE"
);
}
);
};
components = (
{
name = a;
}
);
guideLines = (
{
angle = 90;
position = "{1359, -94}";
}
);
layerId = "6114C541-D024-4A3E-9713-6FAF49EAB318";
paths = (
{
closed = 1;
nodes = (
"411 -215 OFFCURVE",
"437 -211 OFFCURVE",
"463 -203 CURVE",
"457 -117 LINE",
"444 -121 OFFCURVE",
"431 -123 OFFCURVE",
"419 -123 CURVE SMOOTH",
"389 -123 OFFCURVE",
"365 -110 OFFCURVE",
"365 -82 CURVE SMOOTH",
"365 -45 OFFCURVE",
"400 -23 OFFCURVE",
"452 -8 CURVE",
"348 -3 LINE",
"285 -36 OFFCURVE",
"256 -82 OFFCURVE",
"256 -122 CURVE SMOOTH",
"256 -173 OFFCURVE",
"301 -215 OFFCURVE",
"386 -215 CURVE SMOOTH"
);
}
);
width = 460;
},
{
background = {
paths = (
{
closed = 1;
nodes = (
"387 -188 OFFCURVE",
"403 -186 OFFCURVE",
"417 -183 CURVE",
"415 -153 LINE",
"404 -156 OFFCURVE",
"392 -157 OFFCURVE",
"383 -157 CURVE SMOOTH",
"334 -157 OFFCURVE",
"310 -129 OFFCURVE",
"310 -98 CURVE SMOOTH",
"310 -65 OFFCURVE",
"338 -28 OFFCURVE",
"412 -5 CURVE",
"377 5 LINE",
"307 -20 OFFCURVE",
"272 -64 OFFCURVE",
"272 -104 CURVE SMOOTH",
"272 -160 OFFCURVE",
"316 -188 OFFCURVE",
"374 -188 CURVE SMOOTH"
);
}
);
};
components = (
{
name = a;
}
);
layerId = "CC11FE7D-5FF0-4B40-9597-DFC61EB94F41";
paths = (
{
closed = 1;
nodes = (
"387 -188 OFFCURVE",
"403 -186 OFFCURVE",
"417 -183 CURVE",
"415 -153 LINE",
"404 -156 OFFCURVE",
"392 -157 OFFCURVE",
"383 -157 CURVE SMOOTH",
"334 -157 OFFCURVE",
"310 -129 OFFCURVE",
"310 -98 CURVE SMOOTH",
"310 -65 OFFCURVE",
"338 -28 OFFCURVE",
"412 -5 CURVE",
"379 5 LINE",
"307 -19 OFFCURVE",
"272 -66 OFFCURVE",
"272 -107 CURVE SMOOTH",
"272 -151 OFFCURVE",
"308 -188 OFFCURVE",
"374 -188 CURVE SMOOTH"
);
}
);
width = 426;
}
);
unicode = 0105;
},
{
glyphname = ae;
lastChange = "2021-05-27 04:30:38 +0000";
layers = (
{
anchors = (
{
name = top;
position = "{342, 500}";
}
);
background = {
paths = (
{
closed = 1;
nodes = (
"394 133 LINE",
"394 336 LINE SMOOTH",
"394 455 OFFCURVE",
"330 514 OFFCURVE",
"226 514 CURVE SMOOTH",
"163 514 OFFCURVE",
"87 494 OFFCURVE",
"30 460 CURVE",
"73 366 LINE",
"116 389 OFFCURVE",
"160 406 OFFCURVE",
"195 406 CURVE SMOOTH",
"239 406 OFFCURVE",
"269 384 OFFCURVE",
"269 331 CURVE SMOOTH",
"269 196 LINE SMOOTH",
"269 118 OFFCURVE",
"248 89 OFFCURVE",
"198 89 CURVE SMOOTH",
"168 89 OFFCURVE",
"146 110 OFFCURVE",
"146 142 CURVE SMOOTH",
"146 196 OFFCURVE",
"176 220 OFFCURVE",
"240 220 CURVE SMOOTH",
"273 220 OFFCURVE",
"298 218 OFFCURVE",
"327 213 CURVE",
"327 299 LINE",
"300 304 OFFCURVE",
"255 306 OFFCURVE",
"232 306 CURVE SMOOTH",
"98 306 OFFCURVE",
"15 244 OFFCURVE",
"15 142 CURVE SMOOTH",
"15 41 OFFCURVE",
"88 -15 OFFCURVE",
"168 -15 CURVE SMOOTH",
"230 -15 OFFCURVE",
"306 21 OFFCURVE",
"322 100 CURVE"
);
},
{
closed = 1;
nodes = (
"566 -15 OFFCURVE",
"629 2 OFFCURVE",
"686 42 CURVE",
"648 128 LINE",
"602 103 OFFCURVE",
"560 90 OFFCURVE",
"517 90 CURVE SMOOTH",
"447 90 OFFCURVE",
"399 144 OFFCURVE",
"399 251 CURVE SMOOTH",
"399 361 OFFCURVE",
"438 415 OFFCURVE",
"490 415 CURVE SMOOTH",
"536 415 OFFCURVE",
"565 379 OFFCURVE",
"565 309 CURVE",
"341 307 LINE",
"339 215 LINE",
"696 215 LINE",
"696 250 LINE SMOOTH",
"696 419 OFFCURVE",
"639 515 OFFCURVE",
"491 515 CURVE SMOOTH",
"371 515 OFFCURVE",
"273 431 OFFCURVE",
"273 256 CURVE SMOOTH",
"273 82 OFFCURVE",
"367 -15 OFFCURVE",
"506 -15 CURVE SMOOTH"
);
}
);
};
layerId = "6114C541-D024-4A3E-9713-6FAF49EAB318";
paths = (
{
closed = 1;
nodes = (
"230 -15 OFFCURVE",
"308 21 OFFCURVE",
"322 103 CURVE",
"305 103 LINE",
"344 26 OFFCURVE",
"415 -15 OFFCURVE",
"506 -15 CURVE SMOOTH",
"566 -15 OFFCURVE",
"629 2 OFFCURVE",
"686 42 CURVE",
"648 128 LINE",
"602 103 OFFCURVE",
"560 90 OFFCURVE",
"517 90 CURVE SMOOTH",
"447 90 OFFCURVE",
"399 144 OFFCURVE",
"399 251 CURVE SMOOTH",
"399 361 OFFCURVE",
"438 415 OFFCURVE",
"490 415 CURVE SMOOTH",
"536 415 OFFCURVE",
"565 379 OFFCURVE",
"565 309 CURVE",
"341 307 LINE",
"339 215 LINE",
"696 215 LINE",
"696 250 LINE SMOOTH",
"696 419 OFFCURVE",
"639 515 OFFCURVE",
"496 515 CURVE SMOOTH",
"435 515 OFFCURVE",
"373 490 OFFCURVE",
"333 440 CURVE",
"368 438 LINE",
"341 489 OFFCURVE",
"294 514 OFFCURVE",
"226 514 CURVE SMOOTH",
"163 514 OFFCURVE",
"87 494 OFFCURVE",
"30 460 CURVE",
"73 366 LINE",
"116 389 OFFCURVE",
"160 406 OFFCURVE",
"195 406 CURVE SMOOTH",
"239 406 OFFCURVE",
"269 384 OFFCURVE",
"269 331 CURVE SMOOTH",
"269 196 LINE SMOOTH",
"269 118 OFFCURVE",
"248 89 OFFCURVE",
"198 89 CURVE SMOOTH",
"168 89 OFFCURVE",
"146 110 OFFCURVE",
"146 142 CURVE SMOOTH",
"146 196 OFFCURVE",
"176 220 OFFCURVE",
"240 220 CURVE SMOOTH",
"273 220 OFFCURVE",
"298 218 OFFCURVE",
"327 213 CURVE",
"327 299 LINE",
"300 304 OFFCURVE",
"255 306 OFFCURVE",
"232 306 CURVE SMOOTH",
"98 306 OFFCURVE",
"15 244 OFFCURVE",
"15 142 CURVE SMOOTH",
"15 41 OFFCURVE",
"88 -15 OFFCURVE",
"168 -15 CURVE SMOOTH"
);
}
);
width = 716;
},
{
anchors = (
{
name = top;
position = "{327, 500}";
}
);
background = {
paths = (
{
closed = 1;
nodes = (
"340 96 LINE",
"340 364 LINE SMOOTH",
"340 462 OFFCURVE",
"275 507 OFFCURVE",
"196 507 CURVE SMOOTH",
"149 507 OFFCURVE",
"92 491 OFFCURVE",
"44 460 CURVE",
"62 428 LINE",
"106 456 OFFCURVE",
"154 472 OFFCURVE",
"195 472 CURVE SMOOTH",
"256 472 OFFCURVE",
"300 438 OFFCURVE",
"300 361 CURVE SMOOTH",
"300 156 LINE SMOOTH",
"300 67 OFFCURVE",
"221 28 OFFCURVE",
"174 28 CURVE SMOOTH",
"105 28 OFFCURVE",
"66 66 OFFCURVE",
"66 141 CURVE SMOOTH",
"66 199 OFFCURVE",
"103 250 OFFCURVE",
"226 250 CURVE SMOOTH",
"259 250 OFFCURVE",
"284 248 OFFCURVE",
"313 243 CURVE",
"313 276 LINE",
"286 281 OFFCURVE",
"261 283 OFFCURVE",
"228 283 CURVE SMOOTH",
"98 283 OFFCURVE",
"23 222 OFFCURVE",
"23 141 CURVE SMOOTH",
"23 45 OFFCURVE",
"80 -7 OFFCURVE",
"167 -7 CURVE SMOOTH",
"222 -7 OFFCURVE",
"289 26 OFFCURVE",
"320 96 CURVE"
);
},
{
closed = 1;
nodes = (
"546 -7 OFFCURVE",
"594 5 OFFCURVE",
"645 29 CURVE",
"632 60 LINE",
"588 39 OFFCURVE",
"549 29 OFFCURVE",
"509 29 CURVE SMOOTH",
"407 29 OFFCURVE",
"340 106 OFFCURVE",
"340 249 CURVE SMOOTH",
"340 382 OFFCURVE",
"391 472 OFFCURVE",
"484 472 CURVE SMOOTH",
"586 472 OFFCURVE",
"615 374 OFFCURVE",
"614 287 CURVE",
"320 286 LINE",
"320 251 LINE",
"656 251 LINE",
"656 271 LINE SMOOTH",
"656 408 OFFCURVE",
"609 507 OFFCURVE",
"484 507 CURVE SMOOTH",
"367 507 OFFCURVE",
"300 400 OFFCURVE",
"300 250 CURVE SMOOTH",
"300 85 OFFCURVE",
"377 -7 OFFCURVE",
"502 -7 CURVE SMOOTH"
);
}
);
};
layerId = "CC11FE7D-5FF0-4B40-9597-DFC61EB94F41";
paths = (
{
closed = 1;
nodes = (
"222 -7 OFFCURVE",
"297 29 OFFCURVE",
"325 110 CURVE",
"324 110 LINE",
"357 35 OFFCURVE",
"420 -7 OFFCURVE",
"502 -7 CURVE SMOOTH",
"546 -7 OFFCURVE",
"594 5 OFFCURVE",
"645 29 CURVE",
"632 60 LINE",
"588 39 OFFCURVE",
"549 29 OFFCURVE",
"509 29 CURVE SMOOTH",
"407 29 OFFCURVE",
"340 106 OFFCURVE",
"340 249 CURVE SMOOTH",
"340 381 OFFCURVE",
"391 472 OFFCURVE",
"484 472 CURVE SMOOTH",
"586 472 OFFCURVE",
"615 374 OFFCURVE",
"614 287 CURVE",
"320 286 LINE",
"320 251 LINE",
"656 251 LINE",
"656 271 LINE SMOOTH",
"656 408 OFFCURVE",
"609 507 OFFCURVE",
"484 507 CURVE SMOOTH",
"406 507 OFFCURVE",
"351 458 OFFCURVE",
"323 383 CURVE",
"338 383 LINE",
"330 467 OFFCURVE",
"269 507 OFFCURVE",
"196 507 CURVE SMOOTH",
"149 507 OFFCURVE",
"92 491 OFFCURVE",
"44 460 CURVE",
"62 428 LINE",
"106 456 OFFCURVE",
"154 472 OFFCURVE",
"195 472 CURVE SMOOTH",
"256 472 OFFCURVE",
"300 438 OFFCURVE",
"300 361 CURVE SMOOTH",
"300 156 LINE SMOOTH",
"300 67 OFFCURVE",
"221 28 OFFCURVE",
"174 28 CURVE SMOOTH",
"105 28 OFFCURVE",
"66 66 OFFCURVE",
"66 141 CURVE SMOOTH",
"66 199 OFFCURVE",
"103 250 OFFCURVE",
"226 250 CURVE SMOOTH",
"259 250 OFFCURVE",
"284 248 OFFCURVE",
"313 243 CURVE",
"313 276 LINE",
"286 281 OFFCURVE",
"261 283 OFFCURVE",
"228 283 CURVE SMOOTH",
"98 283 OFFCURVE",
"23 222 OFFCURVE",
"23 141 CURVE SMOOTH",
"23 45 OFFCURVE",
"80 -7 OFFCURVE",
"167 -7 CURVE SMOOTH"
);
}
);
width = 687;
}
);
leftMetricsKey = a;
rightMetricsKey = e;
unicode = 00E6;
},
{
glyphname = b;
lastChange = "2021-05-27 04:30:38 +0000";
layers = (
{
background = {
paths = (
{
closed = 1;
nodes = (
"396 -15 OFFCURVE",
"488 91 OFFCURVE",
"488 276 CURVE SMOOTH",
"488 425 OFFCURVE",
"414 515 OFFCURVE",
"305 515 CURVE SMOOTH",
"228 515 OFFCURVE",
"166 470 OFFCURVE",
"139 370 CURVE",
"194 370 LINE",
"191 725 LINE",
"61 725 LINE",
"60 30 LINE",
"122 -3 OFFCURVE",
"187 -15 OFFCURVE",
"252 -15 CURVE SMOOTH"
);
},
{
closed = 1;
nodes = (
"232 90 OFFCURVE",
"215 94 OFFCURVE",
"190 104 CURVE",
"191 284 LINE SMOOTH",
"191 364 OFFCURVE",
"220 412 OFFCURVE",
"272 412 CURVE SMOOTH",
"320 412 OFFCURVE",
"355 364 OFFCURVE",
"355 274 CURVE SMOOTH",
"355 165 OFFCURVE",
"324 90 OFFCURVE",
"251 90 CURVE SMOOTH"
);
}
);
};
layerId = "6114C541-D024-4A3E-9713-6FAF49EAB318";
paths = (
{
closed = 1;
nodes = (
"390 -15 OFFCURVE",
"488 87 OFFCURVE",
"488 276 CURVE SMOOTH",
"488 425 OFFCURVE",
"414 515 OFFCURVE",
"305 515 CURVE SMOOTH",
"232 515 OFFCURVE",
"172 470 OFFCURVE",
"145 370 CURVE",
"194 370 LINE",
"191 725 LINE",
"61 725 LINE",
"60 30 LINE",
"127 -1 OFFCURVE",
"189 -15 OFFCURVE",
"245 -15 CURVE SMOOTH"
);
},
{
closed = 1;
nodes = (
"232 90 OFFCURVE",
"215 94 OFFCURVE",
"190 104 CURVE",
"191 284 LINE SMOOTH",
"191 364 OFFCURVE",
"220 412 OFFCURVE",
"272 412 CURVE SMOOTH",
"320 412 OFFCURVE",
"355 364 OFFCURVE",
"355 274 CURVE SMOOTH",
"355 165 OFFCURVE",
"324 90 OFFCURVE",
"251 90 CURVE SMOOTH"
);
}
);
width = 511;
},
{
associatedMasterId = "6114C541-D024-4A3E-9713-6FAF49EAB318";
background = {
paths = (
{
closed = 0;
nodes = (
"122 725 LINE",
"122 54 LINE",
"155 32 OFFCURVE",
"206 19 OFFCURVE",
"257 19 CURVE SMOOTH",
"364 19 OFFCURVE",
"437 115 OFFCURVE",
"437 275 CURVE SMOOTH",
"437 396 OFFCURVE",
"375 487 OFFCURVE",
"284 487 CURVE SMOOTH",
"210 487 OFFCURVE",
"149 439 OFFCURVE",
"123 318 CURVE"
);
},
{
closed = 1;
nodes = (
"141 294 LINE SMOOTH",
"141 403 OFFCURVE",
"207 474 OFFCURVE",
"274 474 CURVE SMOOTH",
"355 474 OFFCURVE",
"418 404 OFFCURVE",
"418 273 CURVE SMOOTH",
"418 129 OFFCURVE",
"355 26 OFFCURVE",
"257 26 CURVE SMOOTH",
"213 26 OFFCURVE",
"171 35 OFFCURVE",
"141 53 CURVE"
);
},
{
closed = 1;
nodes = (
"141 700 LINE",
"103 700 LINE",
"103 37 LINE",
"137 10 OFFCURVE",
"198 -7 OFFCURVE",
"257 -7 CURVE SMOOTH",
"378 -7 OFFCURVE",
"458 111 OFFCURVE",
"458 273 CURVE SMOOTH",
"458 422 OFFCURVE",
"381 507 OFFCURVE",
"285 507 CURVE SMOOTH",
"213 507 OFFCURVE",
"151 464 OFFCURVE",
"117 372 CURVE",
"141 373 LINE"
);
}
);
};
layerId = "A74F692B-CFAC-4FD0-918F-3B7E0B8612CF";
name = "Bold fina";
paths = (
{
closed = 1;
nodes = (
"386 -15 OFFCURVE",
"478 91 OFFCURVE",
"478 276 CURVE SMOOTH",
"478 425 OFFCURVE",
"404 515 OFFCURVE",
"300 515 CURVE SMOOTH",
"228 515 OFFCURVE",
"166 470 OFFCURVE",
"139 370 CURVE",
"184 370 LINE",
"181 725 LINE",
"61 725 LINE",
"60 30 LINE",
"122 -3 OFFCURVE",
"182 -15 OFFCURVE",
"247 -15 CURVE SMOOTH"
);
},
{
closed = 1;
nodes = (
"227 85 OFFCURVE",
"205 89 OFFCURVE",
"180 99 CURVE",
"181 289 LINE SMOOTH",
"181 371 OFFCURVE",
"215 415 OFFCURVE",
"267 415 CURVE SMOOTH",
"320 415 OFFCURVE",
"355 367 OFFCURVE",
"355 274 CURVE SMOOTH",
"355 160 OFFCURVE",
"324 85 OFFCURVE",
"246 85 CURVE SMOOTH"
);
}
);
width = 511;
},
{
associatedMasterId = "CC11FE7D-5FF0-4B40-9597-DFC61EB94F41";
background = {
paths = (
{
closed = 0;
nodes = (
"104 725 LINE",
"104 54 LINE",
"137 32 OFFCURVE",
"188 19 OFFCURVE",
"239 19 CURVE SMOOTH",
"346 19 OFFCURVE",
"419 115 OFFCURVE",
"419 275 CURVE SMOOTH",
"419 396 OFFCURVE",
"357 487 OFFCURVE",
"266 487 CURVE SMOOTH",
"192 487 OFFCURVE",
"131 439 OFFCURVE",
"105 318 CURVE"
);
}
);
};
layerId = "C36176AD-716E-4969-8C8D-A9C1AF4435FE";
name = "Light Condensed Sep 13 15, 19:05";
paths = (
{
closed = 1;
nodes = (
"360 -7 OFFCURVE",
"440 111 OFFCURVE",
"440 273 CURVE SMOOTH",
"440 422 OFFCURVE",
"363 507 OFFCURVE",
"267 507 CURVE SMOOTH",
"198 507 OFFCURVE",
"140 465 OFFCURVE",
"106 373 CURVE",
"125 373 LINE",
"125 725 LINE",
"85 725 LINE",
"85 34 LINE",
"120 13 OFFCURVE",
"180 -7 OFFCURVE",
"239 -7 CURVE SMOOTH"
);
},
{
closed = 1;
nodes = (
"202 28 OFFCURVE",
"159 38 OFFCURVE",
"125 56 CURVE",
"125 294 LINE SMOOTH",
"125 414 OFFCURVE",
"192 473 OFFCURVE",
"261 473 CURVE SMOOTH",
"328 473 OFFCURVE",
"397 409 OFFCURVE",
"397 273 CURVE SMOOTH",
"397 127 OFFCURVE",
"336 28 OFFCURVE",
"233 28 CURVE SMOOTH"
);
}
);
width = 478;
},
{
associatedMasterId = "6114C541-D024-4A3E-9713-6FAF49EAB318";
background = {
paths = (
{
closed = 1;
nodes = (
"386 -15 OFFCURVE",
"478 91 OFFCURVE",
"478 276 CURVE SMOOTH",
"478 425 OFFCURVE",
"404 515 OFFCURVE",
"295 515 CURVE SMOOTH",
"218 515 OFFCURVE",
"156 470 OFFCURVE",
"129 370 CURVE",
"184 370 LINE",
"181 725 LINE",
"51 725 LINE",
"50 30 LINE",
"112 -3 OFFCURVE",
"177 -15 OFFCURVE",
"242 -15 CURVE SMOOTH"
);
},
{
closed = 1;
nodes = (
"222 90 OFFCURVE",
"205 94 OFFCURVE",
"180 104 CURVE",
"181 284 LINE SMOOTH",
"181 364 OFFCURVE",
"210 412 OFFCURVE",
"262 412 CURVE SMOOTH",
"310 412 OFFCURVE",
"345 364 OFFCURVE",
"345 274 CURVE SMOOTH",
"345 165 OFFCURVE",
"314 90 OFFCURVE",
"241 90 CURVE SMOOTH"
);
}
);
};
layerId = "E386981B-C54D-41CF-A342-BCBFBF03656B";
name = "Bold Condensed Sep 13 15, 21:19";
paths = (
{
closed = 1;
nodes = (
"117 -1 OFFCURVE",
"179 -15 OFFCURVE",
"235 -15 CURVE SMOOTH",
"380 -15 OFFCURVE",
"478 87 OFFCURVE",
"478 276 CURVE SMOOTH",
"478 425 OFFCURVE",
"404 515 OFFCURVE",
"295 515 CURVE SMOOTH",
"222 515 OFFCURVE",
"162 470 OFFCURVE",
"135 370 CURVE",
"184 370 LINE",
"181 725 LINE",
"51 725 LINE",
"50 30 LINE"
);
},
{
closed = 1;
nodes = (
"222 90 OFFCURVE",
"205 94 OFFCURVE",
"180 104 CURVE",
"181 284 LINE SMOOTH",
"181 364 OFFCURVE",
"210 412 OFFCURVE",
"262 412 CURVE SMOOTH",
"310 412 OFFCURVE",
"345 364 OFFCURVE",
"345 274 CURVE SMOOTH",
"345 165 OFFCURVE",
"314 90 OFFCURVE",
"241 90 CURVE SMOOTH"
);
}
);
width = 501;
},
{
background = {
paths = (
{
closed = 0;
nodes = (
"103 725 LINE",
"103 54 LINE",
"136 32 OFFCURVE",
"187 19 OFFCURVE",
"238 19 CURVE SMOOTH",
"345 19 OFFCURVE",
"418 115 OFFCURVE",
"418 275 CURVE SMOOTH",
"418 396 OFFCURVE",
"356 487 OFFCURVE",
"265 487 CURVE SMOOTH",
"191 487 OFFCURVE",
"130 439 OFFCURVE",
"104 318 CURVE"
);
}
);
};
layerId = "CC11FE7D-5FF0-4B40-9597-DFC61EB94F41";
paths = (
{
closed = 1;
nodes = (
"359 -7 OFFCURVE",
"439 111 OFFCURVE",
"439 273 CURVE SMOOTH",
"439 422 OFFCURVE",
"362 507 OFFCURVE",
"266 507 CURVE SMOOTH",
"197 507 OFFCURVE",
"139 465 OFFCURVE",
"105 373 CURVE",
"124 373 LINE",
"124 725 LINE",
"84 725 LINE",
"84 34 LINE",
"119 13 OFFCURVE",
"179 -7 OFFCURVE",
"238 -7 CURVE SMOOTH"
);
},
{
closed = 1;
nodes = (
"201 28 OFFCURVE",
"158 38 OFFCURVE",
"124 56 CURVE",
"124 294 LINE SMOOTH",
"124 414 OFFCURVE",
"191 473 OFFCURVE",
"260 473 CURVE SMOOTH",
"327 473 OFFCURVE",
"396 409 OFFCURVE",
"396 273 CURVE SMOOTH",
"396 127 OFFCURVE",
"335 28 OFFCURVE",
"232 28 CURVE SMOOTH"
);
}
);
width = 486;
}
);
unicode = 0062;
},
{
glyphname = c;
lastChange = "2021-05-27 04:30:38 +0000";
layers = (
{
anchors = (
{
name = bottom;
position = "{235, 0}";
},
{
name = top;
position = "{245, 500}";
}
);
background = {
paths = (
{
closed = 1;
nodes = (
"304 -15 OFFCURVE",
"360 2 OFFCURVE",
"423 39 CURVE",
"387 127 LINE",
"341 104 OFFCURVE",
"303 94 OFFCURVE",
"268 94 CURVE SMOOTH",
"194 94 OFFCURVE",
"149 140 OFFCURVE",
"149 251 CURVE SMOOTH",
"149 350 OFFCURVE",
"186 409 OFFCURVE",
"243 409 CURVE SMOOTH",
"287 409 OFFCURVE",
"307 380 OFFCURVE",
"325 335 CURVE",
"432 375 LINE",
"400 469 OFFCURVE",
"342 514 OFFCURVE",
"242 514 CURVE SMOOTH",
"115 514 OFFCURVE",
"16 418 OFFCURVE",
"16 253 CURVE SMOOTH",
"16 81 OFFCURVE",
"100 -15 OFFCURVE",
"240 -15 CURVE SMOOTH"
);
}
);
};
layerId = "6114C541-D024-4A3E-9713-6FAF49EAB318";
paths = (
{
closed = 1;
nodes = (
"296 -15 OFFCURVE",
"350 2 OFFCURVE",
"413 39 CURVE",
"377 127 LINE",
"331 104 OFFCURVE",
"295 94 OFFCURVE",
"268 94 CURVE SMOOTH",
"199 94 OFFCURVE",
"157 140 OFFCURVE",
"157 251 CURVE SMOOTH",
"157 350 OFFCURVE",
"184 409 OFFCURVE",
"243 409 CURVE SMOOTH",
"281 409 OFFCURVE",
"299 380 OFFCURVE",
"315 335 CURVE",
"422 375 LINE",
"390 469 OFFCURVE",
"334 514 OFFCURVE",
"242 514 CURVE SMOOTH",
"113 514 OFFCURVE",
"24 418 OFFCURVE",
"24 253 CURVE SMOOTH",
"24 81 OFFCURVE",
"105 -15 OFFCURVE",
"240 -15 CURVE SMOOTH"
);
}
);
width = 423;
},
{
associatedMasterId = "6114C541-D024-4A3E-9713-6FAF49EAB318";
background = {
paths = (
{
closed = 1;
nodes = (
"325 685 OFFCURVE",
"385 702 OFFCURVE",
"442 742 CURVE",
"408 823 LINE",
"362 798 OFFCURVE",
"319 785 OFFCURVE",
"276 785 CURVE SMOOTH",
"201 785 OFFCURVE",
"153 839 OFFCURVE",
"153 951 CURVE SMOOTH",
"153 1061 OFFCURVE",
"192 1115 OFFCURVE",
"249 1115 CURVE SMOOTH",
"300 1115 OFFCURVE",
"329 1077 OFFCURVE",
"329 1002 CURVE",
"100 1005 LINE",
"98 916 LINE",
"450 916 LINE",
"450 950 LINE SMOOTH",
"450 1119 OFFCURVE",
"394 1215 OFFCURVE",
"256 1215 CURVE SMOOTH",
"138 1215 OFFCURVE",
"30 1135 OFFCURVE",
"30 956 CURVE SMOOTH",
"30 777 OFFCURVE",
"135 685 OFFCURVE",
"265 685 CURVE SMOOTH"
);
},
{
closed = 1;
nodes = (
"363 147 OFFCURVE",
"333 85 OFFCURVE",
"258 85 CURVE SMOOTH",
"186 85 OFFCURVE",
"156 151 OFFCURVE",
"156 250 CURVE SMOOTH",
"156 346 OFFCURVE",
"185 415 OFFCURVE",
"261 415 CURVE SMOOTH",
"334 415 OFFCURVE",
"363 347 OFFCURVE",
"363 248 CURVE SMOOTH"
);
},
{
closed = 1;
nodes = (
"485 412 OFFCURVE",
"410 515 OFFCURVE",
"263 515 CURVE SMOOTH",
"116 515 OFFCURVE",
"33 411 OFFCURVE",
"33 248 CURVE SMOOTH",
"33 89 OFFCURVE",
"109 -16 OFFCURVE",
"256 -15 CURVE SMOOTH",
"403 -14 OFFCURVE",
"485 84 OFFCURVE",
"485 250 CURVE SMOOTH"
);
}
);
};
layerId = "964C8B03-6024-4FDA-98B5-9EF4D18E9282";
name = "Bold Condensed Sep 8 15, 10:25";
paths = (
{
closed = 1;
nodes = (
"120 -15 OFFCURVE",
"251 -15 CURVE SMOOTH",
"304 -15 OFFCURVE",
"362 2 OFFCURVE",
"421 38 CURVE",
"387 119 LINE",
"340 96 OFFCURVE",
"300 85 OFFCURVE",
"267 85 CURVE SMOOTH",
"193 85 OFFCURVE",
"153 141 OFFCURVE",
"153 251 CURVE SMOOTH",
"153 353 OFFCURVE",
"188 415 OFFCURVE",
"255 415 CURVE SMOOTH",
"298 415 OFFCURVE",
"322 392 OFFCURVE",
"341 345 CURVE",
"442 386 LINE",
"407 474 OFFCURVE",
"346 515 OFFCURVE",
"262 515 CURVE SMOOTH",
"128 515 OFFCURVE",
"30 418 OFFCURVE",
"30 256 CURVE SMOOTH",
"30 84 OFFCURVE"
);
}
);
width = 446;
},
{
associatedMasterId = "CC11FE7D-5FF0-4B40-9597-DFC61EB94F41";
background = {
paths = (
{
closed = 1;
nodes = (
"295 593 OFFCURVE",
"343 605 OFFCURVE",
"394 629 CURVE",
"382 660 LINE",
"338 639 OFFCURVE",
"298 627 OFFCURVE",
"258 627 CURVE SMOOTH",
"154 627 OFFCURVE",
"86 705 OFFCURVE",
"86 849 CURVE SMOOTH",
"86 982 OFFCURVE",
"138 1074 OFFCURVE",
"233 1074 CURVE SMOOTH",
"337 1074 OFFCURVE",
"367 972 OFFCURVE",
"366 885 CURVE",
"69 884 LINE",
"69 851 LINE",
"405 851 LINE",
"405 871 LINE SMOOTH",
"405 1008 OFFCURVE",
"358 1107 OFFCURVE",
"233 1107 CURVE SMOOTH",
"116 1107 OFFCURVE",
"46 1000 OFFCURVE",
"46 850 CURVE SMOOTH",
"46 685 OFFCURVE",
"127 593 OFFCURVE",
"251 593 CURVE SMOOTH"
);
},
{
closed = 1;
nodes = (
"404 121 OFFCURVE",
"350 26 OFFCURVE",
"244 26 CURVE SMOOTH",
"139 26 OFFCURVE",
"85 119 OFFCURVE",
"85 249 CURVE SMOOTH",
"85 377 OFFCURVE",
"143 474 OFFCURVE",
"247 474 CURVE SMOOTH",
"351 474 OFFCURVE",
"404 379 OFFCURVE",
"404 249 CURVE SMOOTH"
);
},
{
closed = 1;
nodes = (
"444 397 OFFCURVE",
"381 507 OFFCURVE",
"248 507 CURVE SMOOTH",
"121 507 OFFCURVE",
"45 396 OFFCURVE",
"45 249 CURVE SMOOTH",
"45 100 OFFCURVE",
"107 -7 OFFCURVE",
"243 -7 CURVE SMOOTH",
"372 -7 OFFCURVE",
"444 102 OFFCURVE",
"444 249 CURVE SMOOTH"
);
}
);
};
layerId = "CCAA162A-A6D5-40B4-ACA1-1D0CD517CF19";
name = "Light Condensed Sep 8 15, 10:31";
paths = (
{
closed = 1;
nodes = (
"119 -7 OFFCURVE",
"234 -7 CURVE SMOOTH",
"276 -7 OFFCURVE",
"325 4 OFFCURVE",
"373 30 CURVE",
"359 61 LINE",
"323 40 OFFCURVE",
"278 26 OFFCURVE",
"241 26 CURVE SMOOTH",
"148 26 OFFCURVE",
"85 104 OFFCURVE",
"85 249 CURVE SMOOTH",
"85 384 OFFCURVE",
"149 474 OFFCURVE",
"241 474 CURVE SMOOTH",
"293 474 OFFCURVE",
"337 440 OFFCURVE",
"363 388 CURVE",
"395 409 LINE",
"360 473 OFFCURVE",
"308 507 OFFCURVE",
"244 507 CURVE SMOOTH",
"129 507 OFFCURVE",
"45 408 OFFCURVE",
"45 250 CURVE SMOOTH",
"45 84 OFFCURVE"
);
}
);
width = 404;
},
{
associatedMasterId = "6114C541-D024-4A3E-9713-6FAF49EAB318";
background = {
paths = (
{
closed = 1;
nodes = (
"325 -15 OFFCURVE",
"385 2 OFFCURVE",
"442 42 CURVE",
"408 123 LINE",
"362 98 OFFCURVE",
"319 85 OFFCURVE",
"276 85 CURVE SMOOTH",
"201 85 OFFCURVE",
"153 139 OFFCURVE",
"153 251 CURVE SMOOTH",
"153 361 OFFCURVE",
"192 415 OFFCURVE",
"249 415 CURVE SMOOTH",
"300 415 OFFCURVE",
"329 377 OFFCURVE",
"329 302 CURVE",
"100 305 LINE",
"98 216 LINE",
"450 216 LINE",
"450 250 LINE SMOOTH",
"450 419 OFFCURVE",
"394 515 OFFCURVE",
"256 515 CURVE SMOOTH",
"138 515 OFFCURVE",
"30 435 OFFCURVE",
"30 256 CURVE SMOOTH",
"30 77 OFFCURVE",
"135 -15 OFFCURVE",
"265 -15 CURVE SMOOTH"
);
},
{
closed = 1;
nodes = (
"363 -553 OFFCURVE",
"333 -615 OFFCURVE",
"258 -615 CURVE SMOOTH",
"186 -615 OFFCURVE",
"156 -549 OFFCURVE",
"156 -450 CURVE SMOOTH",
"156 -354 OFFCURVE",
"185 -285 OFFCURVE",
"261 -285 CURVE SMOOTH",
"334 -285 OFFCURVE",
"363 -353 OFFCURVE",
"363 -452 CURVE SMOOTH"
);
},
{
closed = 1;
nodes = (
"485 -288 OFFCURVE",
"410 -185 OFFCURVE",
"263 -185 CURVE SMOOTH",
"116 -185 OFFCURVE",
"33 -289 OFFCURVE",
"33 -452 CURVE SMOOTH",
"33 -611 OFFCURVE",
"109 -716 OFFCURVE",
"256 -715 CURVE SMOOTH",
"403 -714 OFFCURVE",
"485 -616 OFFCURVE",
"485 -450 CURVE SMOOTH"
);
}
);
};
layerId = "DCD82456-09AC-4979-A032-2B2C973E2DC4";
name = "Bold fina";
paths = (
{
closed = 1;
nodes = (
"118 -15 OFFCURVE",
"246 -15 CURVE SMOOTH",
"305 -15 OFFCURVE",
"358 2 OFFCURVE",
"414 38 CURVE",
"380 119 LINE",
"333 96 OFFCURVE",
"296 85 OFFCURVE",
"262 85 CURVE SMOOTH",
"195 85 OFFCURVE",
"153 143 OFFCURVE",
"153 251 CURVE SMOOTH",
"153 353 OFFCURVE",
"186 415 OFFCURVE",
"250 415 CURVE SMOOTH",
"291 415 OFFCURVE",
"312 392 OFFCURVE",
"331 345 CURVE",
"432 386 LINE",
"397 474 OFFCURVE",
"339 515 OFFCURVE",
"252 515 CURVE SMOOTH",
"126 515 OFFCURVE",
"30 418 OFFCURVE",
"30 256 CURVE SMOOTH",
"30 84 OFFCURVE"
);
}
);
width = 434;
},
{
associatedMasterId = "6114C541-D024-4A3E-9713-6FAF49EAB318";
background = {
paths = (
{
closed = 1;
nodes = (
"109 -15 OFFCURVE",
"241 -15 CURVE SMOOTH",
"304 -15 OFFCURVE",
"356 2 OFFCURVE",
"412 38 CURVE",
"375 124 LINE",
"328 101 OFFCURVE",
"291 90 OFFCURVE",
"257 90 CURVE SMOOTH",
"196 90 OFFCURVE",
"154 149 OFFCURVE",
"154 252 CURVE SMOOTH",
"156 348 OFFCURVE",
"189 410 OFFCURVE",
"247 410 CURVE SMOOTH",
"288 410 OFFCURVE",
"309 382 OFFCURVE",
"328 338 CURVE",
"434 380 LINE",
"401 470 OFFCURVE",
"343 515 OFFCURVE",
"248 515 CURVE SMOOTH",
"120 515 OFFCURVE",
"24 420 OFFCURVE",
"21 260 CURVE SMOOTH",
"21 88 OFFCURVE"
);
}
);
};
layerId = "FEB52A31-F2D1-4171-9268-CC4B9169A97E";
name = "Bold Condensed Oct 16 15, 12:54";
paths = (
{
closed = 1;
nodes = (
"105 -12 OFFCURVE",
"234 -15 CURVE SMOOTH",
"297 -17 OFFCURVE",
"349 -1 OFFCURVE",
"406 33 CURVE",
"372 120 LINE",
"326 99 OFFCURVE",
"290 89 OFFCURVE",
"258 89 CURVE SMOOTH",
"196 89 OFFCURVE",
"154 144 OFFCURVE",
"154 244 CURVE SMOOTH",
"154 343 OFFCURVE",
"191 409 OFFCURVE",
"248 409 CURVE SMOOTH",
"292 409 OFFCURVE",
"312 380 OFFCURVE",
"330 335 CURVE",
"437 375 LINE",
"405 469 OFFCURVE",
"347 514 OFFCURVE",
"247 514 CURVE SMOOTH",
"120 514 OFFCURVE",
"21 418 OFFCURVE",
"21 253 CURVE SMOOTH",
"21 88 OFFCURVE"
);
}
);
width = 429;
},
{
associatedMasterId = "CC11FE7D-5FF0-4B40-9597-DFC61EB94F41";
background = {
paths = (
{
closed = 1;
nodes = (
"270 -7 OFFCURVE",
"318 5 OFFCURVE",
"369 29 CURVE",
"357 60 LINE",
"313 39 OFFCURVE",
"273 27 OFFCURVE",
"233 27 CURVE SMOOTH",
"129 27 OFFCURVE",
"61 105 OFFCURVE",
"61 249 CURVE SMOOTH",
"61 382 OFFCURVE",
"113 474 OFFCURVE",
"208 474 CURVE SMOOTH",
"312 474 OFFCURVE",
"342 372 OFFCURVE",
"341 285 CURVE",
"44 284 LINE",
"44 251 LINE",
"380 251 LINE",
"380 271 LINE SMOOTH",
"380 408 OFFCURVE",
"333 507 OFFCURVE",
"208 507 CURVE SMOOTH",
"91 507 OFFCURVE",
"21 400 OFFCURVE",
"21 250 CURVE SMOOTH",
"21 85 OFFCURVE",
"102 -7 OFFCURVE",
"226 -7 CURVE SMOOTH"
);
},
{
closed = 1;
nodes = (
"379 -479 OFFCURVE",
"325 -574 OFFCURVE",
"219 -574 CURVE SMOOTH",
"114 -574 OFFCURVE",
"60 -481 OFFCURVE",
"60 -351 CURVE SMOOTH",
"60 -223 OFFCURVE",
"118 -126 OFFCURVE",
"222 -126 CURVE SMOOTH",
"326 -126 OFFCURVE",
"379 -221 OFFCURVE",
"379 -351 CURVE SMOOTH"
);
},
{
closed = 1;
nodes = (
"419 -203 OFFCURVE",
"356 -93 OFFCURVE",
"223 -93 CURVE SMOOTH",
"96 -93 OFFCURVE",
"20 -204 OFFCURVE",
"20 -351 CURVE SMOOTH",
"20 -500 OFFCURVE",
"82 -607 OFFCURVE",
"218 -607 CURVE SMOOTH",
"347 -607 OFFCURVE",
"419 -498 OFFCURVE",
"419 -351 CURVE SMOOTH"
);
}
);
};
layerId = "729BB34C-B9E9-4502-970E-06A4DC4E86A3";
name = "Light Condensed Oct 16 15, 15:24";
paths = (
{
closed = 1;
nodes = (
"114 -7 OFFCURVE",
"229 -7 CURVE SMOOTH",
"271 -7 OFFCURVE",
"320 4 OFFCURVE",
"368 30 CURVE",
"354 59 LINE",
"318 38 OFFCURVE",
"276 28 OFFCURVE",
"236 28 CURVE SMOOTH",
"143 28 OFFCURVE",
"83 104 OFFCURVE",
"83 249 CURVE SMOOTH",
"83 384 OFFCURVE",
"136 472 OFFCURVE",
"230 472 CURVE SMOOTH",
"284 472 OFFCURVE",
"332 440 OFFCURVE",
"358 388 CURVE",
"390 409 LINE",
"355 473 OFFCURVE",
"299 507 OFFCURVE",
"233 507 CURVE SMOOTH",
"116 507 OFFCURVE",
"40 408 OFFCURVE",
"40 250 CURVE SMOOTH",
"40 84 OFFCURVE"
);
}
);
width = 395;
},
{
anchors = (
{
name = bottom;
position = "{230, 0}";
},
{
name = top;
position = "{242, 500}";
}
);
associatedMasterId = "CC11FE7D-5FF0-4B40-9597-DFC61EB94F41";
background = {
paths = (
{
closed = 1;
nodes = (
"114 -7 OFFCURVE",
"229 -7 CURVE SMOOTH",
"271 -7 OFFCURVE",
"320 4 OFFCURVE",
"368 30 CURVE",
"354 59 LINE",
"318 38 OFFCURVE",
"276 28 OFFCURVE",
"236 28 CURVE SMOOTH",
"143 28 OFFCURVE",
"83 104 OFFCURVE",
"83 249 CURVE SMOOTH",
"83 384 OFFCURVE",
"136 472 OFFCURVE",
"230 472 CURVE SMOOTH",
"284 472 OFFCURVE",
"332 440 OFFCURVE",
"358 388 CURVE",
"390 409 LINE",
"355 473 OFFCURVE",
"299 507 OFFCURVE",
"233 507 CURVE SMOOTH",
"116 507 OFFCURVE",
"40 408 OFFCURVE",
"40 250 CURVE SMOOTH",
"40 84 OFFCURVE"
);
}
);
};
layerId = "85C0659D-80D3-4D8C-AAE1-B0905E655651";
name = "Light Condensed Oct 30 15, 15:50";
paths = (
{
closed = 1;
nodes = (
"277 -7 OFFCURVE",
"328 4 OFFCURVE",
"381 34 CURVE",
"367 64 LINE",
"322 39 OFFCURVE",
"280 28 OFFCURVE",
"237 28 CURVE SMOOTH",
"141 28 OFFCURVE",
"83 107 OFFCURVE",
"83 249 CURVE SMOOTH",
"83 384 OFFCURVE",
"136 472 OFFCURVE",
"230 472 CURVE SMOOTH",
"284 472 OFFCURVE",
"332 440 OFFCURVE",
"358 388 CURVE",
"390 409 LINE",
"355 473 OFFCURVE",
"299 507 OFFCURVE",
"233 507 CURVE SMOOTH",
"116 507 OFFCURVE",
"40 408 OFFCURVE",
"40 250 CURVE SMOOTH",
"40 86 OFFCURVE",
"113 -7 OFFCURVE",
"229 -7 CURVE SMOOTH"
);
}
);
width = 395;
},
{
anchors = (
{
name = bottom;
position = "{240, 0}";
},
{
name = top;
position = "{250, 500}";
}
);
associatedMasterId = "6114C541-D024-4A3E-9713-6FAF49EAB318";
background = {
paths = (
{
closed = 1;
nodes = (
"112 -15 OFFCURVE",
"241 -15 CURVE SMOOTH",
"293 -15 OFFCURVE",
"349 0 OFFCURVE",
"406 33 CURVE",
"372 120 LINE",
"334 101 OFFCURVE",
"298 91 OFFCURVE",
"267 91 CURVE SMOOTH",
"200 91 OFFCURVE",
"154 146 OFFCURVE",
"154 251 CURVE SMOOTH",
"154 350 OFFCURVE",
"191 409 OFFCURVE",
"248 409 CURVE SMOOTH",
"292 409 OFFCURVE",
"312 380 OFFCURVE",
"330 335 CURVE",
"437 375 LINE",
"405 469 OFFCURVE",
"347 514 OFFCURVE",
"247 514 CURVE SMOOTH",
"120 514 OFFCURVE",
"21 418 OFFCURVE",
"21 253 CURVE SMOOTH",
"21 77 OFFCURVE"
);
}
);
};
layerId = "6146A702-65B3-414A-B084-4AA1A9019F19";
name = "Bold Condensed Oct 30 15, 15:52";
paths = (
{
closed = 1;
nodes = (
"309 -15 OFFCURVE",
"365 2 OFFCURVE",
"428 39 CURVE",
"392 127 LINE",
"346 104 OFFCURVE",
"308 94 OFFCURVE",
"273 94 CURVE SMOOTH",
"199 94 OFFCURVE",
"154 140 OFFCURVE",
"154 251 CURVE SMOOTH",
"154 350 OFFCURVE",
"191 409 OFFCURVE",
"248 409 CURVE SMOOTH",
"292 409 OFFCURVE",
"312 380 OFFCURVE",
"330 335 CURVE",
"437 375 LINE",
"405 469 OFFCURVE",
"347 514 OFFCURVE",
"247 514 CURVE SMOOTH",
"120 514 OFFCURVE",
"21 418 OFFCURVE",
"21 253 CURVE SMOOTH",
"21 81 OFFCURVE",
"105 -15 OFFCURVE",
"245 -15 CURVE SMOOTH"
);
}
);
width = 440;
},
{
anchors = (
{
name = bottom;
position = "{221, 0}";
},
{
name = top;
position = "{228, 500}";
}
);
background = {
paths = (
{
closed = 1;
nodes = (
"267 -7 OFFCURVE",
"318 4 OFFCURVE",
"371 34 CURVE",
"357 64 LINE",
"312 39 OFFCURVE",
"270 28 OFFCURVE",
"227 28 CURVE SMOOTH",
"131 28 OFFCURVE",
"73 107 OFFCURVE",
"73 249 CURVE SMOOTH",
"73 384 OFFCURVE",
"126 472 OFFCURVE",
"220 472 CURVE SMOOTH",
"274 472 OFFCURVE",
"322 440 OFFCURVE",
"348 388 CURVE",
"380 409 LINE",
"345 473 OFFCURVE",
"289 507 OFFCURVE",
"223 507 CURVE SMOOTH",
"106 507 OFFCURVE",
"30 408 OFFCURVE",
"30 250 CURVE SMOOTH",
"30 86 OFFCURVE",
"103 -7 OFFCURVE",
"219 -7 CURVE SMOOTH"
);
}
);
};
layerId = "CC11FE7D-5FF0-4B40-9597-DFC61EB94F41";
paths = (
{
closed = 1;
nodes = (
"262 -7 OFFCURVE",
"313 4 OFFCURVE",
"366 34 CURVE",
"352 64 LINE",
"307 39 OFFCURVE",
"265 28 OFFCURVE",
"229 28 CURVE SMOOTH",
"138 28 OFFCURVE",
"83 107 OFFCURVE",
"83 249 CURVE SMOOTH",
"83 384 OFFCURVE",
"133 472 OFFCURVE",
"222 472 CURVE SMOOTH",
"269 472 OFFCURVE",
"317 440 OFFCURVE",
"343 388 CURVE",
"375 409 LINE",
"340 473 OFFCURVE",
"284 507 OFFCURVE",
"225 507 CURVE SMOOTH",
"113 507 OFFCURVE",
"40 408 OFFCURVE",
"40 250 CURVE SMOOTH",
"40 86 OFFCURVE",
"110 -7 OFFCURVE",
"221 -7 CURVE SMOOTH"
);
}
);
width = 378;
}
);
unicode = 0063;
},
{
glyphname = d;
lastChange = "2021-05-27 04:30:38 +0000";
layers = (
{
anchors = (
{
name = center;
position = "{259, 250}";
},
{
name = topright;
position = "{491, 500}";
}
);
background = {
paths = (
{
closed = 1;
nodes = (
"330 725 LINE",
"330 216 LINE SMOOTH",
"330 134 OFFCURVE",
"298 90 OFFCURVE",
"246 90 CURVE SMOOTH",
"191 90 OFFCURVE",
"162 161 OFFCURVE",
"162 248 CURVE SMOOTH",
"162 336 OFFCURVE",
"191 410 OFFCURVE",
"267 410 CURVE SMOOTH",
"286 410 OFFCURVE",
"311 406 OFFCURVE",
"336 396 CURVE",
"416 474 LINE",
"354 507 OFFCURVE",
"311 515 OFFCURVE",
"266 515 CURVE SMOOTH",
"103 515 OFFCURVE",
"29 383 OFFCURVE",
"29 236 CURVE SMOOTH",
"29 98 OFFCURVE",
"93 -15 OFFCURVE",
"213 -15 CURVE SMOOTH",
"290 -15 OFFCURVE",
"355 30 OFFCURVE",
"382 130 CURVE",
"339 130 LINE",
"339 102 LINE SMOOTH",
"339 2 OFFCURVE",
"396 -15 OFFCURVE",
"491 -15 CURVE",
"491 85 LINE",
"471 85 OFFCURVE",
"460 96 OFFCURVE",
"460 116 CURVE SMOOTH",
"460 725 LINE"
);
},
{
closed = 0;
nodes = (
"339 100 LINE",
"339 -5 OFFCURVE",
"409 -30 OFFCURVE",
"501 -8 CURVE",
"497 87 LINE",
"460 82 OFFCURVE",
"448 95 OFFCURVE",
"448 133 CURVE SMOOTH"
);
}
);
};
layerId = "6114C541-D024-4A3E-9713-6FAF49EAB318";
paths = (
{
closed = 1;
nodes = (
"330 725 LINE",
"330 216 LINE SMOOTH",
"330 134 OFFCURVE",
"298 88 OFFCURVE",
"246 88 CURVE SMOOTH",
"188 88 OFFCURVE",
"162 161 OFFCURVE",
"162 248 CURVE SMOOTH",
"162 336 OFFCURVE",
"191 410 OFFCURVE",
"267 410 CURVE SMOOTH",
"286 410 OFFCURVE",
"311 406 OFFCURVE",
"336 396 CURVE",
"416 474 LINE",
"354 507 OFFCURVE",
"311 515 OFFCURVE",
"266 515 CURVE SMOOTH",
"103 515 OFFCURVE",
"29 383 OFFCURVE",
"29 236 CURVE SMOOTH",
"29 98 OFFCURVE",
"93 -15 OFFCURVE",
"213 -15 CURVE SMOOTH",
"287 -15 OFFCURVE",
"350 33 OFFCURVE",
"375 130 CURVE",
"339 130 LINE",
"339 102 LINE SMOOTH",
"339 -4 OFFCURVE",
"407 -30 OFFCURVE",
"496 -9 CURVE",
"491 86 LINE",
"469 83 OFFCURVE",
"460 93 OFFCURVE",
"460 114 CURVE SMOOTH",
"460 725 LINE"
);
}
);
width = 514;
},
{
associatedMasterId = "CC11FE7D-5FF0-4B40-9597-DFC61EB94F41";
layerId = "6FBEAB62-1917-4358-BC37-9095B9521C76";
name = "Light Condensed Sep 4 15, 13:37";
paths = (
{
closed = 1;
nodes = (
"288 -7 OFFCURVE",
"350 36 OFFCURVE",
"384 128 CURVE",
"362 127 LINE",
"363 0 LINE",
"398 0 LINE",
"398 725 LINE",
"360 725 LINE",
"360 206 LINE SMOOTH",
"360 89 OFFCURVE",
"291 26 OFFCURVE",
"222 26 CURVE SMOOTH",
"153 26 OFFCURVE",
"83 90 OFFCURVE",
"83 227 CURVE SMOOTH",
"83 374 OFFCURVE",
"145 474 OFFCURVE",
"250 474 CURVE SMOOTH",
"281 474 OFFCURVE",
"326 463 OFFCURVE",
"360 445 CURVE",
"390 466 LINE",
"355 487 OFFCURVE",
"303 507 OFFCURVE",
"244 507 CURVE SMOOTH",
"123 507 OFFCURVE",
"43 389 OFFCURVE",
"43 227 CURVE SMOOTH",
"43 78 OFFCURVE",
"120 -7 OFFCURVE",
"216 -7 CURVE SMOOTH"
);
}
);
width = 488;
},
{
associatedMasterId = "6114C541-D024-4A3E-9713-6FAF49EAB318";
layerId = "B2F99DEE-7429-45B9-9A62-FC66882F33AF";
name = "Bold Condensed Sep 4 15, 13:38";
paths = (
{
closed = 1;
nodes = (
"283 -15 OFFCURVE",
"345 30 OFFCURVE",
"372 130 CURVE",
"332 130 LINE",
"340 0 LINE",
"450 0 LINE",
"451 725 LINE",
"331 725 LINE",
"330 211 LINE SMOOTH",
"330 129 OFFCURVE",
"296 85 OFFCURVE",
"244 85 CURVE SMOOTH",
"191 85 OFFCURVE",
"156 133 OFFCURVE",
"156 226 CURVE SMOOTH",
"156 340 OFFCURVE",
"187 415 OFFCURVE",
"265 415 CURVE SMOOTH",
"284 415 OFFCURVE",
"306 411 OFFCURVE",
"331 401 CURVE",
"411 470 LINE",
"349 503 OFFCURVE",
"309 515 OFFCURVE",
"264 515 CURVE SMOOTH",
"125 515 OFFCURVE",
"33 409 OFFCURVE",
"33 224 CURVE SMOOTH",
"33 75 OFFCURVE",
"107 -15 OFFCURVE",
"211 -15 CURVE SMOOTH"
);
}
);
width = 511;
},
{
associatedMasterId = "6114C541-D024-4A3E-9713-6FAF49EAB318";
background = {
paths = (
{
closed = 1;
nodes = (
"286 685 OFFCURVE",
"348 730 OFFCURVE",
"375 830 CURVE",
"335 830 LINE",
"343 700 LINE",
"453 700 LINE",
"454 1425 LINE",
"334 1425 LINE",
"333 911 LINE SMOOTH",
"333 829 OFFCURVE",
"299 785 OFFCURVE",
"247 785 CURVE SMOOTH",
"194 785 OFFCURVE",
"159 833 OFFCURVE",
"159 926 CURVE SMOOTH",
"159 1040 OFFCURVE",
"190 1115 OFFCURVE",
"268 1115 CURVE SMOOTH",
"287 1115 OFFCURVE",
"309 1111 OFFCURVE",
"334 1101 CURVE",
"414 1170 LINE",
"352 1203 OFFCURVE",
"312 1215 OFFCURVE",
"267 1215 CURVE SMOOTH",
"128 1215 OFFCURVE",
"36 1109 OFFCURVE",
"36 924 CURVE SMOOTH",
"36 775 OFFCURVE",
"110 685 OFFCURVE",
"214 685 CURVE SMOOTH"
);
},
{
closed = 1;
nodes = (
"333 725 LINE",
"333 211 LINE SMOOTH",
"333 129 OFFCURVE",
"296 85 OFFCURVE",
"244 85 CURVE SMOOTH",
"191 85 OFFCURVE",
"156 133 OFFCURVE",
"156 235 CURVE SMOOTH",
"156 340 OFFCURVE",
"177 415 OFFCURVE",
"265 415 CURVE SMOOTH",
"284 415 OFFCURVE",
"309 411 OFFCURVE",
"334 401 CURVE",
"414 470 LINE",
"352 503 OFFCURVE",
"309 515 OFFCURVE",
"264 515 CURVE SMOOTH",
"115 515 OFFCURVE",
"33 409 OFFCURVE",
"33 233 CURVE SMOOTH",
"33 75 OFFCURVE",
"110 -15 OFFCURVE",
"211 -15 CURVE SMOOTH",
"283 -15 OFFCURVE",
"348 30 OFFCURVE",
"375 130 CURVE",
"342 130 LINE",
"342 117 LINE SMOOTH",
"342 10 OFFCURVE",
"389 -15 OFFCURVE",
"489 -15 CURVE",
"489 75 LINE",
"464 75 OFFCURVE",
"453 84 OFFCURVE",
"453 109 CURVE SMOOTH",
"453 725 LINE"
);
}
);
};
layerId = "C4AC6A23-03B2-45D7-A5A6-12189C43F18A";
name = "Bold fina";
paths = (
{
closed = 1;
nodes = (
"333 725 LINE",
"333 211 LINE SMOOTH",
"333 129 OFFCURVE",
"296 85 OFFCURVE",
"244 85 CURVE SMOOTH",
"184 85 OFFCURVE",
"155 156 OFFCURVE",
"155 248 CURVE SMOOTH",
"155 341 OFFCURVE",
"184 415 OFFCURVE",
"265 415 CURVE SMOOTH",
"284 415 OFFCURVE",
"309 411 OFFCURVE",
"334 401 CURVE",
"414 474 LINE",
"352 507 OFFCURVE",
"309 515 OFFCURVE",
"264 515 CURVE SMOOTH",
"104 515 OFFCURVE",
"30 383 OFFCURVE",
"30 236 CURVE SMOOTH",
"30 98 OFFCURVE",
"94 -15 OFFCURVE",
"211 -15 CURVE SMOOTH",
"283 -15 OFFCURVE",
"348 30 OFFCURVE",
"375 130 CURVE",
"342 130 LINE",
"342 117 LINE SMOOTH",
"342 10 OFFCURVE",
"389 -15 OFFCURVE",
"489 -15 CURVE",
"489 75 LINE",
"464 75 OFFCURVE",
"453 84 OFFCURVE",
"453 109 CURVE SMOOTH",
"453 725 LINE"
);
}
);
width = 514;
},
{
associatedMasterId = "6114C541-D024-4A3E-9713-6FAF49EAB318";
background = {
paths = (
{
closed = 1;
nodes = (
"328 725 LINE",
"328 211 LINE SMOOTH",
"328 129 OFFCURVE",
"291 85 OFFCURVE",
"239 85 CURVE SMOOTH",
"179 85 OFFCURVE",
"150 156 OFFCURVE",
"150 248 CURVE SMOOTH",
"150 341 OFFCURVE",
"179 415 OFFCURVE",
"260 415 CURVE SMOOTH",
"279 415 OFFCURVE",
"304 411 OFFCURVE",
"329 401 CURVE",
"409 474 LINE",
"347 507 OFFCURVE",
"304 515 OFFCURVE",
"259 515 CURVE SMOOTH",
"99 515 OFFCURVE",
"25 383 OFFCURVE",
"25 236 CURVE SMOOTH",
"25 98 OFFCURVE",
"89 -15 OFFCURVE",
"206 -15 CURVE SMOOTH",
"278 -15 OFFCURVE",
"343 30 OFFCURVE",
"370 130 CURVE",
"337 130 LINE",
"337 117 LINE SMOOTH",
"337 10 OFFCURVE",
"384 -15 OFFCURVE",
"484 -15 CURVE",
"484 75 LINE",
"459 75 OFFCURVE",
"448 84 OFFCURVE",
"448 109 CURVE SMOOTH",
"448 725 LINE"
);
},
{
closed = 0;
nodes = (
"332 100 LINE",
"332 0 OFFCURVE",
"395 -15 OFFCURVE",
"480 -15 CURVE"
);
},
{
closed = 0;
nodes = (
"489 85 LINE",
"464 85 OFFCURVE",
"453 94 OFFCURVE",
"453 119 CURVE SMOOTH"
);
}
);
};
layerId = "D7AE8BA1-FE71-41E2-B386-35CFAAF96CAD";
name = "Bold Condensed Sep 13 15, 20:47";
paths = (
{
closed = 1;
nodes = (
"323 725 LINE",
"323 216 LINE SMOOTH",
"323 134 OFFCURVE",
"291 90 OFFCURVE",
"239 90 CURVE SMOOTH",
"184 90 OFFCURVE",
"155 161 OFFCURVE",
"155 248 CURVE SMOOTH",
"155 336 OFFCURVE",
"184 410 OFFCURVE",
"260 410 CURVE SMOOTH",
"279 410 OFFCURVE",
"304 406 OFFCURVE",
"329 396 CURVE",
"409 474 LINE",
"347 507 OFFCURVE",
"304 515 OFFCURVE",
"259 515 CURVE SMOOTH",
"96 515 OFFCURVE",
"22 383 OFFCURVE",
"22 236 CURVE SMOOTH",
"22 98 OFFCURVE",
"86 -15 OFFCURVE",
"206 -15 CURVE SMOOTH",
"283 -15 OFFCURVE",
"348 30 OFFCURVE",
"375 130 CURVE",
"332 130 LINE",
"332 102 LINE SMOOTH",
"332 2 OFFCURVE",
"389 -15 OFFCURVE",
"484 -15 CURVE",
"484 85 LINE",
"464 85 OFFCURVE",
"453 96 OFFCURVE",
"453 116 CURVE SMOOTH",
"453 725 LINE"
);
}
);
width = 504;
},
{
anchors = (
{
name = center;
position = "{239, 250}";
},
{
name = topright;
position = "{458, 500}";
}
);
background = {
paths = (
{
closed = 1;
nodes = (
"283 -7 OFFCURVE",
"345 36 OFFCURVE",
"379 128 CURVE",
"357 127 LINE",
"358 0 LINE",
"393 0 LINE",
"393 725 LINE",
"355 725 LINE",
"355 206 LINE SMOOTH",
"355 89 OFFCURVE",
"286 26 OFFCURVE",
"217 26 CURVE SMOOTH",
"148 26 OFFCURVE",
"78 90 OFFCURVE",
"78 227 CURVE SMOOTH",
"78 374 OFFCURVE",
"140 474 OFFCURVE",
"245 474 CURVE SMOOTH",
"276 474 OFFCURVE",
"321 463 OFFCURVE",
"355 445 CURVE",
"385 466 LINE",
"350 487 OFFCURVE",
"298 507 OFFCURVE",
"239 507 CURVE SMOOTH",
"118 507 OFFCURVE",
"38 389 OFFCURVE",
"38 227 CURVE SMOOTH",
"38 78 OFFCURVE",
"115 -7 OFFCURVE",
"211 -7 CURVE SMOOTH"
);
}
);
};
layerId = "CC11FE7D-5FF0-4B40-9597-DFC61EB94F41";
paths = (
{
closed = 1;
nodes = (
"353 725 LINE",
"353 196 LINE SMOOTH",
"353 78 OFFCURVE",
"286 28 OFFCURVE",
"217 28 CURVE SMOOTH",
"150 28 OFFCURVE",
"81 91 OFFCURVE",
"81 227 CURVE SMOOTH",
"81 373 OFFCURVE",
"142 472 OFFCURVE",
"245 472 CURVE SMOOTH",
"276 472 OFFCURVE",
"321 462 OFFCURVE",
"355 444 CURVE",
"385 466 LINE",
"350 487 OFFCURVE",
"298 507 OFFCURVE",
"239 507 CURVE SMOOTH",
"118 507 OFFCURVE",
"38 389 OFFCURVE",
"38 227 CURVE SMOOTH",
"38 78 OFFCURVE",
"115 -7 OFFCURVE",
"211 -7 CURVE SMOOTH",
"283 -7 OFFCURVE",
"345 36 OFFCURVE",
"375 128 CURVE",
"353 128 LINE",
"353 84 LINE SMOOTH",
"353 17 OFFCURVE",
"376 -14 OFFCURVE",
"442 -5 CURVE",
"440 26 LINE",
"402 22 OFFCURVE",
"393 39 OFFCURVE",
"393 89 CURVE SMOOTH",
"393 725 LINE"
);
}
);
width = 478;
}
);
unicode = 0064;
},
